<?xml version="1.0" encoding="UTF-8" standalone="no"?>
<svg
   xmlns:dc="http://purl.org/dc/elements/1.1/"
   xmlns:cc="http://creativecommons.org/ns#"
   xmlns:rdf="http://www.w3.org/1999/02/22-rdf-syntax-ns#"
   xmlns:svg="http://www.w3.org/2000/svg"
   xmlns="http://www.w3.org/2000/svg"
   xmlns:sodipodi="http://sodipodi.sourceforge.net/DTD/sodipodi-0.dtd"
   xmlns:inkscape="http://www.inkscape.org/namespaces/inkscape"
   width="828.65277pt"
   height="267.17484pt"
   viewBox="0 0 828.65279 267.17484"
   version="1.2"
   id="svg99"
   sodipodi:docname="avion1.svg"
   inkscape:version="0.92.3 (unknown)">
  <metadata
     id="metadata103">
    <rdf:RDF>
      <cc:Work
         rdf:about="">
        <dc:format>image/svg+xml</dc:format>
        <dc:type
           rdf:resource="http://purl.org/dc/dcmitype/StillImage" />
        <dc:title />
      </cc:Work>
    </rdf:RDF>
  </metadata>
  <sodipodi:namedview
     pagecolor="#ffffff"
     bordercolor="#666666"
     borderopacity="1"
     objecttolerance="10"
     gridtolerance="10"
     guidetolerance="10"
     inkscape:pageopacity="0"
     inkscape:pageshadow="2"
     inkscape:window-width="1366"
     inkscape:window-height="717"
     id="namedview101"
     showgrid="false"
     fit-margin-top="0"
     fit-margin-left="0"
     fit-margin-right="0"
     fit-margin-bottom="0"
     inkscape:zoom="0.64037126"
     inkscape:cx="564.80905"
     inkscape:cy="57.410332"
     inkscape:window-x="0"
     inkscape:window-y="0"
     inkscape:window-maximized="1"
     inkscape:current-layer="surface119" />
  <defs
     id="defs14">
    <clipPath
       id="clip1">
      <path
         d="m 0,743 h 13 v 17.91016 H 0 Z m 0,0"
         id="path2"
         inkscape:connector-curvature="0" />
    </clipPath>
    <clipPath
       id="clip2">
      <path
         d="m 127,743 h 13 v 17.91016 h -13 z m 0,0"
         id="path5"
         inkscape:connector-curvature="0" />
    </clipPath>
    <clipPath
       id="clip3">
      <path
         d="m 246,743 h 14 v 17.91016 h -14 z m 0,0"
         id="path8"
         inkscape:connector-curvature="0" />
    </clipPath>
    <clipPath
       id="clip4">
      <path
         d="m 581,117 h 296.85156 v 92 H 581 Z m 0,0"
         id="path11"
         inkscape:connector-curvature="0" />
    </clipPath>
  </defs>
  <g
     id="surface119"
     transform="translate(-18.948673,-218.24485)">
    <path
       style="fill:#211e1e;fill-opacity:1;fill-rule:nonzero;stroke:none;stroke-width:2.83780432"
       d="m 836.4913,366.05455 h -32.16917 c -0.31039,0 -0.63186,0.0333 -0.94224,0.11085 l -37.47897,9.05659 -20.95098,5.06593 -49.34011,11.91656 H 41.562423 c -0.74271,1.00875 -1.35239,1.95099 -1.88448,2.7602 0,0 -0.70945,0.99767 -1.01983,1.44108 -7.75963,0.24387 -12.69253,3.1371 -15.68553,6.70653 -2.97082,3.54725 -4.02391,7.75962 -4.02391,10.70828 0,4.06825 1.77362,7.87047 5.24328,11.29579 25.42939,25.05249 153.330127,33.37745 301.195247,35.11782 v -7.95915 C 193.37388,450.68985 54.277123,443.4734 29.845393,419.38532 c -1.91773,-1.88448 -2.8378,-3.70245 -2.84889,-5.55367 0.0222,-0.8203 0.24388,-3.20361 1.93991,-5.36522 1.68494,-2.15053 4.84422,-4.1126 10.74153,-4.1126 0.32147,0 0.5986,-0.0333 0.88681,-0.0887 H 696.54098 c 21.9819,7.03909 59.08398,3.19253 80.57813,0 h 35.18434 c 0.8979,-2.33897 1.48542,-5.02158 1.48542,-8.18085 0,-2.00642 -0.70946,-3.90198 -2.06185,-5.65344 l 19.54316,-12.31563 h -15.08692 c -3.79113,2.3944 -7.72637,4.87748 -11.32905,7.14994 -3.00408,1.89556 -5.74211,3.61376 -7.97023,5.02158 -1.18612,0.74271 -2.20595,1.38565 -3.04843,1.91774 -1.33022,0.84247 -2.18378,1.37456 -2.36114,1.49649 -6.38506,1.20829 -57.06647,10.43115 -86.24265,4.45624 5.27654,-1.27479 14.22228,-3.4364 24.63126,-5.95273 11.53966,-2.78238 24.87513,-6.00817 37.0799,-8.95682 6.52917,-1.58519 12.72578,-3.0706 18.14643,-4.38973 11.46207,-2.7713 19.45448,-4.70012 19.72052,-4.76663 h 32.84537 l 0.9755,-0.62077 c 1.51867,-0.95332 2.21703,-2.79346 1.7182,-4.51166 -0.49883,-1.72929 -2.07293,-2.90432 -3.85764,-2.90432 z m -430.57031,66.94336 c -0.5986,-0.16627 -9.38914,-2.5385 -21.33896,-4.46732 h -0.47666 c -8.16978,-1.29697 -17.75845,-2.36114 -27.25844,-2.36114 -1.28589,0 -2.472,0.0222 -3.64703,0.0665 -0.0222,-0.0333 -0.0554,-0.0443 -0.0776,-0.0665 -21.28353,0.72053 -23.71119,7.6266 -23.71119,10.69719 v 11.07409 h 8.04784 v -10.23162 c 0.76488,-0.75379 4.56709,-3.50291 19.38797,-3.50291 18.12425,0 37.02447,4.17911 43.98597,5.87514 v 19.62076 c -6.9615,1.70711 -25.86172,5.88622 -43.98597,5.88622 -14.82088,0 -18.62309,-2.74912 -19.38797,-3.50291 V 451.8538 h -8.04784 v 11.063 c 0,3.07059 2.42766,9.98774 23.71119,10.70827 0.0222,-0.0222 0.0554,-0.0333 0.0776,-0.0665 1.17503,0.0444 2.36114,0.0665 3.64703,0.0665 9.49999,0 19.08866,-1.06417 27.25844,-2.36114 0.4434,0 0.63185,-0.0111 0.47666,-0.0111 11.94982,-1.91774 20.74036,-4.28996 21.33896,-4.46733 1.67386,-0.45449 2.81563,-1.92882 2.9154,-3.63593 v -26.51574 c -0.0998,-1.69603 -1.24154,-3.18144 -2.9154,-3.63594 z m 173.0839,2.41657 c -3.40315,0 -11.67269,-4.09043 -15.64118,-6.90606 h -12.79229 l 10.15402,7.23862 c 2.41657,1.80688 10.87455,7.71528 18.27945,7.71528 8.3693,0 13.81212,-8.38039 16.80512,-14.9539 0.0222,-0.0333 0.0443,-0.0665 0.0554,-0.11085 -0.60969,0.0443 -1.24154,0.0776 -1.86231,0.11085 -2.41657,0.14411 -4.88856,0.27713 -7.47141,0.41015 -2.11727,3.58051 -4.74445,6.49591 -7.52683,6.49591 z M 91.334854,384.15664 c 0,-2.21703 -1.806884,-4.01283 -4.023919,-4.01283 H 55.230443 c -0.14411,0.0776 -0.27713,0.17736 -0.42124,0.25496 -0.48774,0.2993 -0.97549,0.5986 -1.42998,0.88681 -3.69137,2.3944 -6.40724,4.74445 -8.46908,6.89498 h 42.400792 c 2.217035,0 4.023919,-1.7958 4.023919,-4.02392 z m 89.856416,-15.97374 56.0023,-0.15519 c 123.01216,-0.46558 371.94082,-1.40781 495.88414,10.98541 l 22.1371,-5.34305 c -23.15693,-3.12602 -52.53264,-5.58693 -86.79691,-7.51575 -3.46966,-0.18845 -7.00583,-0.3769 -10.57526,-0.56535 -108.45733,-5.57584 -261.82071,-6.20769 -420.68233,-5.60909 l -55.96904,0.15519 c -64.9702,0 -99.300987,7.57117 -118.123607,15.98482 h 26.08341 c 19.720527,-4.57818 48.796937,-7.93699 92.040197,-7.93699 z m 392.32646,82.76191 -42.74443,0.48775 c -21.94864,0.32147 -50.22692,0.72053 -82.16331,0.98658 v 1.67386 c 0,2.60502 -0.64294,4.64469 -2.63827,6.30746 28.55541,-0.18844 57.0443,-0.521 84.92352,-0.92006 l 42.62249,-0.48775 c 72.78525,0 219.87442,-40.60499 225.98234,-42.72226 4.36756,-1.50759 8.09218,-5.66453 10.58635,-7.80396 h 0.0887 c 0.0443,-0.0554 0.0665,-0.12194 0.11085,-0.17737 h -12.22695 c -39.8512,13.51283 -166.11132,42.65575 -224.54127,42.65575 z M 412.86031,436.91098 v 8.10326 c 9.46674,0.73163 18.66743,1.76255 22.93522,2.73804 v 4.21237 c -4.26779,0.96441 -13.46848,2.00641 -22.93522,2.73804 v 8.10326 c 31.7036,-2.26138 31.72576,-5.26546 31.72576,-8.71295 v -8.46907 c 0,-3.44749 -0.0222,-6.45157 -31.72576,-8.71295 z M 846.90028,220.00739 c -0.74271,-1.09743 -1.99533,-1.76254 -3.32556,-1.76254 H 813.3122 c -12.71469,0 -24.84187,10.48657 -25.35179,10.92998 -0.0887,0.0776 -0.17736,0.16628 -0.26604,0.25496 l -126.19362,132.3348 c 3.09276,0.16628 7.13885,0.37689 7.13885,0.37689 1.15286,0.0665 2.28355,0.13303 3.42532,0.19954 30.17384,-31.64817 121.03901,-126.93632 121.30505,-127.20237 0.64295,-0.55425 10.54201,-8.84597 19.94223,-8.84597 h 6.49591 l -87.06295,140.70411 c 3.05951,0.31039 6.00816,0.62077 8.87922,0.94224 l 58.26368,-94.15746 h 14.68785 c 1.08635,-2.74912 2.15053,-5.43174 3.18145,-8.03675 h -12.90315 l 24.42064,-39.45214 h 8.39148 c -3.2923,8.34714 -41.53615,105.13179 -55.65866,140.90364 l 9.55542,-2.3168 55.75842,-141.12534 c 0.48775,-1.25263 0.33256,-2.64936 -0.42123,-3.74679 z m -193.38086,200.4532 c 0,-0.99767 -0.37689,-1.89557 -0.97549,-2.59394 -0.7427,-0.86464 -1.82905,-1.42998 -3.04842,-1.42998 H 358.78683 c -2.21703,0 -4.02392,1.80688 -4.02392,4.02392 0,2.22811 1.80689,4.02391 4.02392,4.02391 h 290.70868 c 2.21703,0 4.02391,-1.7958 4.02391,-4.02391 z m -139.14109,8.04783 h -27.43581 l -39.58515,12.13827 c 0.94224,1.39673 1.25262,3.02625 1.25262,4.97724 v 3.04842 l 65.76834,-20.16393"
       id="path82"
       inkscape:connector-curvature="0"
       sodipodi:nodetypes="csccccccccsccccccsccccsccccccccccccccccccccsccscccsccscccsccscccccccccccsccccccssccccssccccccccccccccsccccccccscccccccssccssccccccscccccccccccccscsssssscccscc" />
  </g>
</svg>
