<?xml version="1.0" encoding="iso-8859-1"?>
<!-- Generator: Adobe Illustrator 16.0.0, SVG Export Plug-In . SVG Version: 6.00 Build 0)  -->
<!DOCTYPE svg PUBLIC "-//W3C//DTD SVG 1.1//EN" "http://www.w3.org/Graphics/SVG/1.1/DTD/svg11.dtd">
<svg version="1.1" id="Capa_1" xmlns="http://www.w3.org/2000/svg" xmlns:xlink="http://www.w3.org/1999/xlink" x="0px" y="0px"
	 width="668.91px" height="668.91px" viewBox="0 0 668.91 668.91" style="enable-background:new 0 0 668.91 668.91;"
	 xml:space="preserve">
<g>
	<g>
		<path d="M586.385,143.356l20.53,26.147l9.942-12.719l9.91-12.718c21.982-28.116,16.915-68.757-11.04-90.61l-50.971-39.833
			c-28.083-21.918-68.725-16.818-90.578,11.201l-19.853,25.404l30.344,13.59l14.946-19.142
			c10.942-14.009,31.312-16.527,45.289-5.617l50.97,39.834c13.945,10.911,16.463,31.279,5.488,45.289L586.385,143.356z"/>
		<polygon points="334.438,152.427 334.438,345.851 205.318,345.851 205.318,378.26 334.438,378.26 334.438,378.389 
			366.589,378.389 366.589,378.26 366.718,378.26 366.718,345.851 366.589,345.851 366.589,152.427 		"/>
		<path d="M194.762,24.856C172.812-3.26,132.139-8.199,104.184,13.655L53.181,53.488c-28.083,21.918-32.926,62.591-11.04,90.61
			l19.852,25.405l20.53-26.147l-14.946-19.142c-10.943-14.01-8.49-34.378,5.488-45.289l50.97-39.834
			c13.945-10.911,34.314-8.393,45.289,5.617l14.946,19.142l30.343-13.59l-9.942-12.686L194.762,24.856z"/>
		<path d="M43.917,346.108c0,97.519,48.033,183.804,121.761,236.518l-64.076,63.785l22.596,22.499l69.112-68.821
			c41.771,23.274,89.9,36.541,141.129,36.541c50.195,0,97.389-12.718,138.578-35.12l67.691,67.4l22.597-22.499l-62.43-62.172
			c75.019-52.52,124.085-139.611,124.085-238.131c0-160.465-130.058-290.522-290.521-290.522
			C174.006,55.586,43.917,185.676,43.917,346.108z M592.68,346.108c0,142.614-115.628,258.242-258.241,258.242
			c-142.614,0-258.242-115.628-258.242-258.242c0-142.614,115.628-258.242,258.242-258.242
			C477.052,87.867,592.68,203.495,592.68,346.108z"/>
	</g>
</g>
<g>
</g>
<g>
</g>
<g>
</g>
<g>
</g>
<g>
</g>
<g>
</g>
<g>
</g>
<g>
</g>
<g>
</g>
<g>
</g>
<g>
</g>
<g>
</g>
<g>
</g>
<g>
</g>
<g>
</g>
</svg>
