<?xml version="1.0" encoding="iso-8859-1"?>
<!-- Generator: Adobe Illustrator 19.0.0, SVG Export Plug-In . SVG Version: 6.00 Build 0)  -->
<svg version="1.1" id="Capa_1" xmlns="http://www.w3.org/2000/svg" xmlns:xlink="http://www.w3.org/1999/xlink" x="0px" y="0px"
	 viewBox="0 0 512 512" style="enable-background:new 0 0 512 512;" xml:space="preserve">
<rect x="10.667" y="234.667" style="fill:#0277BD;" width="149.333" height="256"/>
<path style="fill:#01579B;" d="M160,501.333H10.667C4.776,501.333,0,496.558,0,490.667v-256C0,228.776,4.776,224,10.667,224H160
	c5.891,0,10.667,4.776,10.667,10.667v256C170.667,496.558,165.891,501.333,160,501.333z M21.333,480h128V245.333h-128V480z"/>
<path style="fill:#ECEFF1;" d="M160,448c18.59,13.606,40.965,21.064,64,21.333h197.333c20.571,0.072,37.306-16.546,37.378-37.118
	c0.036-10.343-4.23-20.236-11.778-27.309c20.37-2.201,35.1-20.499,32.899-40.869c-0.956-8.848-5.061-17.057-11.565-23.131
	c20.373-2.177,35.124-20.458,32.946-40.831c-1.337-12.508-8.921-23.487-20.146-29.164c20.018-12.432,26.167-38.738,13.735-58.756
	c-7.763-12.5-21.42-20.118-36.135-20.156H309.333c11.719-30.799,18.905-63.136,21.333-96c0-40-34.667-74.667-53.333-74.667
	c-11.512,0.168-22.69,3.894-32,10.667v74.667l-64,138.667L160,256V448z"/>
<path style="fill:#01579B;" d="M421.333,480H224c-25.865-0.206-50.969-8.783-71.552-24.448c-1.999-2.004-3.12-4.721-3.115-7.552V256
	c0-4.037,2.279-7.728,5.888-9.536l17.984-9.003l61.461-133.12V32c-0.007-3.242,1.461-6.312,3.989-8.341
	c11.226-8.25,24.747-12.791,38.677-12.992c24.683,0,64,39.061,64,85.333c-1.612,29.11-7.359,57.842-17.067,85.333h134.4
	c29.455,0,53.333,23.878,53.333,53.333c0.035,13.237-4.916,26.002-13.867,35.755c18.566,18.691,18.464,48.894-0.227,67.46
	c-3.591,3.567-7.728,6.54-12.253,8.807c3.32,6.62,5.037,13.928,5.013,21.333c-0.02,18.056-10.212,34.561-26.347,42.667
	c3.32,6.62,5.037,13.928,5.013,21.333C469.286,458.508,447.82,479.965,421.333,480z M170.667,443.115
	c16.153,9.666,34.517,15.021,53.333,15.552h197.333C436.056,458.655,447.988,446.723,448,432c0.001-7.328-3.053-14.324-8.427-19.307
	c-4.291-4.036-4.498-10.787-0.462-15.078c1.729-1.839,4.055-3.005,6.563-3.29c14.517-1.534,25.042-14.547,23.507-29.064
	c-0.67-6.34-3.609-12.224-8.275-16.568c-4.291-4.036-4.498-10.787-0.462-15.078c1.729-1.839,4.055-3.005,6.563-3.29
	c14.518-1.53,25.046-14.539,23.516-29.056c-0.946-8.98-6.411-16.856-14.492-20.885c-5.235-2.702-7.289-9.135-4.587-14.371
	c0.889-1.724,2.232-3.172,3.883-4.189c14.999-9.347,19.581-29.083,10.234-44.082c-5.794-9.298-15.941-14.985-26.896-15.075H309.333
	c-5.891-0.003-10.664-4.781-10.661-10.672c0.001-1.296,0.237-2.581,0.699-3.792C310.612,158.61,317.559,127.561,320,96
	c0-34.944-30.976-64-42.667-64c-7.482,0.121-14.815,2.108-21.333,5.781v68.885c-0.002,1.546-0.336,3.074-0.981,4.48l-64,138.667
	c-1.016,2.192-2.746,3.975-4.907,5.056l-15.445,7.723V443.115z"/>
<g>
</g>
<g>
</g>
<g>
</g>
<g>
</g>
<g>
</g>
<g>
</g>
<g>
</g>
<g>
</g>
<g>
</g>
<g>
</g>
<g>
</g>
<g>
</g>
<g>
</g>
<g>
</g>
<g>
</g>
</svg>
