<?xml version="1.0" encoding="UTF-8"?>
<!DOCTYPE svg PUBLIC "-//W3C//DTD SVG 1.1//EN" "http://www.w3.org/Graphics/SVG/1.1/DTD/svg11.dtd">
<svg version="1.1" xmlns="http://www.w3.org/2000/svg" xmlns:xlink="http://www.w3.org/1999/xlink" x="0" y="0" width="268.923" height="255.32" viewBox="0, 0, 268.923, 255.32">
  <g id="Shin_Tone">
    <path d="M94.839,0.53 C87.286,1.133 81.981,7.676 77.646,13.183 C73.186,19.804 68.838,27.451 60.935,30.419 C51.374,34.013 40.721,35.789 32.816,42.772 C20.33,52.977 13.402,69.109 14.538,85.184 C14.577,88.304 15.108,91.587 14.894,94.614 C8.265,101.485 1.168,109.295 0.587,119.366 C-0.039,126.49 4.792,132.648 6.778,139.25 C9.389,145.216 9.448,151.96 7.402,158.099 C5.789,162.497 5.104,167.265 6.727,171.777 C9.456,186.335 19.527,198.188 30.187,207.986 C40.311,217.485 51.628,225.569 63.613,232.518 C72.761,238.098 81.309,244.725 90.484,250.177 C100.546,255.499 114.243,257.349 123.583,249.575 C130.07,244.146 133.439,236.05 137.835,229.014 C141.676,222.739 143.998,215.03 150.513,210.864 C157.56,205.888 160.973,197.565 166.761,191.46 C168.565,191.812 166.616,194.303 166.368,195.395 C159.595,208.354 158.561,224.459 164.277,237.954 C167.292,244.368 173.448,249.238 180.177,251.218 C185.781,251.097 191.83,249.382 195.226,244.567 C204.443,233.395 213.603,221.659 226.212,214.098 C236.282,207.25 246.59,200.742 257.089,194.595 C265.83,188.789 268.698,177.717 268.423,167.808 C268.842,158.178 265.224,148.725 259.068,141.323 C253.872,135.558 249.651,128.714 248.429,120.936 C246.014,108.275 246.44,94.658 240.587,82.929 C237.77,77.681 232.396,74.641 227.193,72.251 C221.872,67.452 219.508,60.337 214.977,54.876 C208.356,45.747 199.976,37.88 190.084,32.378 C185.497,29.762 183.217,24.979 179.318,21.561 C175.896,18.11 172.618,14.079 167.496,13.329 C158.144,10.581 148.292,10.741 138.71,9.343 C131.59,7.818 126.367,0.572 118.599,1.55 C110.655,1.549 102.765,0.512 94.839,0.53 z" fill="#F5D7AC" id="path5392"/>
    <path d="M88.829,77.716 C88.829,65.431 95.502,55.475 108.181,48.84 C118.191,43.602 124.736,44.757 128.704,52.462 C130.281,55.523 130.352,55.451 125.008,56.16 C116.838,57.244 106.486,65.086 96.14,78.028 C93.172,81.741 90.313,84.778 89.787,84.778 C89.26,84.778 88.829,81.6 88.829,77.716 z" fill="#000000" id="path5370"/>
    <path d="M97.762,72.528 C106.444,62.186 115.461,55.688 123.126,54.25 C125.163,53.868 126.829,53.206 126.829,52.778 C126.829,50.818 123.042,47.658 120.329,47.354 C113.248,46.561 98.984,55.202 94.453,63.029 C90.325,70.16 88.786,78.778 91.641,78.778 C92.121,78.778 94.876,75.966 97.762,72.528 z" fill="#FFFFFF" id="path5372"/>
    <path d="M206.579,228.377 C211.854,222.202 214.829,217.868 214.829,216.36 C214.829,212.993 211.96,209.919 207.342,208.338 C201.967,206.498 200.184,207.52 189.995,218.285 C182.239,226.478 181.291,228.213 181.8,233.278 C182.086,236.115 185.593,243.86 187.594,246.07 C189.221,247.869 189.443,247.759 193.805,242.985 C196.294,240.262 202.042,233.688 206.579,228.377 z" fill="#FFFFFF" id="path5378"/>
  </g>
  <g id="Shadows">
    <path d="M120.22,2.768 L110.37,4.663 L104.31,9.841 L103.15,12.763 C100.808,15.079 99.744,17.53 101.316,19.368 C110.394,18.529 128.476,15.646 131.82,20.735 C121.408,24.117 108.294,23.602 100.835,32.809 C100.048,42.867 117.53,28.592 124.204,30.358 C128.396,29.36 140.606,30.88 130.517,32.993 C118.616,34.491 107.573,38.409 97.136,43.505 C86.708,45.14 93.404,36.83 93.54,32.659 C86.946,31.609 87.863,29.516 91.677,23.808 C96.121,17.156 79.061,22.576 75.171,24.589 C70.833,26.833 66.049,28.734 61.378,30.548 L45.341,36.231 L47.013,39.325 C50.838,53.928 60.948,57.837 63.22,69.866 C65.743,81.536 78.658,87.124 81.667,98.913 C92.162,115.04 105.132,129.401 114.968,145.993 C121.306,154.5 127.68,165.734 139.575,166.28 C152.375,169.475 131.654,179.313 129.65,185.513 C119.364,195.673 103.981,185.893 94.027,179.948 C81.5,171.176 72.845,158.032 65.345,144.843 C53.146,142.769 64.628,160.537 66.351,166.015 C74.797,184.305 85.561,201.456 94.044,219.696 C92.608,225.26 88.838,233.413 83.913,225.282 C77.021,220.377 67.789,206.804 64.241,205.474 C67.327,216.108 76.03,223.968 79.741,234.415 C83.957,246.914 96.442,255.566 109.669,254.356 C121.217,253.576 129.728,244.046 133.341,233.696 C139.636,225.531 142.21,214.332 151.029,208.306 C159.129,200.468 164.695,189.796 172.685,181.559 C177.809,178.483 168.901,191.55 167.622,194.433 C160.568,208.425 159.406,226.454 166.968,240.47 C176.211,251.946 170.697,233.065 169.691,227.317 C173.342,199.627 190.588,163.756 213.066,150.642 C206.213,145.93 190.426,143.104 193.825,132.278 C196.734,126.572 214.447,123.22 206.831,116.811 C212.046,114.02 218.992,106.114 207.929,108.659 C202.179,107.412 193.316,118.935 197.38,109.372 C197.221,107.888 197.562,105.979 197.544,104.376 C199.147,99.193 195.853,72.101 191.743,58.278 C189.052,49.227 183.935,38.778 182.193,38.778 C180.15,38.778 180.52,41.82 183.745,51.528 C185.35,56.357 187.375,64.063 188.245,68.653 C189.982,77.811 190.381,90.238 188.907,89.327 C187.614,88.527 185.185,77.096 183.812,65.345 C182.52,54.284 179.6,43.664 177.337,41.786 C174.619,39.53 174.574,43.146 177.21,51.919 C181.954,67.705 183.668,84.183 181.462,92.778 L180.05,98.278 L179.941,91.753 C179.788,82.743 178.078,69.718 175.876,60.778 C174.86,56.653 173.292,49.854 172.392,45.669 C170.559,37.149 168.642,33.61 166.827,35.397 C165.98,36.232 166.223,38.752 167.78,45.311 C170.665,57.458 172.488,81.898 170.929,87.528 C170.282,89.866 169.37,91.778 168.904,91.778 C168.437,91.778 167.538,87.166 166.907,81.528 C162.335,59.297 161.226,49.687 152.671,31.054 L143.073,15.017 L132.089,7.061 z M134.491,36.839 C146.465,39.67 156.973,71.676 154.175,83.571 C151.127,96.532 139.042,105.108 125.7,105.167 C109.455,104.94 102.095,97.811 99.898,84.825 C97.465,63.785 119.169,37.244 134.491,36.839 z" fill="#ECCE9F" id="path5561"/>
    <path d="M185.377,249.317 C182.378,245.943 176.622,236.297 176.518,229.638 C176.422,223.451 176.693,222.582 180.488,216.931 C183.576,212.333 185.206,208.291 187.229,200.214 C190.362,187.712 192.49,183.187 198.093,177.108 C205.633,168.928 214.636,165.267 230.636,163.875 C236.492,163.808 241.093,157.717 240.465,154.205 C238.307,143.609 237.881,136.347 238.678,123.778 L240.04,110.763 L243.78,120.283 C247.729,130.334 247.979,131 254.258,137.152 C257.272,140.105 261.354,145.473 263.019,148.773 C265.839,154.361 267.949,155.873 266.345,157.084 C269.973,173.598 266.755,186.156 252.367,196.846 C246.125,200.21 219.015,218.427 216.088,221.088 C203.536,215.2 199.502,236.217 185.377,249.317 z" fill="#ECCE9F" id="path5565"/>
    <path d="M17.329,162.719 C11.549,159.495 10.402,155.84 14.829,154.757 C16.881,154.255 17.28,153.62 17.052,151.212 C16.9,149.598 16.256,147.257 15.622,146.008 C14.745,144.28 14.754,143.453 15.661,142.547 C17.425,140.782 20.278,144.078 23.218,151.278 C25.194,156.118 25.393,157.341 24.249,157.602 C22.371,158.029 22.427,160.687 24.329,161.417 C26.329,162.184 26.226,163.504 24.079,164.608 C22.821,165.255 20.926,164.724 17.329,162.719 z" fill="#ECCE9F" id="path5577"/>
  </g>
  <g id="Black">
    <path d="M95.941,0.001 C92.753,0.024 91.371,0.491 89.191,1.616 C84.461,4.057 79.227,9.488 74.579,16.778 C68.471,26.359 64.566,29.284 53.829,32.317 C42.205,35.602 35.902,38.879 29.798,44.815 C18.435,55.866 13.184,69.507 14.06,85.706 L14.525,94.278 L9.515,99.778 C3.776,106.079 0.981,111.704 0.165,118.595 C-0.302,122.538 0.136,124.661 2.591,130.343 C9.368,146.023 9.659,148.331 6.339,160.059 C4.776,165.58 4.796,166.213 6.771,174.02 C9.084,183.168 12.616,189.602 20.195,198.474 C28.946,208.718 45.419,222.366 57.329,229.241 C62.605,232.286 75.145,240.524 85.54,247.774 C89.465,250.511 94.25,252.77 98.54,253.911 C110.354,257.054 119.378,254.964 126.724,247.386 C129.562,244.458 136.985,232.117 144.234,218.274 C145.396,216.054 148.32,212.937 150.8,211.274 C153.584,209.408 157.311,205.26 160.675,200.278 C163.646,195.878 166.454,192.133 166.917,191.956 C167.38,191.779 166.452,194.228 164.853,197.397 C157.961,211.06 158.681,232.339 166.376,242.429 C169.742,246.842 177.365,251.783 180.775,251.763 C182.179,251.755 185.354,251.153 187.829,250.425 C191.612,249.312 193.342,247.839 198.685,241.188 C206.77,231.124 214.451,223.064 219.427,219.423 C226.743,214.068 248.319,200.055 252.552,197.907 C263.831,192.185 268.68,183.611 268.913,168.972 C269.113,156.434 266.297,149.094 257.025,137.989 C251.412,131.267 249.118,125.181 247.816,113.55 C245.238,90.539 242.786,82.609 236.62,77.331 C234.375,75.409 231.091,73.36 229.323,72.776 C226.747,71.926 225.041,69.91 220.72,62.618 C213.637,50.665 203.543,39.872 194.45,34.53 C190.533,32.229 186.911,29.657 186.4,28.813 C184.927,26.386 174.52,15.683 172.669,14.692 C168.663,12.548 158.523,10.528 148.329,9.845 C137.762,9.136 137.068,8.947 130.714,5.015 C125.414,1.735 123.227,0.944 119.714,1.042 C117.302,1.109 110.317,0.817 104.191,0.393 C100.416,0.133 97.853,-0.013 95.941,0.001 z M99.515,2.005 C101.866,2.039 104.446,2.298 107.329,2.727 L111.329,3.323 L108.079,5.077 C104.699,6.9 103.444,9.567 106.579,8.265 C117.589,3.69 123.336,3.725 131.06,8.417 C138.182,12.744 142.829,19.235 142.829,24.854 C142.829,27.982 143.478,29.069 147.132,32.063 C151.89,35.962 154.279,41.465 152.847,45.231 C152.223,46.871 152.636,48.819 154.361,52.382 C157.593,59.06 158.41,71.212 156.48,83.901 C154.266,98.449 149.194,104.965 134.398,112.276 C127.64,115.615 125.398,116.211 118.169,116.591 C111.955,116.917 108.671,116.609 105.499,115.397 C96.604,112 87.979,98.984 87.214,87.806 C86.939,83.793 85.918,79.975 84.31,76.954 C82.945,74.391 81.829,71.288 81.829,70.058 C81.829,68.827 80.741,64.549 79.411,60.55 C78.082,56.551 76.692,50.803 76.323,47.778 C75.89,44.226 74.8,41.216 73.245,39.278 C70.342,35.659 70.047,37.077 72.829,41.278 C73.922,42.928 74.819,45.659 74.823,47.347 C74.827,49.034 75.763,53.759 76.904,57.847 C78.044,61.934 79.463,67.528 80.056,70.278 C80.649,73.028 82.017,76.544 83.095,78.091 C84.414,79.983 85.186,83.09 85.456,87.591 C86.184,99.685 95.027,113.438 104.691,117.505 C109.288,119.439 121.682,119.418 127.997,117.466 C132.445,116.091 132.861,116.136 136.863,118.409 C151.619,126.791 156.847,137.266 154.437,153.63 C153.425,160.501 153.437,161.667 154.507,160.204 C155.222,159.226 156.098,156.238 156.452,153.563 C157.201,147.917 158.298,147.838 161.802,153.179 C163.162,155.251 164.426,156.49 164.612,155.931 C165.133,154.368 162.003,148.903 159.798,147.526 C157.465,146.07 157.167,142.778 159.368,142.778 C160.215,142.778 162.735,143.71 164.966,144.849 C167.197,145.987 169.23,146.711 169.484,146.458 C170.401,145.541 163.764,141.643 160.339,141.087 C158.409,140.774 156.829,140.061 156.829,139.505 C156.829,138.136 167.117,139.263 172.745,141.249 C179.246,143.542 178.901,142.322 172.357,139.874 C169.27,138.719 164.472,137.676 161.695,137.556 C156.876,137.346 156.551,137.151 154.622,133.308 C153.51,131.092 151.455,127.751 150.054,125.884 C147.571,122.574 147.554,122.451 149.417,121.026 C153.212,118.125 157.373,116.978 162.73,117.36 C171.768,118.005 175.004,121.378 181.667,137.101 C186.434,148.348 187.013,154.666 183.884,161.278 L181.991,165.278 L181.909,158.362 C181.817,150.466 181.224,150.065 180.339,157.304 C178.996,168.291 172.471,183.911 169.892,182.317 C169.435,182.035 166.526,186.051 163.429,191.241 C156.558,202.755 149.106,210.778 145.286,210.778 C143.134,210.778 142.755,210.438 143.335,209.028 C145.465,203.855 145.074,203.394 141.638,207.028 C138.073,210.799 136.413,211.436 134.05,209.936 C133.058,209.307 133.226,208.545 134.8,206.544 C138.109,202.337 137.102,201.972 133.376,206.028 C131.482,208.091 129.346,209.828 128.63,209.89 C127.915,209.951 125.867,210.171 124.079,210.378 C120.106,210.838 119.914,209.757 123.579,207.561 C125.092,206.656 128.804,203.312 131.829,200.13 C137.617,194.042 136.679,194.482 128.206,201.833 C125.389,204.278 121.513,207.103 119.593,208.112 L116.101,209.946 L107.933,202.194 C102.207,196.76 97.859,191.377 93.394,184.196 C89.89,178.561 82.157,167.286 76.208,159.138 C63.257,141.396 57.73,130.856 55.298,119.267 C54.318,114.598 53.098,110.778 52.585,110.778 C51.581,110.778 52.286,116.205 54.308,124.028 C54.983,126.641 55.135,128.778 54.644,128.778 C54.152,128.778 51.933,127.852 49.714,126.72 C42.578,123.079 43.169,125.28 50.374,129.177 C56.631,132.56 57.629,133.537 60.314,138.895 C61.955,142.172 68.145,151.407 74.068,159.419 C79.99,167.43 87.382,178.101 90.493,183.132 C93.605,188.162 99.903,196.636 104.489,201.964 C109.076,207.291 112.829,211.87 112.829,212.138 C112.829,212.864 107.273,218.28 104.103,220.645 C102.057,222.171 101.771,222.724 103.013,222.747 C103.939,222.764 107.089,220.441 110.013,217.585 L115.329,212.392 L126.806,212.058 C137.495,211.746 143.829,212.743 143.829,214.737 C143.829,215.939 135.749,227.046 131.984,231.02 C129.979,233.137 128.163,234.319 127.806,233.741 C127.413,233.105 126.258,233.426 124.751,234.589 C121.793,236.872 115.829,239.009 115.829,237.786 C115.829,237.297 116.281,236.616 116.833,236.274 C117.386,235.933 119.686,232.869 121.945,229.466 L126.052,223.278 L118.859,231.028 C112.561,237.815 111.237,238.778 108.208,238.778 C106.306,238.778 103.081,237.919 101.04,236.87 C95.992,234.274 78.722,219.708 73.872,213.956 C62.489,200.454 57.055,193.504 50.048,183.489 C44.049,174.914 40.44,170.935 33.841,165.618 C29.172,161.856 24.897,158.798 24.341,158.823 C23.785,158.848 25.328,160.535 27.771,162.573 C30.214,164.611 33.364,167.32 34.771,168.595 L37.329,170.911 L33.329,170.276 C31.129,169.927 26.854,168.547 23.829,167.212 C19.063,165.108 18.64,165.047 20.657,166.755 C21.938,167.839 25.538,169.459 28.657,170.354 C40.298,173.696 42.027,174.925 48.63,184.565 C65.027,208.505 81.85,226.603 97.321,236.944 L103.316,240.95 L112.821,240.589 C120.125,240.311 123.355,239.712 126.753,238.009 C129.186,236.789 131.374,235.991 131.616,236.233 C131.859,236.476 131.081,238.255 129.886,240.188 C127.382,244.24 122.16,248.584 116.118,251.645 C112.153,253.654 104.829,254.593 104.829,253.093 C104.829,252.716 105.807,251.366 107.003,250.093 C109.645,247.28 108.276,247.082 104.829,249.778 C103.454,250.854 101.269,251.745 99.974,251.757 C96.712,251.788 89.74,248.1 80.532,241.474 C76.244,238.388 69.269,233.741 65.032,231.149 C20.769,204.073 1.271,177.739 9.261,155.823 C10.621,152.093 10.7,150.465 9.745,145.823 C9.118,142.774 8.169,139.452 7.636,138.442 C7.103,137.433 6.829,136.445 7.027,136.247 C7.597,135.677 20.774,140.488 22.448,141.878 C23.28,142.568 24.627,144.417 25.439,145.987 C26.251,147.558 27.346,148.578 27.872,148.253 C29.493,147.251 28.966,145.934 25.333,141.913 C22.71,139.01 20.361,137.63 15.927,136.386 C9.214,134.502 3.533,129.258 2.345,123.847 C0.872,117.14 4.497,108.328 12.659,98.778 L15.65,95.278 L16.859,100.028 C17.523,102.641 18.464,104.778 18.948,104.778 C20.08,104.778 20.136,105.29 17.943,95.606 C15.531,84.961 15.398,79.962 17.286,70.985 C19.086,62.429 21.13,58.155 26.849,50.983 C32.984,43.291 40.658,38.505 52.9,34.739 C58.636,32.974 64.117,30.841 65.079,29.999 C66.042,29.157 66.829,28.95 66.829,29.538 C66.829,30.127 64.692,32.527 62.079,34.874 L57.329,39.142 L61.206,36.919 C63.338,35.697 65.253,34.868 65.462,35.077 C65.672,35.287 64.438,37.443 62.72,39.868 C60.031,43.665 59.954,43.931 62.159,41.778 C63.568,40.403 67.048,34.778 69.894,29.278 C80.814,8.171 86.821,1.822 99.515,2.005 z M144.863,11.013 C145.553,10.998 146.82,11.123 148.829,11.331 C158.468,12.327 168.22,14.735 171.956,17.042 C176.81,20.039 182.438,26.762 188.866,37.245 C191.962,42.293 195.313,46.495 196.896,47.313 C198.39,48.086 200.114,50.153 200.726,51.909 C202.027,55.642 203.232,55.233 202.267,51.386 C201.904,49.94 200.29,47.819 198.681,46.673 C195.982,44.751 188.829,35.247 188.829,33.583 C188.829,31.818 199.926,39.84 205.829,45.874 C212.389,52.578 223.456,69.273 221.956,70.2 C220.916,70.843 215.797,65.372 212.905,60.528 C209.944,55.568 209.253,55.728 211.829,60.778 C212.952,62.978 213.438,64.778 212.909,64.778 C212.381,64.778 211.669,64.328 211.329,63.778 C210.989,63.228 210.244,62.778 209.673,62.778 C207.374,62.778 218.544,71.656 221.579,72.241 C226.625,74.84 232.078,76.24 236.251,79.843 C241.03,84.039 244.011,94.089 245.429,110.778 C245.733,114.353 246.412,119.251 246.939,121.661 C248.43,128.481 247.268,127.625 244.814,120.093 C242.609,113.326 233.839,95.436 233.093,96.183 C232.879,96.397 234.467,100.105 236.624,104.425 C238.781,108.744 241.96,116.553 243.689,121.778 C246.545,130.411 247.385,131.824 252.89,137.259 C256.642,140.963 260.066,145.584 261.888,149.401 C263.506,152.791 264.829,155.783 264.829,156.05 C264.829,157.617 258.106,158.99 252.794,158.509 C245.232,157.823 245.876,159.09 253.96,160.806 C262.604,162.64 266.829,166.42 266.829,172.317 C266.829,174.7 266.38,177.829 265.831,179.272 C264.887,181.756 264.715,181.812 262.609,180.337 C259.112,177.887 258.007,178.587 261.222,181.216 L264.114,183.581 L261.839,187.261 C260.175,189.954 259.052,190.808 257.655,190.442 C256.218,190.066 255.879,190.358 256.28,191.622 C256.679,192.878 255.246,194.14 250.571,196.653 C242.283,201.109 224.151,213.272 220.079,217.108 L216.829,220.171 L216.829,216.397 C216.829,213.56 216.103,211.9 213.905,209.702 C212.298,208.094 210.247,206.99 209.405,206.778 C206.518,206.052 207.798,204.944 211.579,203.735 C216.352,202.21 218.478,200.365 214.329,201.349 C202.71,204.103 197.01,207.84 185.734,220.095 L181.574,224.992 C179.648,227.261 179.245,231.086 179.745,233.294 C180.416,236.253 181.982,240.717 183.243,243.208 C184.505,245.699 185.303,247.973 185.017,248.259 C183.516,249.759 177.745,248.5 174.136,245.886 C165.034,239.292 162.355,232.05 163.023,215.845 C163.422,206.152 163.768,204.626 167.109,197.768 C169.116,193.649 173.423,186.583 176.683,182.067 C179.942,177.551 184.04,170.351 185.786,166.067 C189.331,157.374 192.878,153.413 198.527,151.845 C203.109,150.572 211.936,150.502 217.079,151.696 C219.142,152.175 220.829,152.186 220.829,151.72 C220.829,150.286 213.667,148.79 206.829,148.794 C202.041,148.797 198.947,149.44 195.079,151.241 C192.192,152.585 190.323,154.435 189.829,154.731 C187.352,156.217 187.834,152.003 187.829,151.298 C187.829,148.834 187.104,145.006 186.218,142.792 C184.175,137.685 185.123,136.034 193.693,129.794 C197.067,127.336 199.829,124.752 199.829,124.052 C199.829,122.294 199.854,122.284 193.775,126.819 C190.795,129.042 188.212,130.425 188.034,129.893 C187.857,129.362 188.694,127.003 189.894,124.651 C193.12,118.327 195.426,110.651 195.038,107.528 C194.539,103.515 193.176,104.166 193.013,108.495 C192.78,114.689 188.154,125.726 188.179,120.028 C188.211,112.676 187.402,114.019 186.298,123.151 C185.575,129.132 184.573,134.435 184.071,134.936 C183.522,135.486 182.07,133.283 180.419,129.399 C178.912,125.853 176.811,122.168 175.753,121.21 C173.521,119.19 173.323,118.098 175.079,117.497 C175.767,117.262 175.429,117.198 174.329,117.354 C173.229,117.511 170.979,117.055 169.329,116.341 L166.329,115.042 L170.079,114.298 C172.142,113.889 173.829,113.156 173.829,112.667 C173.829,111.175 170.503,111.68 167.247,113.665 C164.909,115.091 163.701,115.296 162.247,114.515 C159.375,112.97 159.369,112.945 161.329,110.778 C163.607,108.261 162.496,106.866 160.007,109.118 C157.281,111.585 156.08,111.175 153.968,107.057 L152.06,103.339 L154.876,98.307 C158.07,92.6 159.7,83.428 160.571,66.278 C161.619,45.667 161.384,43.568 156.98,34.47 C154.793,29.952 151.339,23.836 149.306,20.88 L145.609,15.507 L148.47,16.128 C150.993,16.676 151.109,16.604 149.46,15.515 C148.432,14.835 146.632,13.487 145.46,12.52 C144.163,11.45 143.711,11.037 144.863,11.013 z" fill="#000000" id="path5268"/>
    <path d="M111.829,250.69 C111.829,249.159 120.794,240.41 121.569,241.185 C122.107,241.723 114.188,250.947 112.617,251.612 C112.184,251.795 111.829,251.38 111.829,250.69 z" fill="#000000" id="path5264"/>
    <path d="M46.135,118.715 C46.22,114.835 45.785,114.235 36.518,105.465 C31.18,100.412 26.816,95.893 26.821,95.423 C26.826,94.953 29.612,97.203 33.012,100.423 C48.762,115.338 47.829,114.191 47.829,118.647 C47.829,120.919 47.428,122.778 46.937,122.778 C46.447,122.778 46.086,120.95 46.135,118.715 z" fill="#000000" id="path5262"/>
    <path d="M88.829,77.716 C88.829,65.431 95.502,55.475 108.181,48.84 C118.191,43.602 124.736,44.757 128.704,52.462 C130.281,55.523 130.352,55.451 125.008,56.16 C116.838,57.244 106.486,65.086 96.14,78.028 C93.172,81.741 90.313,84.778 89.787,84.778 C89.26,84.778 88.829,81.6 88.829,77.716 z" fill="#000000" id="path5260"/>
    <path d="M97.762,72.528 C106.444,62.186 115.461,55.688 123.126,54.25 C125.163,53.868 126.829,53.206 126.829,52.778 C126.829,50.818 123.042,47.658 120.329,47.354 C113.248,46.561 98.984,55.202 94.453,63.029 C90.325,70.16 88.786,78.778 91.641,78.778 C92.121,78.778 94.876,75.966 97.762,72.528 z" fill="#FFFFFF" id="path5258"/>
    <path d="M244.412,188.739 C243.018,184.862 241.012,182.278 235.715,177.535 C227.381,170.074 226.581,167.924 234.555,174.419 C242.08,180.548 245.162,184.695 247.27,191.528 C248.669,196.063 246.168,193.623 244.412,188.739 z" fill="#000000" id="path5254"/>
    <path d="M255.329,184.937 C250.084,181.73 249.123,179.524 254.21,182.367 C256.751,183.787 258.829,185.361 258.829,185.864 C258.829,187.069 258.808,187.063 255.329,184.937 z" fill="#000000" id="path5252"/>
    <path d="M206.579,228.377 C211.854,222.202 214.829,217.868 214.829,216.36 C214.829,212.993 211.96,209.919 207.342,208.338 C201.967,206.498 200.184,207.52 189.995,218.285 C182.239,226.478 181.291,228.213 181.8,233.278 C182.086,236.115 185.593,243.86 187.594,246.07 C189.221,247.869 189.443,247.759 193.805,242.985 C196.294,240.262 202.042,233.688 206.579,228.377 z" fill="#FFFFFF" id="path5228"/>
  </g>
</svg>