<?xml version="1.0" encoding="UTF-8" standalone="no"?>
<svg
   xmlns:dc="http://purl.org/dc/elements/1.1/"
   xmlns:cc="http://creativecommons.org/ns#"
   xmlns:rdf="http://www.w3.org/1999/02/22-rdf-syntax-ns#"
   xmlns:svg="http://www.w3.org/2000/svg"
   xmlns="http://www.w3.org/2000/svg"
   xmlns:sodipodi="http://sodipodi.sourceforge.net/DTD/sodipodi-0.dtd"
   xmlns:inkscape="http://www.inkscape.org/namespaces/inkscape"
   width="210mm"
   height="297mm"
   viewBox="0 0 210 297"
   version="1.1"
   id="svg463"
   sodipodi:docname="banner.svg"
   inkscape:version="1.0.1 (1.0.1+r73)">
  <defs
     id="defs457" />
  <sodipodi:namedview
     id="base"
     pagecolor="#ffffff"
     bordercolor="#666666"
     borderopacity="1.0"
     inkscape:pageopacity="0.0"
     inkscape:pageshadow="2"
     inkscape:zoom="0.49497475"
     inkscape:cx="-542.01608"
     inkscape:cy="398.37559"
     inkscape:document-units="mm"
     inkscape:current-layer="layer1"
     inkscape:document-rotation="0"
     showgrid="false"
     inkscape:window-width="1918"
     inkscape:window-height="1048"
     inkscape:window-x="1920"
     inkscape:window-y="30"
     inkscape:window-maximized="1" />
  <metadata
     id="metadata460">
    <rdf:RDF>
      <cc:Work
         rdf:about="">
        <dc:format>image/svg+xml</dc:format>
        <dc:type
           rdf:resource="http://purl.org/dc/dcmitype/StillImage" />
      </cc:Work>
    </rdf:RDF>
  </metadata>
  <g
     inkscape:label="Layer 1"
     inkscape:groupmode="layer"
     id="layer1">
    <rect
       style="fill:#413c3c;fill-opacity:1;stroke:none;stroke-width:0.672859;stop-color:#000000"
       id="rect2091"
       width="205.48793"
       height="92.356689"
       x="-303.8273"
       y="-68.100967"
       rx="8.2639637"
       ry="5.4784846"
       inkscape:export-xdpi="96"
       inkscape:export-ydpi="96" />
    <g
       id="g517"
       transform="translate(-2427.2358,-789.62183)"
       inkscape:export-xdpi="96"
       inkscape:export-ydpi="96">
      <path
         sodipodi:type="star"
         style="fill:#e07a5f;fill-opacity:1;stroke:none;stroke-width:0.315968;stroke-miterlimit:4;stroke-dasharray:none;stroke-opacity:1;stop-color:#000000"
         id="path2065"
         sodipodi:sides="3"
         sodipodi:cx="2290.4976"
         sodipodi:cy="781.11713"
         sodipodi:r1="11.259817"
         sodipodi:r2="5.6299081"
         sodipodi:arg1="0.52359878"
         sodipodi:arg2="1.5707963"
         inkscape:flatsided="true"
         inkscape:rounded="0"
         inkscape:randomized="0"
         inkscape:transform-center-x="-1.7697882"
         inkscape:transform-center-y="-7.3687432"
         inkscape:export-xdpi="96"
         inkscape:export-ydpi="96"
         d="m 2300.2488,786.74704 -19.5025,-10e-6 9.7513,-16.88972 z" />
      <rect
         style="fill:#525893;fill-opacity:1;stroke:none;stroke-width:0.453663;stroke-miterlimit:4;stroke-dasharray:none;stroke-opacity:1;stop-color:#000000"
         id="rect2067"
         width="22.569181"
         height="22.569181"
         x="2267.7703"
         y="758.43481"
         inkscape:export-xdpi="96"
         inkscape:export-ydpi="96" />
      <circle
         style="fill:#81b29a;fill-opacity:1;stroke:none;stroke-width:0.336732;stroke-miterlimit:4;stroke-dasharray:none;stroke-opacity:1;stop-color:#000000"
         id="circle2069"
         cx="2267.6123"
         cy="781.16199"
         r="11.549608"
         inkscape:export-xdpi="96"
         inkscape:export-ydpi="96" />
    </g>
    <path
       style="fill:#ece6e2;fill-opacity:1;stroke:none;stroke-width:4.20825"
       d="m -248.48444,-21.056693 -8.022,-19.06865 c -0.3287,-0.85479 -0.3287,-0.85479 -1.5123,-0.85479 h -7.759 c -0.789,0 -1.3809,0 -1.3809,0.723289 0,0.723292 0.7234,0.723292 0.9206,0.723292 0.5262,0 1.6438,0.131508 2.5645,0.460279 v 22.356361 c 0,0.920538 0,2.761649 -2.8274,3.024669 -0.7892,0.0657 -0.7892,0.65754 -0.7892,0.723299 0,0.723292 0.6577,0.723292 1.4468,0.723292 h 6.4437 c 0.789,0 1.3809,0 1.3809,-0.723292 0,-0.394528 -0.3288,-0.723299 -0.6575,-0.723299 -3.222,-0.26302 -3.222,-2.038371 -3.222,-3.024669 v -20.844021 l 0.066,-0.0657 10.1918,24.526211 c 0.39461,0.72332 0.6576,0.854821 0.9205,0.854821 0.52621,0 0.5919,-0.328771 0.8548,-0.854821 l 10.2577,-24.526211 0.065,0.0657 v 20.844021 c 0,0.920538 0,2.761649 -2.8932,3.024669 -0.789,0.0657 -0.789,0.65754 -0.789,0.723299 0,0.723292 0.6576,0.723292 1.4465,0.723292 h 11.1782 c 0.789,0 1.38081,0 1.38081,-0.723292 0,-0.394528 -0.3287,-0.723299 -0.65741,-0.723299 -3.2221,-0.26302 -3.2221,-2.038371 -3.2221,-3.024669 v -19.79195 c 0,-0.920562 0,-2.76166 2.8274,-3.02469 0.4603,0 0.7891,-0.263012 0.7891,-0.723292 0,-0.723289 -0.5919,-0.723289 -1.3808,-0.723289 h -8.0878 c -1.052,0 -1.1835,0 -1.5123,0.85479 z m -1.2493,0.789059 c 0.3288,0.657532 0.3946,0.723292 0.9205,0.92056 l -1.9068,4.4055 h -0.065 l -9.5344,-22.816608 c -0.1973,-0.526042 -0.5917,-1.249331 -1.1178,-1.77537 h 3.6164 z m -12.6906,6.575391 h -0.6575 c 0.065,-0.131511 0.1315,-0.26302 0.1974,-0.328761 0.065,-0.0657 0.065,-0.131508 0.1315,-0.131508 z m 24.329,-25.841309 h 4.4714 c -0.9864,1.05206 -0.9864,2.16989 -0.9864,2.893179 v 20.05494 c 0,0.723321 0,1.84113 0.9864,2.89319 h -5.3919 c 0.9205,-1.05206 0.9205,-2.169869 0.9205,-2.89319 z m 0,0"
       id="path2073"
       inkscape:export-xdpi="96"
       inkscape:export-ydpi="96" />
    <path
       d="m -224.79854,-25.218223 c 0,-0.65173 0.869,-1.148289 1.9552,-1.148289 1.8,0 2.6069,0.837938 2.6069,2.731058 v 2.26555 c -3.6001,1.086231 -8.3484,2.327622 -8.3484,5.834571 0,1.893131 1.4586,3.289691 3.4449,3.289691 1.769,0 3.1966,-0.620691 4.9035,-2.172441 0.3414,1.58278 1.0242,2.172441 2.5449,2.172441 1.3344,0 2.2966,-0.496551 3.4759,-1.768991 l -0.4656,-0.651729 -0.3103,0.310348 c -0.093,0.0932 -0.1862,0.12414 -0.3414,0.12414 -0.4344,0 -0.6518,-0.27931 -0.6518,-0.77587 v -8.10011 c 0,-2.606939 -2.3586,-4.251769 -6.1448,-4.251769 -3.5069,0 -5.8656,1.582769 -5.8656,3.910391 0,1.272428 0.7449,2.048298 2.0173,2.048298 1.2413,0 2.1103,-0.744839 2.1103,-1.800029 0,-0.93104 -0.931,-1.58278 -0.931,-2.01726 z m 4.5311,9.434599 c -0.838,0.962092 -1.4587,1.334501 -2.2035,1.334501 -0.931,0 -1.5828,-0.837941 -1.5828,-2.07934 0,-1.800021 1.3035,-3.103491 3.7863,-3.75521 z"
       style="font-style:normal;font-variant:normal;font-weight:bold;font-stretch:normal;font-size:25.9179px;line-height:125%;font-family:FreeSerif;-inkscape-font-specification:'FreeSerif, Bold';font-variant-ligatures:normal;font-variant-caps:normal;font-variant-numeric:normal;font-variant-east-asian:normal;letter-spacing:0px;word-spacing:0px;fill:#ece6e2;fill-opacity:1;stroke:none;stroke-width:0.775875px;stroke-linecap:butt;stroke-linejoin:miter;stroke-opacity:1"
       id="path2075"
       inkscape:export-xdpi="96"
       inkscape:export-ydpi="96" />
    <path
       d="m -204.65694,-25.280292 c 1.0862,0 1.6138,0.837938 1.6138,2.575888 v 7.510441 c 0,1.1483 -0.4034,1.644859 -1.4586,1.768989 v 0.744841 h 7.2932 v -0.744841 c -1.2103,-0.093 -1.5207,-0.465519 -1.5207,-1.768989 v -7.789751 c 0,-2.669 -1.6448,-4.375909 -4.1897,-4.375909 -1.8621,0 -3.2897,0.868971 -4.438,2.70002 v -2.327611 h -5.9277 v 0.744841 c 1.3656,0.21725 1.6449,0.52758 1.6449,1.83106 v 9.124249 c 0,1.303472 -0.2483,1.58278 -1.6449,1.86209 v 0.744841 h 7.4794 v -0.744841 c -1.1482,-0.155168 -1.5206,-0.620689 -1.5206,-1.768989 v -8.28631 c 0,-0.341379 1.3654,-1.800019 2.6689,-1.800019 z"
       style="font-style:normal;font-variant:normal;font-weight:bold;font-stretch:normal;font-size:25.9179px;line-height:125%;font-family:FreeSerif;-inkscape-font-specification:'FreeSerif, Bold';font-variant-ligatures:normal;font-variant-caps:normal;font-variant-numeric:normal;font-variant-east-asian:normal;letter-spacing:0px;word-spacing:0px;fill:#ece6e2;fill-opacity:1;stroke:none;stroke-width:0.775875px;stroke-linecap:butt;stroke-linejoin:miter;stroke-opacity:1"
       id="path2077"
       inkscape:export-xdpi="96"
       inkscape:export-ydpi="96" />
    <path
       d="m -189.92504,-26.987214 h -5.9588 v 0.744841 c 1.3656,0.27931 1.6449,0.558621 1.6449,1.83106 v 9.124249 c 0,1.272431 -0.2172,1.520722 -1.6449,1.86209 v 0.744841 h 7.4795 v -0.744841 c -1.0863,-0.155168 -1.5207,-0.589659 -1.5207,-1.768989 z m -2.1725,-7.13803 c -1.3344,0 -2.4207,1.08622 -2.4207,2.38969 0,1.396572 1.0241,2.420721 2.3897,2.420721 1.3655,0 2.4207,-1.024149 2.4207,-2.38968 0,-1.334511 -1.0552,-2.420731 -2.3897,-2.420731 z"
       style="font-style:normal;font-variant:normal;font-weight:bold;font-stretch:normal;font-size:25.9179px;line-height:125%;font-family:FreeSerif;-inkscape-font-specification:'FreeSerif, Bold';font-variant-ligatures:normal;font-variant-caps:normal;font-variant-numeric:normal;font-variant-east-asian:normal;letter-spacing:0px;word-spacing:0px;fill:#ece6e2;fill-opacity:1;stroke:none;stroke-width:0.775875px;stroke-linecap:butt;stroke-linejoin:miter;stroke-opacity:1"
       id="path2079"
       inkscape:export-xdpi="96"
       inkscape:export-ydpi="96" />
    <path
       d="m -178.53324,-25.280292 c 1.2103,0 1.6759,0.713798 1.6759,2.575888 v 7.510441 c 0,1.27244 -0.3414,1.67589 -1.4897,1.768989 v 0.744841 h 7.2621 v -0.744841 c -1.0861,-0.12413 -1.4587,-0.589659 -1.4587,-1.768989 v -8.28631 c 0,-0.341379 1.4277,-1.800019 2.6381,-1.800019 1.1792,0 1.6448,0.744829 1.6448,2.575888 v 7.510441 c 0,1.30347 -0.3414,1.67589 -1.5208,1.768989 v 0.744841 h 7.3864 v -0.744841 c -1.2104,-0.062 -1.5517,-0.434478 -1.5517,-1.768989 v -7.789751 c 0,-2.669 -1.645,-4.375909 -4.1897,-4.375909 -1.769,0 -2.9484,0.713801 -4.5623,2.70002 -0.931,-1.955189 -2.0171,-2.70002 -3.9723,-2.70002 -1.9553,0 -3.3829,0.83793 -4.5622,2.70002 v -2.327611 h -5.8656 v 0.744841 c 1.3655,0.186209 1.6449,0.558621 1.6449,1.83106 v 9.124249 c 0,1.272431 -0.2794,1.613821 -1.6449,1.86209 v 0.744841 h 7.3863 v -0.744841 c -1.0862,-0.155168 -1.4276,-0.589659 -1.4276,-1.768989 v -8.28631 c 0,-0.37242 1.3656,-1.800019 2.607,-1.800019 z"
       style="font-style:normal;font-variant:normal;font-weight:bold;font-stretch:normal;font-size:25.9179px;line-height:125%;font-family:FreeSerif;-inkscape-font-specification:'FreeSerif, Bold';font-variant-ligatures:normal;font-variant-caps:normal;font-variant-numeric:normal;font-variant-east-asian:normal;letter-spacing:0px;word-spacing:0px;fill:#ece6e2;fill-opacity:1;stroke:none;stroke-width:0.775875px;stroke-linecap:butt;stroke-linejoin:miter;stroke-opacity:1"
       id="path2081"
       inkscape:export-xdpi="96"
       inkscape:export-ydpi="96" />
    <rect
       style="fill:#ece6e2;fill-opacity:1;stroke:none;stroke-width:0.672859;stop-color:#000000"
       id="rect527"
       width="205.48793"
       height="92.356689"
       x="-303.8273"
       y="60.473389"
       rx="8.2639637"
       ry="5.4784846"
       inkscape:export-xdpi="96"
       inkscape:export-ydpi="96" />
    <g
       id="g535"
       transform="translate(-2427.2358,-661.04748)"
       inkscape:export-xdpi="96"
       inkscape:export-ydpi="96">
      <path
         sodipodi:type="star"
         style="fill:#e07a5f;fill-opacity:1;stroke:none;stroke-width:0.315968;stroke-miterlimit:4;stroke-dasharray:none;stroke-opacity:1;stop-color:#000000"
         id="path529"
         sodipodi:sides="3"
         sodipodi:cx="2290.4976"
         sodipodi:cy="781.11713"
         sodipodi:r1="11.259817"
         sodipodi:r2="5.6299081"
         sodipodi:arg1="0.52359878"
         sodipodi:arg2="1.5707963"
         inkscape:flatsided="true"
         inkscape:rounded="0"
         inkscape:randomized="0"
         inkscape:transform-center-x="-1.7697882"
         inkscape:transform-center-y="-7.3687432"
         inkscape:export-xdpi="96"
         inkscape:export-ydpi="96"
         d="m 2300.2488,786.74704 -19.5025,-10e-6 9.7513,-16.88972 z" />
      <rect
         style="fill:#525893;fill-opacity:1;stroke:none;stroke-width:0.453663;stroke-miterlimit:4;stroke-dasharray:none;stroke-opacity:1;stop-color:#000000"
         id="rect531"
         width="22.569181"
         height="22.569181"
         x="2267.7703"
         y="758.43481"
         inkscape:export-xdpi="96"
         inkscape:export-ydpi="96" />
      <circle
         style="fill:#81b29a;fill-opacity:1;stroke:none;stroke-width:0.336732;stroke-miterlimit:4;stroke-dasharray:none;stroke-opacity:1;stop-color:#000000"
         id="circle533"
         cx="2267.6123"
         cy="781.16199"
         r="11.549608"
         inkscape:export-xdpi="96"
         inkscape:export-ydpi="96" />
    </g>
    <path
       style="fill:#413c3c;fill-opacity:1;stroke:none;stroke-width:4.20825"
       d="m -248.48444,107.51766 -8.022,-19.068648 c -0.3287,-0.85479 -0.3287,-0.85479 -1.5123,-0.85479 h -7.759 c -0.789,0 -1.3809,0 -1.3809,0.723289 0,0.723292 0.7234,0.723292 0.9206,0.723292 0.5262,0 1.6438,0.131508 2.5645,0.460279 v 22.356358 c 0,0.92054 0,2.76165 -2.8274,3.02467 -0.7892,0.0657 -0.7892,0.65754 -0.7892,0.7233 0,0.72329 0.6577,0.72329 1.4468,0.72329 h 6.4437 c 0.789,0 1.3809,0 1.3809,-0.72329 0,-0.39453 -0.3288,-0.7233 -0.6575,-0.7233 -3.222,-0.26302 -3.222,-2.03837 -3.222,-3.02467 V 91.013422 l 0.066,-0.0657 10.1918,24.526208 c 0.39461,0.72332 0.6576,0.85482 0.9205,0.85482 0.52621,0 0.5919,-0.32877 0.8548,-0.85482 l 10.2577,-24.526208 0.065,0.0657 v 20.844018 c 0,0.92054 0,2.76165 -2.8932,3.02467 -0.789,0.0657 -0.789,0.65754 -0.789,0.7233 0,0.72329 0.6576,0.72329 1.4465,0.72329 h 11.1782 c 0.789,0 1.38081,0 1.38081,-0.72329 0,-0.39453 -0.3287,-0.7233 -0.65741,-0.7233 -3.2221,-0.26302 -3.2221,-2.03837 -3.2221,-3.02467 V 92.065493 c 0,-0.920562 0,-2.76166 2.8274,-3.02469 0.4603,0 0.7891,-0.263012 0.7891,-0.723292 0,-0.723289 -0.5919,-0.723289 -1.3808,-0.723289 h -8.0878 c -1.052,0 -1.1835,0 -1.5123,0.85479 z m -1.2493,0.78906 c 0.3288,0.65753 0.3946,0.72329 0.9205,0.92056 l -1.9068,4.4055 h -0.065 l -9.5344,-22.816607 c -0.1973,-0.526042 -0.5917,-1.249331 -1.1178,-1.77537 h 3.6164 z m -12.6906,6.57539 h -0.6575 c 0.065,-0.13151 0.1315,-0.26302 0.1974,-0.32876 0.065,-0.0657 0.065,-0.13151 0.1315,-0.13151 z m 24.329,-25.841307 h 4.4714 c -0.9864,1.05206 -0.9864,2.16989 -0.9864,2.893179 v 20.054938 c 0,0.72332 0,1.84113 0.9864,2.89319 h -5.3919 c 0.9205,-1.05206 0.9205,-2.16987 0.9205,-2.89319 z m 0,0"
       id="path537"
       inkscape:export-xdpi="96"
       inkscape:export-ydpi="96" />
    <path
       d="m -224.79854,103.35613 c 0,-0.65173 0.869,-1.14829 1.9552,-1.14829 1.8,0 2.6069,0.83794 2.6069,2.73106 v 2.26555 c -3.6001,1.08623 -8.3484,2.32762 -8.3484,5.83457 0,1.89313 1.4586,3.28969 3.4449,3.28969 1.769,0 3.1966,-0.62069 4.9035,-2.17244 0.3414,1.58278 1.0242,2.17244 2.5449,2.17244 1.3344,0 2.2966,-0.49655 3.4759,-1.76899 l -0.4656,-0.65173 -0.3103,0.31035 c -0.093,0.0932 -0.1862,0.12414 -0.3414,0.12414 -0.4344,0 -0.6518,-0.27931 -0.6518,-0.77587 v -8.10011 c 0,-2.60694 -2.3586,-4.25177 -6.1448,-4.25177 -3.5069,0 -5.8656,1.58277 -5.8656,3.91039 0,1.27243 0.7449,2.0483 2.0173,2.0483 1.2413,0 2.1103,-0.74484 2.1103,-1.80003 0,-0.93104 -0.931,-1.58278 -0.931,-2.01726 z m 4.5311,9.4346 c -0.838,0.96209 -1.4587,1.3345 -2.2035,1.3345 -0.931,0 -1.5828,-0.83794 -1.5828,-2.07934 0,-1.80002 1.3035,-3.10349 3.7863,-3.75521 z"
       style="font-style:normal;font-variant:normal;font-weight:bold;font-stretch:normal;font-size:25.9179px;line-height:125%;font-family:FreeSerif;-inkscape-font-specification:'FreeSerif, Bold';font-variant-ligatures:normal;font-variant-caps:normal;font-variant-numeric:normal;font-variant-east-asian:normal;letter-spacing:0px;word-spacing:0px;fill:#413c3c;fill-opacity:1;stroke:none;stroke-width:0.775875px;stroke-linecap:butt;stroke-linejoin:miter;stroke-opacity:1"
       id="path539"
       inkscape:export-xdpi="96"
       inkscape:export-ydpi="96" />
    <path
       d="m -204.65694,103.29406 c 1.0862,0 1.6138,0.83794 1.6138,2.57589 v 7.51044 c 0,1.1483 -0.4034,1.64486 -1.4586,1.76899 v 0.74484 h 7.2932 v -0.74484 c -1.2103,-0.093 -1.5207,-0.46552 -1.5207,-1.76899 v -7.78975 c 0,-2.669 -1.6448,-4.37591 -4.1897,-4.37591 -1.8621,0 -3.2897,0.86897 -4.438,2.70002 v -2.32761 h -5.9277 v 0.74484 c 1.3656,0.21725 1.6449,0.52758 1.6449,1.83106 v 9.12425 c 0,1.30347 -0.2483,1.58278 -1.6449,1.86209 v 0.74484 h 7.4794 v -0.74484 c -1.1482,-0.15517 -1.5206,-0.62069 -1.5206,-1.76899 v -8.28631 c 0,-0.34138 1.3654,-1.80002 2.6689,-1.80002 z"
       style="font-style:normal;font-variant:normal;font-weight:bold;font-stretch:normal;font-size:25.9179px;line-height:125%;font-family:FreeSerif;-inkscape-font-specification:'FreeSerif, Bold';font-variant-ligatures:normal;font-variant-caps:normal;font-variant-numeric:normal;font-variant-east-asian:normal;letter-spacing:0px;word-spacing:0px;fill:#413c3c;fill-opacity:1;stroke:none;stroke-width:0.775875px;stroke-linecap:butt;stroke-linejoin:miter;stroke-opacity:1"
       id="path541"
       inkscape:export-xdpi="96"
       inkscape:export-ydpi="96" />
    <path
       d="m -189.92504,101.58714 h -5.9588 v 0.74484 c 1.3656,0.27931 1.6449,0.55862 1.6449,1.83106 v 9.12425 c 0,1.27243 -0.2172,1.52072 -1.6449,1.86209 v 0.74484 h 7.4795 v -0.74484 c -1.0863,-0.15517 -1.5207,-0.58966 -1.5207,-1.76899 z m -2.1725,-7.138029 c -1.3344,0 -2.4207,1.08622 -2.4207,2.38969 0,1.396572 1.0241,2.420721 2.3897,2.420721 1.3655,0 2.4207,-1.024149 2.4207,-2.38968 0,-1.334511 -1.0552,-2.420731 -2.3897,-2.420731 z"
       style="font-style:normal;font-variant:normal;font-weight:bold;font-stretch:normal;font-size:25.9179px;line-height:125%;font-family:FreeSerif;-inkscape-font-specification:'FreeSerif, Bold';font-variant-ligatures:normal;font-variant-caps:normal;font-variant-numeric:normal;font-variant-east-asian:normal;letter-spacing:0px;word-spacing:0px;fill:#413c3c;fill-opacity:1;stroke:none;stroke-width:0.775875px;stroke-linecap:butt;stroke-linejoin:miter;stroke-opacity:1"
       id="path543"
       inkscape:export-xdpi="96"
       inkscape:export-ydpi="96" />
    <path
       d="m -178.53324,103.29406 c 1.2103,0 1.6759,0.7138 1.6759,2.57589 v 7.51044 c 0,1.27244 -0.3414,1.67589 -1.4897,1.76899 v 0.74484 h 7.2621 v -0.74484 c -1.0861,-0.12413 -1.4587,-0.58966 -1.4587,-1.76899 v -8.28631 c 0,-0.34138 1.4277,-1.80002 2.6381,-1.80002 1.1792,0 1.6448,0.74483 1.6448,2.57589 v 7.51044 c 0,1.30347 -0.3414,1.67589 -1.5208,1.76899 v 0.74484 h 7.3864 v -0.74484 c -1.2104,-0.062 -1.5517,-0.43448 -1.5517,-1.76899 v -7.78975 c 0,-2.669 -1.645,-4.37591 -4.1897,-4.37591 -1.769,0 -2.9484,0.7138 -4.5623,2.70002 -0.931,-1.95519 -2.0171,-2.70002 -3.9723,-2.70002 -1.9553,0 -3.3829,0.83793 -4.5622,2.70002 v -2.32761 h -5.8656 v 0.74484 c 1.3655,0.18621 1.6449,0.55862 1.6449,1.83106 v 9.12425 c 0,1.27243 -0.2794,1.61382 -1.6449,1.86209 v 0.74484 h 7.3863 v -0.74484 c -1.0862,-0.15517 -1.4276,-0.58966 -1.4276,-1.76899 v -8.28631 c 0,-0.37242 1.3656,-1.80002 2.607,-1.80002 z"
       style="font-style:normal;font-variant:normal;font-weight:bold;font-stretch:normal;font-size:25.9179px;line-height:125%;font-family:FreeSerif;-inkscape-font-specification:'FreeSerif, Bold';font-variant-ligatures:normal;font-variant-caps:normal;font-variant-numeric:normal;font-variant-east-asian:normal;letter-spacing:0px;word-spacing:0px;fill:#413c3c;fill-opacity:1;stroke:none;stroke-width:0.775875px;stroke-linecap:butt;stroke-linejoin:miter;stroke-opacity:1"
       id="path545"
       inkscape:export-xdpi="96"
       inkscape:export-ydpi="96" />
  </g>
</svg>
