<?xml version="1.0" encoding="UTF-8" standalone="no"?>
<svg
   xmlns:dc="http://purl.org/dc/elements/1.1/"
   xmlns:cc="http://creativecommons.org/ns#"
   xmlns:rdf="http://www.w3.org/1999/02/22-rdf-syntax-ns#"
   xmlns:svg="http://www.w3.org/2000/svg"
   xmlns="http://www.w3.org/2000/svg"
   xmlns:sodipodi="http://sodipodi.sourceforge.net/DTD/sodipodi-0.dtd"
   xmlns:inkscape="http://www.inkscape.org/namespaces/inkscape"
   id="svg2051"
   version="1.1"
   viewBox="0 0 145.87048 99.641436"
   height="99.641434mm"
   width="145.87048mm"
   sodipodi:docname="logoB.svg"
   inkscape:version="0.92.4 (5da689c313, 2019-01-14)">
  <sodipodi:namedview
     pagecolor="#ffffff"
     bordercolor="#666666"
     borderopacity="1"
     objecttolerance="10"
     gridtolerance="10"
     guidetolerance="10"
     inkscape:pageopacity="0"
     inkscape:pageshadow="2"
     inkscape:window-width="1680"
     inkscape:window-height="1024"
     id="namedview54"
     showgrid="false"
     fit-margin-top="0"
     fit-margin-left="0"
     fit-margin-right="0"
     fit-margin-bottom="0"
     inkscape:zoom="0.7071068"
     inkscape:cx="621.77547"
     inkscape:cy="197.12692"
     inkscape:window-x="1680"
     inkscape:window-y="0"
     inkscape:window-maximized="1"
     inkscape:current-layer="svg2051" />
  <defs
     id="defs2045" />
  <metadata
     id="metadata2048">
    <rdf:RDF>
      <cc:Work
         rdf:about="">
        <dc:format>image/svg+xml</dc:format>
        <dc:type
           rdf:resource="http://purl.org/dc/dcmitype/StillImage" />
        <dc:title></dc:title>
      </cc:Work>
    </rdf:RDF>
  </metadata>
  <rect
     style="opacity:1;fill:#333333;fill-opacity:1;fill-rule:nonzero;stroke:none;stroke-width:0.12455041;stroke-linecap:round;stroke-linejoin:round;stroke-miterlimit:4;stroke-dasharray:none;stroke-dashoffset:0;stroke-opacity:1;paint-order:stroke fill markers"
     id="rect860"
     width="145.87048"
     height="99.641434"
     x="5.2939559e-23"
     y="-1.4210855e-14" />
  <path
     inkscape:connector-curvature="0"
     d="M 112.82972,72.249211 H 89.277513 l 11.776097,-20.39681 z"
     id="path1523"
     style="fill:#0e79b5;fill-opacity:1;stroke:none;stroke-width:0.381578;stroke-miterlimit:4;stroke-dasharray:none;stroke-opacity:1" />
  <rect
     y="38.224625"
     x="73.79763"
     height="27.255585"
     width="27.255585"
     id="rect1525"
     style="fill:#c90f59;fill-opacity:1;stroke:none;stroke-width:0.54786402;stroke-miterlimit:4;stroke-dasharray:none;stroke-opacity:1" />
  <circle
     r="13.947841"
     cy="65.671402"
     cx="73.606956"
     id="circle1527"
     style="fill:#e8b50e;fill-opacity:1;stroke:none;stroke-width:0.40665299;stroke-miterlimit:4;stroke-dasharray:none;stroke-opacity:1" />
  <path
     inkscape:connector-curvature="0"
     id="path1529"
     d="m 56.349343,50.755591 -9.4221,-22.39655 c -0.3861,-1.004 -0.3861,-1.004 -1.7762,-1.004 h -9.1132 c -0.9268,0 -1.6218,0 -1.6218,0.8496 0,0.84947 0.8495,0.84947 1.0812,0.84947 0.6178,0 1.9307,0.1545 3.012,0.5406 v 26.25805 c 0,1.0812 0,3.2437 -3.3209,3.5526 -0.9268,0.077 -0.9268,0.7723 -0.9268,0.8495 0,0.84957 0.7723,0.84957 1.6991,0.84957 h 7.5685 c 0.9268,0 1.6219,0 1.6219,-0.84957 0,-0.4633 -0.3862,-0.8495 -0.7723,-0.8495 -3.7843,-0.3089 -3.7843,-2.3941 -3.7843,-3.5526 v -24.48175 l 0.077,-0.077 11.9706,28.80665 c 0.4634,0.84947 0.7724,1.00397 1.0813,1.00397 0.6178,0 0.695,-0.3861 1.004,-1.00397 l 12.0479,-28.80665 0.077,0.077 v 24.48175 c 0,1.0812 0,3.2437 -3.3982,3.5526 -0.9267,0.077 -0.9267,0.7723 -0.9267,0.8495 0,0.84957 0.7723,0.84957 1.6991,0.84957 h 13.12911 c 0.9267,0 1.6218,0 1.6218,-0.84957 0,-0.4633 -0.3862,-0.8495 -0.7723,-0.8495 -3.7843,-0.3089 -3.7843,-2.3941 -3.7843,-3.5526 v -23.24605 c 0,-1.0812 0,-3.2437 3.3209,-3.5526 0.5406,0 0.9268,-0.3089 0.9268,-0.84947 0,-0.8496 -0.6951,-0.8496 -1.6219,-0.8496 h -9.49931 c -1.2356,0 -1.3901,0 -1.7763,1.004 z m -1.4674,0.9268 c 0.3862,0.7723 0.4634,0.8495 1.0813,1.0812 l -2.2397,5.17437 h -0.077 l -11.1984,-26.79865 c -0.2317,-0.6178 -0.6951,-1.4674 -1.3129,-2.0852 h 4.2477 z m -14.9054,7.72297 h -0.7723 c 0.077,-0.1545 0.1545,-0.3089 0.2317,-0.3861 0.077,-0.077 0.077,-0.1545 0.1545,-0.1545 z m 28.5752,-30.35125 h 5.25161 c -1.1585,1.2357 -1.1585,2.5486 -1.1585,3.3981 v 23.55505 c 0,0.8495 0,2.1624 1.1585,3.3981 h -6.33291 c 1.0813,-1.2357 1.0813,-2.5486 1.0813,-3.3981 z m 0,0"
     style="fill:#ece6e2;fill-opacity:1;stroke:none;stroke-width:4.94271994" />
</svg>
