<?xml version="1.0" encoding="utf-8"?>
<!-- Generator: Adobe Illustrator 19.0.0, SVG Export Plug-In . SVG Version: 6.00 Build 0)  -->
<svg version="1.1"
	 id="Layer_1" xmlns:rdf="http://www.w3.org/1999/02/22-rdf-syntax-ns#" xmlns:sodipodi="http://sodipodi.sourceforge.net/DTD/sodipodi-0.dtd" xmlns:svg="http://www.w3.org/2000/svg" xmlns:inkscape="http://www.inkscape.org/namespaces/inkscape" xmlns:cc="http://creativecommons.org/ns#" xmlns:dc="http://purl.org/dc/elements/1.1/" xmlns:ns0="http://www.iki.fi/pav/software/textext/" inkscape:version="0.92.3 (unknown)" sodipodi:docname="PiCreatures_plain.svg"
	 xmlns="http://www.w3.org/2000/svg" xmlns:xlink="http://www.w3.org/1999/xlink" x="0px" y="0px" viewBox="-57 180.9 480 480"
	 style="enable-background:new -57 180.9 480 480;" xml:space="preserve">
<style type="text/css">
	.st0{fill:#FFFFFF;}
	.st1{fill:#0C7F99;fill-opacity:0.9902;}
</style>
<sodipodi:namedview  inkscape:cy="270.54167" id="namedview17" inkscape:zoom="1.4142136" inkscape:cx="259.73986" bordercolor="#666666" objecttolerance="10" borderopacity="1" showgrid="false" pagecolor="#ffffff" guidetolerance="10" gridtolerance="10" inkscape:snap-nodes="false" inkscape:snap-smooth-nodes="true" inkscape:object-nodes="false" inkscape:object-paths="true" inkscape:snap-bbox-midpoints="false" inkscape:bbox-nodes="false" inkscape:snap-global="true" inkscape:snap-bbox="true" inkscape:pageopacity="0" inkscape:current-layer="Layer_1" inkscape:window-y="24" inkscape:window-width="1366" inkscape:window-height="711" inkscape:pageshadow="2" inkscape:window-maximized="1" inkscape:window-x="0" inkscape:snap-bbox-edge-midpoints="false">
	</sodipodi:namedview>
<path id="path4" inkscape:connector-curvature="0" class="st0" d="M178.2,257.7c0,4.2-1.4,8.3-3.7,11.4l-30.6,0.3
	c-2.6-3.1-4-7.3-4-11.7c0-10.6,8.6-19.1,19.1-19.1C169.7,238.5,178.2,247.1,178.2,257.7z"/>
<path id="path6" inkscape:connector-curvature="0" class="st0" d="M217.9,259.2c0,4.2-1.4,8.3-3.7,11.4l-30.6,0.3
	c-2.6-3.1-4-7.3-4-11.7c0-10.6,8.6-19.1,19.1-19.1C209.4,240,217.9,248.6,217.9,259.2z"/>
<path id="path8" inkscape:connector-curvature="0" d="M164.5,242.7c-1.3,0.1-2.3,1.1-2.3,2.4s1.1,2.4,2.4,2.4s2.4-1.1,2.4-2.4
	C167,243.8,165.9,242.7,164.5,242.7L164.5,242.7l2.9-1c4.3,0,7.8,3.5,7.8,7.8c0,4.2-3.5,7.8-7.8,7.8s-7.8-3.5-7.8-7.8
	c0-4.2,3.5-7.8,7.8-7.8"/>
<path id="path10" inkscape:connector-curvature="0" d="M204.2,244.2c-1.3,0.1-2.3,1.1-2.3,2.4s1.1,2.4,2.4,2.4s2.4-1.1,2.4-2.4
	C206.7,245.3,205.6,244.2,204.2,244.2L204.2,244.2l2.9-1c4.3,0,7.8,3.5,7.8,7.8c0,4.2-3.5,7.8-7.8,7.8s-7.8-3.5-7.8-7.8
	c0-4.2,3.5-7.8,7.8-7.8"/>
<g id="g4792" transform="matrix(1.4227013,0,0,1.4227013,-93.524107,-118.97369)">
	
		<path id="path12" sodipodi:nodetypes="cssscssscsssscscsscscssssccssscssscscscssssssssssssscsssscsssssssssssssscssscsssssssssscscssssc" inkscape:connector-curvature="0" class="st1" d="
		M175.2,278.5c1.7-0.4,2.9-0.8,4.1-1.1c2.5-0.6,4.3-0.8,6.3-1.1c2.3-0.3,4.9-0.5,9.2-0.5c17,0.1,31.8,6.8,40.1,13.1
		c3.1,2.2,7.1,5.3,10.8,9.3c4,4.4,7.8,9.8,10.8,15.5c1.2,2.2,2.2,4.6,3.2,6.8c3.8,8.8,5.4,20.2,5.4,20.2c0.1,0.7,0.2,1.4,0.3,2
		c0.5,4,0.7,6.6,0.8,9.1c0.1,2.8,0.2,5.5,0,9.8c-0.3,7.4-1.1,13.2-2.3,19.3c-0.7,3.8-1.2,6.3-2.3,11c-3,11.2-7.1,25.1-11.9,37.9
		c-11.2,29.8-16.5,48.6-19.5,70.4c-0.2,2.1-0.3,3.6-0.4,5.2c-0.1,2.1-0.3,4-0.3,5.5c0,2.2,0,3.9,0.3,5.2c0.6,2.7,3,2.8,6.3,2.8
		c18.6,0,41.8,0,56.3,0c0.6,0,1.4,0,2.2,0c0.1,0,0.7,0,0.8,0l0,0c0-0.2,0-0.2,0.1-0.3c2-9.5,8.4-40.4,11.6-57.2c-5.5,0-8,0-8.9,0
		c-0.1,0.3-0.1,0.7-0.2,1.2c-0.2,1.1-1.4,8.5-3.5,15.6c-0.9,3.1-2,6.2-2.9,8.7c-0.3,0.7-0.6,1.8-0.9,2.6c-0.6,1.3-1.1,2-1.3,2.2
		c-3.4,3.8-10.6,4.1-19.6,4.3c-7.3,0.2-15.5,0-21.7,0c-1.3,0-5.4,0-8.5,0c0.6-2,2.9-10.9,8.2-22.4c14.9-32.1,53.5-68.9,54.8-114.8
		c0.7-16.3-6-44.4-31.4-65.1c-35.7-29-87.7-32.8-125.5-16.7c-16.4,7-27.9,15.5-39.6,27.8c-1,1-4.1,5.2-7,9.5c-1.6,2.5-3.1,5-4.1,7
		c-1.6,2.8-2.5,5-3.6,7.8c-2,5.2-3.7,10.9-4.4,16.4c-0.2,1.6-0.5,3.2-0.6,4.7c-0.2,1.5-0.2,3-0.3,4.5c0,1.7,0,3.4,0,4.9
		c0.1,1.5,0.1,2.9,0.2,4.2c0.1,1.4,0.2,2.7,0.4,3.8c1.8,14.2,6.3,25.7,12.9,38.6c6.1,11.8,14,23.2,21.4,34.4
		c4.1,6.1,7.7,12.5,11.6,18.4c7.4,11.4,12.4,23.5,15.5,33.1c0.3,1.2,0.5,2,0.9,3.2c0,0.1,0.1,0.2,0.1,0.3c0,0.1,0,0.2,0,0.2
		c-0.2,0-0.6,0-0.6,0c-3.3,0-9.4,0-9.9,0c-13.5,0-15.3-0.1-23.7-0.1c-1,0-6.2-0.3-9.3-1c-1.2-0.3-2.1-0.6-2.4-0.7s-0.5-0.2-0.8-0.3
		c-0.5-0.2-1-0.5-1.5-0.8c-0.4-0.2-0.7-0.5-1.1-0.8c-0.7-0.6-1.2-1.3-1.4-1.9c-0.3-0.5,0,0-0.2-0.4c-0.4-0.9-0.7-1.8-0.9-2.4
		c-0.2-0.6-2-5.2-3.2-9.9c-1.4-5.5-2.6-11.5-2.9-12.8c-0.1-0.5-0.3-1.3-0.4-2.1c-0.1-0.4-0.1-1.3-0.1-1.3c-0.4,0-1.3,0-1.6,0
		c-4.1,0-4.6,0-7.4,0c0,0.2,0.1,0.7,0.2,1c0.1,0.3,0.2,0.8,0.3,1.2c0.5,2.2,1.2,5.6,2,9.7c2.5,12.8,6.3,31.4,9.3,45.6
		c3.9,0,13,0,27.5,0c12,0,25.8,0,32.9,0c2.2,0,3.4-0.5,4.1-1c0.3-0.2,0.4-0.4,0.5-0.6c0.2-0.3,0.3-0.6,0.4-1
		c0.3-1.1,0.4-2.5,0.4-4.2c0-4.8-0.4-12.1-1.8-20.1c-1.8-10-4.8-21.3-8.2-32.5c-1.8-5.7-3.6-11.4-5.5-16.8c-1-2.7-1.8-5.4-2.7-8
		c-3-8.3-5.6-15.5-7.2-20c-2.8-8.3-6.2-18.7-9.3-33.9c-2.4-11.9-3.5-26.7,0.9-51.3c0,0,5.2-14.3,8.6-19.4c1.7-2.6,3.8-5.9,6.6-9.2
		c3.7-4.4,8.6-9.1,13.8-12.6c4.2-2.8,7.4-4.7,10.2-5.9c4.2-1.9,6.9-2.9,10.2-3.9"/>
</g>
<path id="path14" inkscape:connector-curvature="0" class="st0" d="M170.6,270c4.4,0,1.5,0.1,10.9,0c8.3-0.1,10-0.1,12.6-0.3
	l-0.2-3.9c-3,0.1-7.5,0.3-11.8,0.3c-3.1,0-6.8,0-11.8,0"/>
</svg>
