<?xml version="1.0" encoding="UTF-8" standalone="no"?>
<!-- Created with Inkscape (http://www.inkscape.org/) -->

<svg
   xmlns:dc="http://purl.org/dc/elements/1.1/"
   xmlns:cc="http://creativecommons.org/ns#"
   xmlns:rdf="http://www.w3.org/1999/02/22-rdf-syntax-ns#"
   xmlns:svg="http://www.w3.org/2000/svg"
   xmlns="http://www.w3.org/2000/svg"
   xmlns:sodipodi="http://sodipodi.sourceforge.net/DTD/sodipodi-0.dtd"
   xmlns:inkscape="http://www.inkscape.org/namespaces/inkscape"
   id="svg4206"
   version="1.0"
   viewBox="0 0 545.51 438.67"
   inkscape:version="0.92.2 (5c3e80d, 2017-08-06)"
   sodipodi:docname="dedo3.svg">
  <defs
     id="defs8" />
  <sodipodi:namedview
     pagecolor="#ffffff"
     bordercolor="#666666"
     borderopacity="1"
     objecttolerance="10"
     gridtolerance="10"
     guidetolerance="10"
     inkscape:pageopacity="0"
     inkscape:pageshadow="2"
     inkscape:window-width="1856"
     inkscape:window-height="1061"
     id="namedview6"
     showgrid="false"
     inkscape:zoom="0.76083249"
     inkscape:cx="282.89848"
     inkscape:cy="94.516718"
     inkscape:window-x="-4"
     inkscape:window-y="-4"
     inkscape:window-maximized="1"
     inkscape:current-layer="svg4206" />
  <path
     style="fill:#000000"
     d="m 414.31,436.79 c -8.45104,-5.46024 -36.15965,-9.37231 -10.75,-13.92 10.13066,-9.46232 -21.65532,8.29717 -24.5,-0.51 -16.73353,-5.35149 -47.94869,-10.18202 -39.71422,-35.27895 0.1009,-8.20402 -19.48198,1.19505 -23.55578,-3.61105 -27.03737,1.12664 -53.40832,-7.86022 -78.69,-16.77 -19.39976,-5.86478 -35.5485,-16.12875 -54.29,-21.82 -22.73334,-11.35742 -45.68427,-23.28673 -64.42,-40.59 -15.24983,-15.90695 -20.382778,-51.79188 3.06891,-61.80422 -7.89135,-13.99504 -16.40809,-39.23183 -5.16391,-55.06203 0.1699,-11.99521 17.84376,-9.37406 4.265,-20.84375 -4.90687,-20.22647 1.21084,-39.8226 -23.876,-45.79 C 76.554629,104.54123 97.205637,73.872884 120.8025,82.26975 116.47037,71.504509 80.359779,66.34985 62.948582,60.498623 42.280247,53.421766 18.908726,49.503615 3.6287656,32.771266 -9.8616596,5.7527511 26.889667,-6.6618034 47.97443,1.583518 75.196908,5.5877124 100.43194,18.039569 128.0697,20.683 c 24.06848,1.138704 46.04768,9.609373 67.27,19.373 20.0387,9.892682 40.65841,18.662529 61.8875,25.904641 23.29716,9.410587 50.98557,13.770679 68.1325,34.159359 28.62983,27.1567 56.04157,55.92373 87.71844,79.59187 11.09785,8.47701 25.58987,30.78432 28.69156,32.41813 18.6395,-16.34876 45.27391,2.15273 67.29,2.88 18.08237,-9.28985 46.48367,0.19533 32.75,23.22 -2.39132,14.57378 -13.6809,37.73812 -21.20375,55.0525 -7.90354,22.85565 -17.83304,45.50115 -29.53375,66.55766 -12.38493,16.42572 -23.21542,33.35549 -32.4825,51.68984 -4.15664,12.27617 -18.46413,13.79263 -22.95,14.51 -3.25412,7.05535 -13.24984,16.21583 -21.3297,10.75 z m -6.74,-8 c 22.29316,-10.56405 -13.74485,0.73227 0,0 z m -8,-12.24 c 9.6485,-0.51509 30.3165,-12.43459 8.05,-4.3475 -4.81081,-2.08531 -19.65795,12.06205 -8.05,4.3475 z m 24.5,-0.08 c 12.15611,-9.75505 -23.27631,5.36844 -2.515,0.405 z m -31,-4.68 c 0.0443,-3.36232 -3.07144,3.33205 0,0 z m -19.71,-0.94 c 37.69562,-18.61001 -15.02815,-0.11276 0,0 z m 32.45,-1.87 c 13.36739,-8.71473 -19.92516,4.57065 -3.58859,1.50828 z m 21.52,-1.94 c -1.44951,-5.8174 -7.88698,7.52983 0,0 z m 26.36,-0.25 c 10.93784,-19.2356 24.94271,-38.32859 37.52,-57 1.9554,-13.72288 18.05478,-31.4822 14.19891,-39.63109 -9.87406,15.65942 -16.32899,27.85134 -27.66703,43.70703 -16.6084,23.05065 5.71039,-13.31264 8.72812,-20.03594 6.69888,-14.70166 21.5124,-32.00279 23.635,-44.5325 -14.38737,19.33784 -27.55082,39.72023 -38.535,60.9925 -8.2437,13.93944 0.28818,23.33303 -13.45625,37.84 1.06148,4.21819 -14.4452,24.76112 -4.42375,18.66 z m -22.33,-1.04 c 15.08796,-6.15395 0.0344,-6.47829 -2.55094,1.79016 l 0.61594,0.17609 z m -38.79,0.04 c -0.90368,-3.4499 -2.74806,3.73312 0,0 z m -44.39,-2.73 c -4.02219,-1.08056 1.97847,5.87305 0,0 z m 49.92,0.78 c -5.3751,-2.6399 1.2054,4.93813 0,0 z m 20.97,-0.05 c 1.9898,-7.00464 -13.03427,6.20443 0,0 z m -13,-1.53 c 6.11831,-8.48175 -14.70955,7.78926 0,0 z m -10.6,-12.12 c 11.09856,-24.28821 34.55164,-39.30589 46.19668,-63.19506 14.39486,-19.55719 26.7353,-40.64503 34.06582,-63.67744 11.92098,-3.9952 9.16308,-5.77843 1.17875,-10.57719 7.75564,-6.53829 16.25536,-6.28416 2.65875,-8.61031 6.29742,-8.61173 18.83652,-11.28614 1.22,-16.04 -14.56399,-15.15712 -4.53872,23.98906 -11.3,31.63 1.22237,15.35111 -17.21969,31.06314 -18.87,35.95 -6.99703,14.92035 -22.01944,33.08962 -32.83,48.79 -11.39105,18.46086 -28.32772,34.49661 -31.23,56.88 3.19479,-3.52872 6.37273,-7.1013 8.91,-11.15 z m 19.42,9.25 c 8.08347,-3.91799 40.68452,-13.75756 33.19563,-20.00844 -3.11442,4.43658 -48.52646,19.48751 -33.19563,20.00844 z m 18.82,-1.56 c 4.75376,-7.49018 -14.3247,7.06064 0,0 z m -26.79,-2.93 c 7.43188,-9.95287 -17.27578,6.61795 0,0 z m -30.13,-4.15 c 1.68571,-3.93968 18.86597,-19.82131 2.275,-8.22125 -7.97277,2.11474 -17.75471,11.59019 -2.275,8.22125 z m 44.42,-2.08 c -0.2279,-9.69991 -14.92132,9.75019 0,0 z m -12.74,-1.45 c 13.86884,-5.65406 42.00288,-18.48531 44.35,-25.11 -13.75978,8.95976 -30.65592,12.54374 -43.49,21.68 -5.40426,-0.47082 -8.30967,11.25991 -0.86,3.43 z m 25.05,-4.21 c 25.5807,-16.29813 -24.61246,6.59049 -3.32625,2.535 z m -74.45,2.78 c 0.0443,-3.36232 -3.07144,3.33205 0,0 z m 1.31,-10.93 c -1.45027,-4.09274 -4.41099,6.22436 0,0 z m 14.94,-0.65 c -4.28031,-1.25644 -0.57632,5.37712 0,0 z m 45.66,0.08 c 10.08316,-6.20455 43.30351,-19.17967 38.785,-24.76375 -12.16937,11.61292 -41.11193,14.22709 -45.25625,27.17875 l 2.80109,-0.4725 z m 24.59,1.5 c -2.55494,-3.58745 -2.55494,3.58745 0,0 z m -51.83,-1.65 c 6.50754,-11.34133 -9.71502,4.43995 0,0 z m -67.17,-3.85 c -4.22485,-6.46138 -3.1917,5.91117 0,0 z m 54,0.5 c -0.90368,-3.4499 -2.74806,3.73312 0,0 z m 72,-1 c -2.55494,-3.58745 -2.55494,3.58745 0,0 z m -145,-3.5 c -3.16689,-5.952 -3.05522,5.55159 0,0 z m 80,-0.6 c -2.15652,-3.787 -3.34743,5.60257 0,0 z m 10.82,-0.72 c -1.74119,-7.34614 -4.10288,8.80732 0,0 z m 29.28,-1.54 c 10.02042,-4.09743 31.41578,-17.35108 8.3,-8.08063 -9.43815,-0.49018 -27.41614,18.94744 -8.3,8.08063 z m -113.6,2.36 c -1.51643,-3.80871 -3.0537,3.16625 0,0 z m 8.5,0.17 c -1.81125,-5.20205 -3.74366,3.10935 0,0 z m 5,-0.54 c -3.59112,-10.56238 -18.95354,-23.70059 -6.49611,-5.09533 1.63148,1.31489 3.69869,6.3177 6.49611,5.09533 z m -62.66,-6.86 c -7.61692,-9.14979 -12.75002,-42.95372 -3.24891,-15.43031 14.7651,26.29403 -11.8325,-32.29223 7.21266,-24.20844 -0.74426,9.42646 13.43758,42.6243 7.57531,17.66516 -6.13825,-15.00629 -0.3415,-7.99036 4.20094,-8.34641 8.30445,2.99278 18.82464,36.89471 12.64,12.9675 -13.77109,-24.70805 13.93859,-0.93226 16.28,12.0725 11.1128,15.5807 4.61251,-0.47372 0,-7.07 10.59784,4.5235 0.1754,-17.53374 9.64047,-2.69938 1.17721,12.62556 19.70068,24.36044 6.04828,5.35063 -7.58896,-13.28141 0.99653,-9.42956 4.73,0.7 -4.20516,-17.54852 18.51432,7.62924 24.955,-1.64875 7.34307,12.85004 3.44437,-3.7275 11.62625,-1.6225 -5.92279,-12.18045 -18.21884,-25.10849 -25.99,-35.25 -6.21477,-6.05248 7.26196,21.2796 -10.16,9.27 -14.89776,-0.0516 -23.25568,-10.86399 -36.445,-16.5725 -2.70346,-15.57494 -7.21482,-12.69106 -9.26313,-3.57719 -5.95206,-17.69393 -3.42322,11.42747 -9.47953,-6.28812 -3.17177,-10.05084 -20.3103,-32.86292 -9.02234,-10.38219 -8.59491,-11.80175 -13.74991,-12.37139 -3.61375,0.84875 16.45291,21.86735 -9.12278,8.55241 -13.3475,-0.60875 -3.93008,11.97351 12.80355,8.57774 -3.47625,13.335 -10.80857,-13.00786 -1.63648,-0.0465 -11.0025,1.025 4.35675,8.65945 0.98803,26.8616 7.65375,36.1375 -0.65489,-9.26784 -0.001,-45.9165 2.23219,-17.49203 2.55451,11.53228 6.76038,-21.5471 7.25406,0.55453 -3.1565,8.83233 7.47222,49.26888 13,41.27 z m 41.91,-16.11 c -8.95011,-14.48912 11.68481,8.43924 0,0 z m -51.76,-19.41 c -3.37418,-30.45905 8.45774,11.66768 0,0 z m 34.17,-22.45 c -1.53631,-8.30769 4.44567,7.75609 0,0 z m -18.99,-6.55 c -8.96025,-24.68526 8.38849,10.74395 0,0 z m 22.4,60.54 c -4.74921,-7.52197 -15.93945,-31.66101 -8.65318,-8.99994 1.16106,5.98324 16.45924,24.82622 8.65318,8.99994 z m -20.46,4.48 c -4.02219,-1.08056 1.97847,5.87305 0,0 z m 110.21,-1.02 c 2.06202,-5.67711 -10.75038,9.34707 0,0 z m -80.82,0.31 c -3.4313,-8.48499 -3.68145,5.6774 0,0 z m 53.2,-4.66 c -11.31856,-15.05316 6.91168,18.13337 0,0 z m -46.85,2.57 c -5.1567,-4.71108 -1.13125,6.68048 0,0 z m 90.24,-0.21 c -4.299,0.0815 -1.58347,4.85628 0,0 z m -113.59,-1.2 c -1.97149,-5.35862 -2.65863,3.53603 0,0 z m -46,-0.5 c -1.90941,-3.56058 -2.69093,1.778 0,0 z m 149,-0.56 c -2.74806,-3.73312 -0.90368,3.4499 0,0 z m 14,-1.06 c -2.65952,-3.53466 -1.97165,5.36099 0,0 z m 5.51,-1.96 c 6.14142,-7.6709 27.30036,-40.2906 9.46648,-19.02029 -6.18396,2.08884 -18.9291,29.56032 -9.46648,19.02029 z m 26.91,1.15 c 11.25663,-2.99437 44.71688,-19.85919 37.04375,-23.6725 -8.72726,9.06236 -40.80862,18.03088 -38.11828,24.41922 z m -162.01,-5.11 c -9.77318,-14.92033 5.46878,15.31516 0,0 z m 126.87,1.73 c 7.5005,-5.55384 16.94678,-23.83491 3.94,-8.33 -1.52657,1.03716 -12.28817,15.91209 -3.94,8.33 z m 61.98,-2 c 23.31587,-12.38048 -6.38587,-6.49256 -8.33906,3.42 3.01151,-0.4293 5.77409,-1.86118 8.33906,-3.42 z m -219.38,1.5 c 0.3854,-7.78333 9.32083,5.09174 1.96,-9.1575 -4.95423,12.21592 -8.93039,-20.07114 -8.02,-0.8025 1.05136,2.92482 1.39409,12.15783 6.06,9.96 z m 61.1,0 c -5.77803,-13.30712 -4.89647,2.73103 0,0 z m -51.78,-5.85 c -3.52766,-13.10905 -3.39534,8.32378 0,0 z m 189.67,-0.15 c 11.58602,-8.26217 33.45304,-16.058 36.59281,-26.96656 -11.51622,11.32427 -21.03319,6.39534 -4.38406,-1.39844 17.08481,-15.76935 -23.73705,11.21145 -3.84875,-4.135 9.67027,-5.07471 19.42126,-17.31418 2.94,-6 -10.33276,5.91834 -15.61061,10.61895 -16.92,16.91 -20.0328,13.99788 17.20802,-1.39277 -0.19625,8.795 -2.87757,4.08304 -29.09579,12.93761 -14.18375,12.795 z m -41.37,-1.25 c 0.0443,-3.36232 -3.07144,3.33205 0,0 z m -185.5,-1.87 c 8.58079,-26.30139 -9.33536,-5.06241 0,0 z m -0.5,-6.13 c -0.0443,-3.36232 3.07144,3.33205 0,0 z m -23.94,-0.75 c -9.43578,-47.66048 -1.18399,27.4745 0,0 z m 33.63,-1.73 c -2.36151,-9.55609 2.76839,-26.90942 4.7875,-7.6725 3.51747,-10.41337 8.6251,-38.42388 -5.7075,-15.2175 -9.2261,0.5153 3.63214,48.84849 0.92,22.89 z m 7.3,2.78 c -8.27769,-14.31261 1.94942,14.3081 0,0 z m 18.93,1.95 c -0.26108,-17.91359 -6.17478,-9.17318 -1.39375,1.69625 z m 19.58,0.77 c -1.62987,-26.25948 -9.36346,-4.1186 0,0 z m -67.34,-3.07 c 9.25824,-5.18875 -1.11555,-34.78047 1.08828,-8.76734 -1.40859,9.14579 -9.78087,-28.26923 -7.23828,-2.68266 0.14983,1.92206 2.78811,21.47737 6.15,11.45 z m -6.66,-1.45 c -5.18853,-28.64083 -4.67032,12.63586 0,0 z m 192.61,-0.23 c -4.02219,-1.08056 1.97847,5.87305 0,0 z m -13.79,-6.77 c -9.53589,-23.01731 1.76159,20.43204 0,0 z m 7.54,4 c -3.41661,-4.92344 0.54448,4.75762 0,0 z m -144.36,-4.37 c -0.20715,-26.07227 -8.10602,13.79523 0,0 z m 244.72,-1.74 c -6.53332,-0.29539 -3.39071,10.53208 0,0 z m -100.72,2.68 c -1.06743,-9.02951 -4.92545,-3.60662 -0.92,0.93 z m -210.75,-2.57 c -2.78217,-8.20023 0.19048,7.77038 0,0 z m 40.39,-1.98 c -1.87293,-12.43923 -3.99618,12.65775 0,0 z m 157.97,2.9 c -3.44188,-8.78192 -1.14563,6.62076 0,0 z m -152.61,-1.98 c -3.83583,-5.51212 -2.65499,6.79885 0,0 z m 206,-1.94 c 14.63338,-20.40298 28.34558,-41.23573 39.87,-63.5 11.64165,-16.44103 -13.62696,-25.97692 -13.81906,-4.26141 -8.158,19.62732 -17.13759,37.86155 -23.24125,57.48563 -1.02748,2.8806 -12.50552,22.82617 -2.80969,10.27578 z m -37.47,-4.77 c -5.85306,-12.14383 2.59237,19.28708 0.99875,3.3725 z m -214.53,3.83 c -1.90941,-3.56058 -2.69093,1.778 0,0 z m 46.36,-4.47 c -0.32245,-4.89746 -4.44769,10.85788 0,0 z m 217.35,-1.17 c 9.73776,-7.57261 24.59597,-43.82543 8.6375,-18.48 -2.17268,3.2931 -22.29065,32.88174 -8.6375,18.48 z m 51.04,1.09 c 22.65826,-20.92696 -17.01157,7.17053 0,0 z m -96.07,-1.19 c -1.84795,-2.03663 1.01928,5.83325 0,0 z m 5.27,-2.17 c -2.72678,-0.54202 2.99247,7.1527 0,0 z m -158.76,-2.31 c -3.52927,-6.2217 1.11061,10.7157 0,0 z m 103.81,-1.34 c -2.74806,-3.73312 -0.90368,3.4499 0,0 z m 54.68,-1.18 c -1.84795,-2.03663 1.01928,5.83325 0,0 z m 73.45,-2.32 c 9.07612,-2.08245 40.98886,-35.202 18.03891,-17.80328 C 480.05688,287.61855 446.309,311.80676 466.7,303.29 Z m -77.13,1.5 c -2.55494,-3.58745 -2.55494,3.58745 0,0 z m 8.62,-0.75 c -2.55769,-14.63779 -5.46069,-0.54792 0.0512,1.23875 z m 113.98,-1.79 c -0.1831,-11.95868 -5.80979,9.24867 0,0 z m -330.38,-3.64 c -5.21183,0.23225 1.73003,7.53512 0,0 z m 308.2,1.99 c 3.63542,-9.36304 -8.38835,8.15988 0,0 z m -193.42,-2.37 c -1.52919,-3.83508 -2.57144,5.06501 0,0 z m 18,0.12 c -1.90941,-3.56058 -2.69093,1.778 0,0 z m 180.5,-1.56 c 6.35031,-8.44307 -7.86579,5.54139 0,0 z m -142.74,-6.25 c 0.70288,-10.13112 -12.0095,-38.71254 -5.43188,-12.45313 0.37743,5.17406 8.79002,29.52202 5.43188,12.45313 z m -186.4,4.75 c -3.41661,-4.92344 0.54448,4.75762 0,0 z m 50.18,-0.11 c 4.69353,-4.52174 -10.45188,-7.67885 -8.97,-11.55 -9.20618,7.21612 -11.34898,5.77148 3.76,8.64875 6.72836,0.41774 -4.50166,7.83451 5.21,2.90125 z m 9.88,-0.03 c 0.6433,-7.40892 -4.97811,6.0265 0,0 z m 132.58,-1.35 c -4.12419,-20.01828 -1.5918,9.42111 0,0 z m 156,0.93 c -2.65952,-3.53466 -1.97165,5.36099 0,0 z m -20.36,-4.84 c 0.73204,-7.07248 -12.66336,12.49778 0,0 z m -248.48,0.81 c -9.11883,-19.6251 -1.78679,10.33624 0,0 z m 93.34,-3.03 c -2.29438,-11.15819 -9.21343,-35.63216 -5.31781,-9.19922 0.33767,2.71946 9.0164,24.32981 5.31781,9.19922 z m 6.8,2.46 c -5.27653,-4.93486 0.47299,8.97204 0,0 z m 37.7,3.22 c -1.90941,-3.56058 -2.69093,1.778 0,0 z m -235,-2.06 c 9.90159,1.63266 16.1678,-7.75965 9.345,-23.86 -12.48286,-17.72031 -46.93904,-27.02572 -35.9475,5.9475 2.80873,4.55277 14.85271,15.23224 18.9725,16.74125 3.93074,-3.49986 4.13762,6.00171 7.63,1.17125 z m 110,-0.06 c -1.52919,-3.83508 -2.57144,5.06501 0,0 z m 213.52,0.19 c 6.07228,-4.15737 31.30326,-25.11366 9.9075,-11.185 -2.18512,-0.19414 -23.62343,15.98216 -9.9075,11.185 z m -192.64,-3.7 c -6.97288,-0.97391 2.88217,7.82669 0,0 z m 24.64,1.13 c -4.9502,-6.1636 1.20334,8.33747 0,0 z m 5.77,0.93 c -3.98725,-8.25493 -1.21077,7.15955 0,0 z m 94.64,1.26 c -2.21195,-12.72984 -3.05023,4.06211 0,0 z m -234.84,-5.55 c -4.17682,-1.1491 3.48316,9.03593 0,0 z m 246.12,-7.95 c -2.12597,-10.88941 3.4743,-31.13405 3.24,-8.03 3.42786,14.97773 4.5998,-25.54929 2.73643,-31.02693 -1.36321,-21.99864 -2.9012,-1.4402 -5.35659,6.76021 -4.3896,-11.53257 -4.13995,23.58487 -3.03609,31.17797 -0.46004,13.12883 2.4801,16.88501 2.41625,1.11875 z m 0.34,-25.59 c 0.52207,-14.91491 4.94231,6.35997 0,0 z m -159.73,34.17 c -4.64035,-10.41361 -1.55638,9.10734 0,0 z m 116.86,0.49 c -1.84795,-2.03663 1.01928,5.83325 0,0 z m 5.78,-2.25 c -2.26144,-7.74311 -8.10517,-47.86296 0.27,-22.57 -2.80337,-11.62731 5.49344,-44.9088 -6.8375,-44.59125 -7.31085,-5.84724 -9.20999,-48.09207 -9.68625,-19.03375 -4.34016,5.62769 -3.81953,-23.18267 -9.20625,-8.395 -11.49399,-4.29399 -9.06846,-34.83677 -15.88625,-27.85375 11.05582,25.53989 -7.87991,-1.02602 -12.95594,-6.60813 1.76329,18.91805 -20.175,-39.16952 -11.29656,-11.33312 1.60352,14.82738 -8.52021,-22.02936 -14.215,-3.64 C 283.07856,125.92717 264.61419,116.51748 243.8375,111.03125 214.82588,109.50909 188.86519,91.855286 159.44523,92.721332 149.08655,95.667592 124.74639,81.483888 121.67,88.793 c 23.04872,-1.583615 40.82519,36.10537 8.77375,33.78825 -2.68657,6.07655 18.09517,3.87869 22.64922,5.98875 1.24238,-6.97699 21.68942,6.69205 16.39328,-6.71453 7.19877,-5.79786 11.34102,13.53149 10.30172,-4.31328 4.9511,6.82922 7.88721,12.24989 11.55578,-3.35344 6.61198,-6.83249 -2.49408,35.06616 8.87625,23.14125 7.29734,11.41023 29.2777,4.67009 31.38,19.95 3.30194,-7.81117 1.51938,-0.88516 9.56,-3.59 12.63746,-0.61423 14.57641,11.50326 28.2375,1.2875 -8.21923,8.275 -14.62915,14.94075 2.6725,9.1425 25.81029,-4.41251 -25.99019,16.97821 -33.46375,6.33125 1.03514,5.69142 34.4497,5.64258 16.82625,10.05625 12.7351,1.12184 25.09275,7.68556 4.6375,7.2825 -8.79131,-2.69217 3.35371,10.56034 5.5,6.87 5.60476,8.10546 10.0516,1.20819 19.09,5.55 2.26928,3.19989 3.95828,17.64081 6.17125,1.4525 16.46214,-8.14475 2.79261,41.27387 11.13875,12.1475 3.7208,-22.71181 3.57831,19.07832 3.44127,25.2551 -0.96651,13.04453 4.64461,38.60361 3.23014,11.77146 -0.0272,-12.30632 -3.0842,-51.41178 10.44859,-26.68656 11.07097,3.71075 6.40331,37.01717 15.7,18.46 10.09019,-0.50137 7.44405,32.60196 11.51437,14.69281 -14.18582,-11.85691 21.58375,-7.76192 13.51688,4.65469 7.50653,10.41119 -2.5283,-15.84004 8.97875,-8.1375 4.19836,5.15828 7.84836,40.99906 10.23,30.54 z M 277.57,191.42 c 13.02249,-4.8491 -11.16981,-7.86606 8.17008,-7.63 2.54389,4.2172 -2.01806,13.04453 -8.17008,7.63 z m 14,-7.69 c 1.65903,-2.2308 2.4978,3.42609 0,0 z m -26,-5.9 c 7.3545,-6.96213 33.13426,-2.59251 9.24234,0.48984 -2.84423,-0.0272 -6.59943,1.43919 -9.24234,-0.48984 z m 39.06,-35.47 c -6.53354,-10.77018 8.59044,6.28732 0,0 z M 409.1,275.08 c -5.33995,-13.14268 0.38711,24.92018 0.3125,3.7425 z m -132.54,8.46 c -1.48804,-5.03541 -1.89687,6.50277 0,0 z m 54.58,0 c -1.85981,-17.78903 -7.21783,-11.60499 -1.65,2 1.23069,1.16741 2.77468,-0.92816 1.65,-2 z m 35.6,0.5 c -1.92738,-14.78927 -3.09638,7.97772 0,0 z m 16.42,-1.99 c -4.08215,-0.75723 2.30994,7.50568 0,0 z m 127.01,0.49 c 5.54137,-10.07646 -9.90403,10.93957 0,0 z m -308.1,-1.01 c -10.52991,-1.84031 3.23359,5.81196 0,0 z m 218.75,-2.24 c -4.57153,-8.72274 -1.28764,14.70214 0,0 z m -59.25,2.97 c -2.25577,-11.56911 -8.29142,-39.03981 -6.33094,-13.4425 -11.05103,-25.46575 1.0131,30.49251 0.23563,1.48203 3.83864,0.97137 1.71976,17.64301 6.09531,11.96047 z m 92.73,-1.94 c -1.82692,-7.43055 -3.83492,9.61814 0,0 z m -239.73,0.47 c -2.55494,-3.58745 -2.55494,3.58745 0,0 z m 187.56,-7.77 c -2.94457,2.78702 1.70991,18.54901 0,0 z m -146.1,6.84 c -0.57002,-5.25264 -2.83741,3.33291 0,0 z m 114.63,-3.15 c -3.47407,-8.24351 1.98635,11.74422 0,0 z m 56.91,1.52 c -2.66695,-5.62736 -2.53571,7.41612 0,0 z m 6,1.56 c -2.55494,-3.58745 -2.55494,3.58745 0,0 z m -198,-1 c -2.74806,-3.73312 -0.90368,3.4499 0,0 z m 106.64,-2.75 c -0.46854,-12.28397 -7.56092,-28.7852 -3.8175,-6.26094 -0.87213,2.21554 5.24233,16.3162 3.8175,6.26094 z m -19.55,-1.33 c -3.47407,-8.24351 1.98635,11.74422 0,0 z m 159.2,-0.04 c 11.78047,-13.16731 37.54205,-20.78283 43.545,-19.90516 5.8746,-12.46678 6.17956,-37.74931 -12.89625,-21.80734 -10.08256,3.83578 -35.98331,10.82898 -9.80625,7.8175 21.82725,-0.0305 4.02431,1.45554 -6.1325,9.605 6.44405,2.7688 -39.77059,30.87488 -14.71,24.29 z m 16.21,2.12 c 0.0443,-3.36232 -3.07144,3.33205 0,0 z m -70.5,-3 c -2.30013,-3.46878 -3.64778,3.84882 0,0 z m 5.29,-1 c -0.54611,-9.28243 -4.14522,7.50783 0,0 z m -62.99,-0.34 c -0.19263,-9.0847 -3.07503,4.66363 0,0 z m 26.9,-2.86 c -3.8262,2.4288 1.58098,1.95392 0,0 z m -171.2,0.44 c -5.66111,-7.57084 -4.87204,2.71623 0,0 z m 90,-1.24 c -2.74806,-3.73312 -0.90368,3.4499 0,0 z m 12.57,-1.25 c 0.0226,-8.95517 -4.77893,-27.6371 -3.53,-8.44 -0.26622,0.58317 1.23908,17.18595 3.53,8.44 z m 180.68,0.86 c 7.71939,-13.06526 -9.71105,5.69935 0,0 z m -139.25,-1.52 c -2.13028,-12.36671 -5.09057,4.59773 0,0 z m 33.39,-2.67 c 4.04287,-6.54261 -2.47106,-44.3317 -2.66406,-19.37031 0.91594,3.77132 -1.5907,22.25608 2.66406,19.37031 z m -184.39,-0.42 c 13.80641,-2.49305 -8.39729,-2.71408 0,0 z m 209.32,-19.27 c 1.6386,-10.70252 -4.59382,-32.93893 -3.70164,-9.22064 -1.26871,10.79734 3.98134,43.50591 3.80709,15.21773 l -0.0407,-2.86374 z m -107.56,14.83 c -4.07491,-16.04459 -0.3502,13.57199 0,0 z m 12.5,-3.63 c -9.54977,-12.75603 3.4132,20.99015 0,0 z m 76.54,3.83 c 2.01483,-13.00557 -2.06742,-22.45449 -2.34189,-3.59301 -1.0711,2.94001 1.05025,12.85736 2.34189,3.59301 z m 24.21,-3.21 c -5.25437,-7.61425 -2.70206,15.78036 0.15469,2.09312 z m -119.01,2.45 c -3.41744,-10.92394 -1.29836,10.07969 0,0 z m 70.56,-4.75 c 0.8577,-8.52042 -0.25332,-35.95865 -2.205,-11.8625 -1.34569,4.82459 3.15074,30.92899 2.205,11.8625 z m 5.64,-3 c -3.26752,-18.07224 -2.33941,12.68559 -0.24,8.75 l 0.31875,-3.59875 z m -162.2,7.69 c -10.07682,-6.7579 -10.98702,4.05528 0,0 z m 5,1.62 c -1.72315,-3.55034 -5.0497,2.4399 0,0 z m 17.62,-0.87 c 1.90016,-3.49835 -6.3584,-9.07803 -2.63,0.64 z m 145.21,-9.69 c -2.0541,-41.23537 -3.9664,30.81607 0,0 z m -220.15,6.82 c -1.84795,-2.03663 1.01928,5.83325 0,0 z m 67.06,-0.27 c -5.24768,-3.16521 2.51465,5.19276 0,0 z m 14.26,2.01 c -1.90941,-3.56058 -2.69093,1.778 0,0 z m 181,-3.7 c -3.74951,-10.12576 -2.48786,12.55157 0,0 z m -228,2.14 c -2.55494,-3.58745 -2.55494,3.58745 0,0 z m 278.5,0 c 0.0443,-3.36232 -3.07144,3.33205 0,0 z m -303.17,-7.5 c 2.58892,-27.07302 -8.56963,5.17475 -0.001,5.29875 z m 50.36,6.13 c 3.65302,-10.42844 -24.91034,-7.73571 -7.35031,-0.46109 1.02495,1.83004 7.00947,3.13345 7.35031,0.46109 z m -4.19,-1.63 c -0.0903,-3.83121 4.58015,4.03545 0,0 z m -56.85,-8.25 c -4.71266,-8.64662 -6.84316,-5.07322 -2.15,-16.77 -9.37732,-17.69298 -32.04287,-31.45171 -45.66,-45.38 -12.8767,4.89558 -12.73425,35.08044 0.63,42.25 9.30435,11.56186 19.4047,18.19952 33.18,19.17 7.5704,17.30289 9.53002,-14.11431 12.88625,6.84297 3.00927,7.43403 1.37602,-5.6762 1.11375,-6.11297 z m 44.08,7.65 c -3.68784,-1.12903 -1.83437,1.7286 0,0 z m 100.27,-3.21 c -3.68401,-17.46259 -2.19661,9.65213 0,0 z m -139.55,-6.3 c -1.32323,-23.92066 -4.6941,10.58733 0.0812,5.88125 l 0.0461,-2.55953 z m 67.91,3.54 c -7.78451,-7.44627 5.93723,12.28681 0,0 z m -51.36,1.57 c 5.75202,-0.63978 0.91657,-5.91651 0.77687,-8.35359 -10.29688,-4.83475 -4.81932,16.29345 -0.77687,8.35359 z m 117.29,-7.48 c -1.73862,-30.04916 -1.96575,28.78485 0,0 z m 119.08,-1.97 c -0.55487,-21.81094 -7.18956,9.95875 -0.71,9.9 1.61533,-3.10346 0.76621,-6.62089 0.71,-9.9 z m -189.37,9.45 c -2.74806,-3.73312 -0.90368,3.4499 0,0 z m 58.13,-3.75 c 2.33425,-10.22017 -3.87729,-27.32231 -3.13,-6.57 -0.81643,2.91261 1.3987,18.98418 3.13,6.57 z m 136.14,-2.97 c -0.81272,-17.35487 3.22804,10.12845 -0.4,7.31 l 0.47,-2.3725 z m 92.73,6.72 c -2.74806,-3.73312 -0.90368,3.4499 0,0 z m -295.21,-2.75 c 11.03738,-6.21883 -11.08621,-11.32847 -2.99,-4.05 -7.26038,-3.13241 -1.8185,12.24658 2.99,4.05 z m 90.43,-1.29 c -5.40656,-15.71487 -4.19749,9.55782 0,0 z m -99.22,1.04 c -9.31014,-4.07856 -6.15884,3.25807 0,0 z m -21,-3 c -3.64778,-3.84882 -2.30013,3.46878 0,0 z m 83.49,-3.23 c -2.16903,-19.83239 -3.1511,12.60539 0,0 z m -154.49,2.4 c -1.81125,-5.20205 -3.74366,3.10935 0,0 z m 92,0.39 c -1.90941,-3.56058 -2.69093,1.778 0,0 z m 42,-1.56 c -2.55998,-6.80117 -1.95519,6.58942 0,0 z m 25.89,-6.11 c -1.19161,-15.95281 -0.44499,-18.09279 -4.64016,-11.29156 -1.42193,-27.79573 -6.71364,20.76408 0.93266,3.65406 -0.39478,4.91121 4.11688,23.43095 3.7075,7.6375 z m 96.19,2.36 c -0.0127,-17.09061 1.27572,-5.00214 4.53,-2.75 0.21076,-10.92426 2.87875,-44.34386 -2.71875,-43.345 0.72654,13.44296 -3.29582,18.49319 -4.2475,1.47625 -4.7562,-2.77588 1.6675,38.5758 3.24625,14.80875 3.32078,11.64336 -9.26998,23.41227 -1.56,34.18 z m -111.08,1.86 c -3.08326,-9.20635 -2.16041,7.24999 0,0 z m 129.03,-6.53 c 0.53494,-10.75787 -3.10458,-33.08209 -3.0325,-9.2675 -0.55187,5.6864 3.36263,26.90832 3.0325,9.2675 z m -224.03,2.86 c -1.52919,-3.83508 -2.57144,5.06501 0,0 z m 99,-0.94 c -2.03767,-5.23591 -2.03767,5.23591 0,0 z m 34.36,0 c 0.13287,-4.88259 -2.88375,4.93996 0,0 z m 97.9,-1.75 c 1.66262,-8.66725 -3.48663,-39.15814 -3.2775,-14.7775 0.35705,2.00202 -0.73728,25.29866 3.2775,14.7775 z m -148.38,-3.29 c -3.66227,-20.00984 -1.39598,17.57091 0,0 z m 11.85,3.54 c -3.94165,-7.73843 -0.6454,7.12146 0,0 z m -18.05,-1.18 c -1.84795,-2.03663 1.01928,5.83325 0,0 z m 141.72,0.58 c 2.33285,-13.43316 -4.05383,-32.41172 -3.52092,-7.77174 0.0961,1.69723 -0.11937,13.09574 3.52092,7.77174 z m -171.9,-0.4 c -0.9972,-3.52124 -4.18176,3.45953 0,0 z m 200.5,-6 c -3.44619,-10.68942 -2.26453,10.79012 0,0 z m -235.25,0.75 c -10.36163,-8.35823 1.332,5.37904 0,0 z m 59.6,-0.21 c -0.90531,-7.38253 -8.30582,6.21408 0,0 z m 128.74,-9.5 c 0.87148,-12.26513 -5.00589,-20.27508 -3.02316,-2.57305 0.34248,8.20626 3.14625,21.95021 3.02316,2.57305 z m 117.91,10.32 c -6.24071,-6.42682 -31.07532,-9.29529 -8.85625,-0.11 l 4.83453,0.60719 z m 9,-0.36 c -2.55494,-3.58745 -2.55494,3.58745 0,0 z m -297.5,-3 c -4.603,-3.55682 -0.0596,3.41632 0,0 z m 58.5,-3.2 c -2.03296,-5.49944 -1.42512,6.89924 0,0 z m -17.31,-2.53 c -1.80465,-1.68854 1.39056,8.77335 0,0 z m 5.4,-3.42 c -3.11037,-12.53983 -1.00224,18.74294 0,0 z m 23.04,4.9 c 3.04372,-21.48185 -4.33113,-12.92189 -1.06,2.25 z m -61.13,-2.87 c 24.71198,-10.53291 -12.65188,-36.03136 -9.28,-21.23 11.39055,4.18324 4.09509,3.84186 8.14,13.46 -11.79959,-1.01555 -9.30211,8.62062 -22.44078,0.5525 3.4895,4.68243 20.48354,15.38724 23.58078,7.2175 z m 44,-0.44 c -1.52919,-3.83508 -2.57144,5.06501 0,0 z m -31.63,-3.88 c 4.7339,-22.80103 -11.01366,8.88506 0,0 z m 20.29,-0.81 c -1.71688,-0.28053 1.04059,6.64837 0,0 z m -68.16,1.25 c -4.18176,-3.45953 -0.9972,3.52124 0,0 z m 85.76,-3.33 c -4.96908,-1.05238 1.50197,8.68867 0,0 z m -95.26,1.33 c -8.8009,-4.95426 -2.78382,4.51412 0,0 z m 31.82,-2.25 c -12.00848,-11.31637 -2.19664,6.58729 0,0 z m -24.82,-1.75 c -2.74806,-3.73312 -0.90368,3.4499 0,0 z m 82.5,0 c 0.0443,-3.36232 -3.07144,3.33205 0,0 z m 110.61,-6.5 c 2.09127,-9.65957 -6.41772,-38.23619 -4.23,-12.4 -0.2366,2.41802 0.71545,26.94931 4.23,12.4 z m -200.11,2.61 c -3.13626,-8.82476 -5.86562,-1.13589 -0.24984,0.77328 z m 195.19,-2.61 c 0.9495,-22.29726 -9.82073,-1.36823 0,0 z m -167.46,1.9 c -3.68784,-1.12903 -1.83437,1.7286 0,0 z m 201.1,-3.45 c -0.11834,-18.09265 -5.69042,-2.13295 0.1,3.59 l 0.415,-1.22875 z m -196.83,0.61 c -3.60077,-19.68127 -11.39308,4.28949 0,0 z m 191,1.44 c -0.90368,-3.4499 -2.74806,3.73312 0,0 z m -240.65,-1.75 c -5.27377,-12.84746 -2.63399,-8.17863 4.43937,-2.79281 -4.92673,-11.83541 -3.37159,-12.84008 3.46875,-14.29641 -8.97384,-12.43156 8.90298,6.11908 0.43563,-9.49078 5.57547,-7.12164 -4.01477,-12.69334 8.61625,-13.74 -16.53377,1.80698 -12.31065,-10.35093 -26.1087,-9.12707 -0.29092,0.25209 16.10581,-5.19571 -1.7513,-3.89293 -19.71571,2.28639 10.69026,-6.06352 -9.41,-6.92 -29.81255,-16.14478 -12.54519,27.18419 -4.48605,39.29125 5.20669,9.60728 13.4658,20.8954 24.79605,20.96875 z m 2.65,-41.25 c 2.55494,-3.58745 2.55494,3.58745 0,0 z m 220.99,37.25 c -2.17413,-20.20448 -4.04582,16.00064 0,0 z m 27.62,2.02 c -4.02219,-1.08056 1.97847,5.87305 0,0 z m -10.98,-2.98 c -3.98415,-20.28562 -0.91009,16.08174 0,0 z m -215.63,2.71 c -2.74806,-3.73312 -0.90368,3.4499 0,0 z m 50.34,-2.2 c -2.85051,-10.98154 -4.83024,7.44152 0,0 z m -61.63,-0.23 c 1.58721,-6.8376 -17.13885,0.75822 0,0 z m 0.71,-6.92 c -4.69078,-5.91318 1.55369,6.49486 0,0 z m 8.58,-1.65 c -2.55494,-3.58745 -2.55494,3.58745 0,0 z m 19.39,-0.57 c -1.05696,-12.30458 -6.53915,2.86926 0,0 z m 25.15,-2.36 c -4.98038,-4.04959 1.45633,4.74117 0,0 z m 143.46,-1 c -4.83039,-12.78522 -3.24945,10.52518 0,0 z m 11.26,-0.18 c -3.04898,-5.78151 -0.54175,9.29388 0,0 z m 16.03,0.11 c -5.40124,-7.19308 0.229,8.85124 0,0 z m -201.94,1.24 c -3.02274,-14.33413 -3.33358,5.21661 0,0 z m 167.65,-0.8 c -3.77533,-26.28072 -8.86636,0.4562 0,0 z m -148.43,-0.96 c -7.62301,-3.26234 4.15995,4.63124 0,0 z m 141.93,-1.48 c -4.95891,-1.8998 0.24448,6.52211 0,0 z m -0.5,-2.35 c -1.84327,-12.24375 -6.5869,-1.69643 0,0 z m -151.5,-1.65 c 0.0443,-3.36232 -3.07144,3.33205 0,0 z m 144.85,-1.53 c -2.58597,-5.45027 -0.91849,7.36644 0,0 z m 22.48,-8.49 c -6.9137,-9.71455 4.57942,18.7439 0,0 z m -181.75,-0.09 c -18.20893,-24.8515 1.33762,12.55868 0,0 z m 175.51,0.37 c -4.42415,-0.65271 2.32108,7.51415 0,0 z m 16.5,-0.56 c -4.17682,-1.1491 3.48316,9.03593 0,0 z m 5.91,2.3 c -2.55494,-3.58745 -2.55494,3.58745 0,0 z m -35,-2.44 c -3.4313,-8.48499 -3.68145,5.6774 0,0 z m 3.11,-5.24 c -7.24424,-12.70324 4.67397,18.02823 0,0 z m 21.89,6.33 c -1.50063,-10.56171 -6.16033,-3.66413 0,0 z M 172.3,164.19 c -3.68784,-1.12903 -1.83437,1.7286 0,0 z m 162.27,-2.79 c -3.46372,-10.16882 -3.26313,7.9942 0,0 z m -92,-0.81 c -2.03296,-5.49944 -1.42512,6.89924 0,0 z m 121.61,0.62 c -2.86682,-11.5057 -2.97042,7.30837 0,0 z m -183.61,-1.42 c -0.90368,-3.4499 -2.74806,3.73312 0,0 z m 170,-2 c -2.55494,-3.58745 -2.55494,3.58745 0,0 z m -1.99,-5.96 c -5.43398,-8.00484 0.0439,6.88655 0.6875,3.4875 z m 12.71,0.4 c -8.46353,-15.4302 0.08,11.35929 0,0 z m -178.72,1.61 c -5.93539,-16.01191 -10.823,-1.57705 0,0 z m 147.52,-2.97 c -5.26866,-7.62678 1.26665,8.71713 0,0 z m -4.55,1.17 c -3.69099,-17.02646 -3.83059,5.12508 0,0 z m 15.32,-2.23 c 11.59174,-9.16373 -14.09578,-8.51635 0.0661,1.71531 z m 24.71,1.07 c -3.48019,-12.50454 -4.82635,3.89505 0,0 z m -12,-1.46 c -3.96897,-6.42646 -4.25903,2.24993 0,0 z m -31.64,-6.13 c -4.23764,-5.05541 0.40313,4.89179 0,0 z m -132.68,-2.68 c -1.84795,-2.03663 1.01928,5.83325 0,0 z m 140.35,-0.76 c -6.82194,-8.45697 0.94894,6.53213 0,0 z m 4.97,-1.09 c -5.6947,-11.16529 -3.88358,8.14521 0,0 z m 16.1,0.24 c 4.12747,-11.7188 -10.72313,5.49806 0,0 z m -9.87,-0.77 c -1.18766,-15.26414 -11.02068,0.77408 0,0 z m -191.23,-6.94 c -3.18769,-5.62231 -0.39605,5.47771 0,0 z m 185,-2.94 c -2.53885,-7.02796 -3.49909,4.97671 0,0 z M 315.36,125.9 C 347.67139,125.77488 304.06054,93.22895 292.27516,87.698875 270.43545,78.820426 248.64676,69.854597 226.57,63.293 205.48476,54.618811 184.60616,45.081054 162.35,39.987 140.98753,30.188282 118.0934,28.16483 96.071,22.579 73.703398,16.201379 51.474092,8.7876404 27.804698,8.8727021 17.412828,4.8199994 5.3876491,26.921223 22.063,18.608 c 20.581748,7.663762 39.744079,18.741885 62.625,13.123 11.617272,8.97367 29.1532,18.846265 45.052,25.065 18.18649,6.823686 38.9434,-11.052925 47.24,13.497 13.22174,12.105226 30.21574,11.204409 46.14,13.583 8.38746,2.765112 17.67736,15.544942 26.44,10.412 6.55264,-2.341802 29.15511,2.407803 9.47057,8.64723 -8.44192,12.72678 37.6378,10.38228 48.25943,20.85477 3.55626,2.89351 3.79861,1.64719 8.07,2.11 z M 134.57,114.19 c -3.66184,-2.0251 -4.11704,3.80405 0,0 z m -23,-0.4 c -8.99439,-3.085 2.54187,4.07254 0,0 z m 2.44,-6.55 c 2.61489,-1.67348 47.64558,6.68054 24.77547,-8.305641 -14.48716,-6.975713 -46.192259,-6.527019 -31.79047,8.309391 1.20507,0.61724 12.23973,3.11061 7.015,-0.004 z m -17.777,-5.7 c -1.731485,-0.29264 1.048217,6.66019 0,0 z m 146.84,-2.747 c 0.0903,-3.831209 -4.58015,4.03545 0,0 z M 120.093,91.77 c -11.03076,-7.316958 -22.229439,4.110518 -2.72875,0.643812 z m 7.48,-9.417 c -1.90913,-3.560377 -2.69122,1.778321 0,0 z m 15,-13.06 c -2.47933,-5.268983 -2.47933,5.268983 0,0 z m 4,-3.5 c -2.55494,-3.587453 -2.55494,3.587453 0,0 z m 7,-2.5 c -0.39215,-5.481386 -3.19277,5.627709 0,0 z m -45,-0.5 c -2.74806,-3.73312 -0.90368,3.449901 0,0 z m 2.61,-1.729 c -4.01734,-1.09932 1.97202,5.873216 0,0 z m 119.12,1.125 c -3.69137,-1.137864 -1.82971,1.744568 0,0 z m -113.73,-2.396 c -2.55494,-3.587453 -2.55494,3.587453 0,0 z"
     id="path4217"
     inkscape:connector-curvature="0" />
  <metadata
     id="metadata3">
    <rdf:RDF>
      <cc:Work>
        <dc:format>image/svg+xml</dc:format>
        <dc:type
           rdf:resource="http://purl.org/dc/dcmitype/StillImage" />
        <cc:license
           rdf:resource="http://creativecommons.org/licenses/publicdomain/" />
        <dc:publisher>
          <cc:Agent
             rdf:about="http://openclipart.org/">
            <dc:title>Openclipart</dc:title>
          </cc:Agent>
        </dc:publisher>
      </cc:Work>
      <cc:License
         rdf:about="http://creativecommons.org/licenses/publicdomain/">
        <cc:permits
           rdf:resource="http://creativecommons.org/ns#Reproduction" />
        <cc:permits
           rdf:resource="http://creativecommons.org/ns#Distribution" />
        <cc:permits
           rdf:resource="http://creativecommons.org/ns#DerivativeWorks" />
      </cc:License>
    </rdf:RDF>
  </metadata>
</svg>
