<?xml version="1.0" encoding="iso-8859-1"?>
<!-- Generator: Adobe Illustrator 16.0.0, SVG Export Plug-In . SVG Version: 6.00 Build 0)  -->
<!DOCTYPE svg PUBLIC "-//W3C//DTD SVG 1.1//EN" "http://www.w3.org/Graphics/SVG/1.1/DTD/svg11.dtd">
<svg version="1.1" id="Capa_1" xmlns="http://www.w3.org/2000/svg" xmlns:xlink="http://www.w3.org/1999/xlink" x="0px" y="0px"
	 width="97.75px" height="97.75px" viewBox="0 0 97.75 97.75" style="enable-background:new 0 0 97.75 97.75;" xml:space="preserve"
	>
<g>
	<g>
		<path d="M25.098,43.863c-0.977-0.766-2.18-1.207-3.432-1.207c-3.07,0-5.566,2.5-5.566,5.572c0,1.78,0.859,3.422,2.254,4.455
			C19.512,49.369,21.861,46.359,25.098,43.863z"/>
		<path d="M72.748,30.117c2.293,0,4.158-1.867,4.158-4.162s-1.865-4.16-4.158-4.16c-2.295,0-4.164,1.865-4.164,4.16
			S70.453,30.117,72.748,30.117z"/>
		<path d="M48.875,0C21.883,0,0,21.883,0,48.875S21.883,97.75,48.875,97.75S97.75,75.867,97.75,48.875S75.867,0,48.875,0z
			 M79.729,55.033c0.131,0.77,0.215,1.549,0.215,2.344c0,11.439-14.002,20.744-31.214,20.744c-17.211,0-31.211-9.305-31.211-20.744
			c0-0.844,0.098-1.67,0.246-2.486c-2.348-1.377-3.832-3.899-3.832-6.662c0-4.268,3.469-7.737,7.734-7.737
			c1.949,0,3.805,0.775,5.229,2.088c5.506-3.59,12.998-5.828,21.268-5.928l4.815-15.229c0.172-0.543,0.734-0.861,1.283-0.729
			l12.604,2.967c0.922-2.354,3.204-4.031,5.883-4.031c3.487,0,6.326,2.838,6.326,6.326c0,3.488-2.839,6.328-6.326,6.328
			c-3.49,0-6.328-2.84-6.328-6.328c0-0.059,0.015-0.111,0.017-0.17l-11.693-2.754l-4.32,13.658c7.908,0.283,15.051,2.508,20.326,6
			c1.434-1.385,3.309-2.199,5.332-2.199c4.266,0,7.738,3.471,7.738,7.738C83.818,51.123,82.234,53.697,79.729,55.033z"/>
		<path d="M33.664,53.539c0-2.539,2.066-4.605,4.605-4.605s4.604,2.066,4.604,4.605s-2.064,4.604-4.604,4.604
			S33.664,56.078,33.664,53.539z M60.047,67.191c-2.32,2.322-5.963,3.449-11.135,3.449c-0.012,0-0.023-0.009-0.037-0.009
			s-0.025,0.009-0.039,0.009c-5.172,0-8.814-1.127-11.135-3.449c-0.422-0.422-0.422-1.107,0-1.531c0.424-0.422,1.109-0.422,1.533,0
			c1.893,1.895,5.033,2.814,9.602,2.814c0.014,0,0.025,0.008,0.039,0.008s0.025-0.008,0.037-0.008c4.57,0,7.711-0.92,9.604-2.814
			c0.424-0.422,1.109-0.422,1.533,0C60.471,66.084,60.471,66.77,60.047,67.191z M59.498,58.143c-2.537,0-4.604-2.063-4.604-4.604
			s2.065-4.605,4.604-4.605c2.539,0,4.604,2.066,4.604,4.605S62.037,58.143,59.498,58.143z"/>
		<path d="M76.08,42.656c-1.328,0-2.574,0.479-3.57,1.313c3.217,2.516,5.539,5.546,6.66,8.878c1.531-1.019,2.48-2.722,2.48-4.619
			C81.65,45.156,79.154,42.656,76.08,42.656z"/>
	</g>
</g>
<g>
</g>
<g>
</g>
<g>
</g>
<g>
</g>
<g>
</g>
<g>
</g>
<g>
</g>
<g>
</g>
<g>
</g>
<g>
</g>
<g>
</g>
<g>
</g>
<g>
</g>
<g>
</g>
<g>
</g>
</svg>
