<?xml version="1.0" encoding="UTF-8" standalone="no"?>
<!-- Created with Inkscape (http://www.inkscape.org/) -->

<svg
   xmlns:dc="http://purl.org/dc/elements/1.1/"
   xmlns:cc="http://creativecommons.org/ns#"
   xmlns:rdf="http://www.w3.org/1999/02/22-rdf-syntax-ns#"
   xmlns:svg="http://www.w3.org/2000/svg"
   xmlns="http://www.w3.org/2000/svg"
   xmlns:sodipodi="http://sodipodi.sourceforge.net/DTD/sodipodi-0.dtd"
   xmlns:inkscape="http://www.inkscape.org/namespaces/inkscape"
   width="210mm"
   height="297mm"
   viewBox="0 0 210 297"
   version="1.1"
   id="svg8"
   inkscape:version="0.92.2 5c3e80d, 2017-08-06"
   sodipodi:docname="patreon.svg">
  <defs
     id="defs2" />
  <sodipodi:namedview
     id="base"
     pagecolor="#ffffff"
     bordercolor="#666666"
     borderopacity="1.0"
     inkscape:pageopacity="0.0"
     inkscape:pageshadow="2"
     inkscape:zoom="0.35"
     inkscape:cx="289.96363"
     inkscape:cy="802.36401"
     inkscape:document-units="mm"
     inkscape:current-layer="layer1"
     showgrid="false"
     inkscape:window-width="1280"
     inkscape:window-height="752"
     inkscape:window-x="0"
     inkscape:window-y="0"
     inkscape:window-maximized="1" />
  <metadata
     id="metadata5">
    <rdf:RDF>
      <cc:Work
         rdf:about="">
        <dc:format>image/svg+xml</dc:format>
        <dc:type
           rdf:resource="http://purl.org/dc/dcmitype/StillImage" />
        <dc:title></dc:title>
      </cc:Work>
    </rdf:RDF>
  </metadata>
  <g
     inkscape:label="Capa 1"
     inkscape:groupmode="layer"
     id="layer1"
     style="opacity:1">
    <path
       style="opacity:0.39599998;fill:#ff0000;stroke-width:0.50007582"
       d="m 175.77197,111.64387 c 1.80301,47.48619 -50.07609,85.65286 -94.864999,69.9549 C 35.039197,169.27916 13.826931,108.46135 42.111029,70.29771 67.435961,30.103344 131.80126,27.823968 159.90598,66.12624 c 10.22031,12.811475 15.90674,29.131278 15.86599,45.51763 z"
       id="path75"
       inkscape:connector-curvature="0" />
    <path
       style="fill:#00ff00;stroke-width:0.52437598"
       d="m 145.04398,105.93992 c 0.82451,19.72857 -21.97544,34.81353 -39.81157,26.39153 C 86.749375,125.40612 81.700481,98.538345 96.427575,85.385251 110.766,70.13349 139.31878,77.879384 143.9998,98.275189 c 0.69247,2.491971 1.04457,5.079061 1.04418,7.664731 z"
       id="path77"
       inkscape:connector-curvature="0" />
    <path
       style="fill:#0000ff;stroke-width:0.52666551"
       d="m 64.645911,77.398379 c 4.994055,0 9.988109,0 14.982164,0 0,25.440691 0,50.881391 0,76.322081 -4.994055,0 -9.988109,0 -14.982164,0 0,-25.44069 0,-50.88139 0,-76.322081 z"
       id="rect3772"
       inkscape:connector-curvature="0" />
  </g>
</svg>
