<?xml version="1.0" encoding="iso-8859-1"?>
<!-- Generator: Adobe Illustrator 16.0.0, SVG Export Plug-In . SVG Version: 6.00 Build 0)  -->
<!DOCTYPE svg PUBLIC "-//W3C//DTD SVG 1.1//EN" "http://www.w3.org/Graphics/SVG/1.1/DTD/svg11.dtd">
<svg version="1.1" id="Capa_1" xmlns="http://www.w3.org/2000/svg" xmlns:xlink="http://www.w3.org/1999/xlink" x="0px" y="0px"
	 width="708.631px" height="708.631px" viewBox="0 0 708.631 708.631" style="enable-background:new 0 0 708.631 708.631;"
	 xml:space="preserve">
<g>
	<g>
		<rect x="208.563" y="127.65" width="32.21" height="1.192"/>
		<rect x="337.373" y="127.65" width="32.21" height="1.192"/>
		<polygon points="144.109,708.631 562.847,708.631 627.268,128.842 498.329,128.842 466.215,644.211 434.004,644.211 
			466.118,128.842 369.583,128.842 369.583,644.211 337.373,644.211 337.373,128.842 240.806,128.842 272.952,644.211 
			240.741,644.211 208.595,128.842 79.688,128.842 		"/>
		<rect x="466.183" y="127.65" width="32.211" height="1.192"/>
		<path d="M660.315,64.421c0-32.211-16.138-32.211-16.138-32.211H434.004c0,0,0-32.21-32.21-32.21h-96.632
			c-32.21,0-32.21,32.21-32.21,32.21H64.453c0,0-16.138,0-16.138,32.211c0,32.21,16.138,32.21,16.138,32.21h579.725
			C644.178,96.632,660.315,96.632,660.315,64.421z"/>
	</g>
</g>
<g>
</g>
<g>
</g>
<g>
</g>
<g>
</g>
<g>
</g>
<g>
</g>
<g>
</g>
<g>
</g>
<g>
</g>
<g>
</g>
<g>
</g>
<g>
</g>
<g>
</g>
<g>
</g>
<g>
</g>
</svg>
