<?xml version="1.0" encoding="UTF-8" standalone="no"?>
<!-- Created with Inkscape (http://www.inkscape.org/) -->

<svg
   xmlns:dc="http://purl.org/dc/elements/1.1/"
   xmlns:cc="http://creativecommons.org/ns#"
   xmlns:rdf="http://www.w3.org/1999/02/22-rdf-syntax-ns#"
   xmlns:svg="http://www.w3.org/2000/svg"
   xmlns="http://www.w3.org/2000/svg"
   xmlns:sodipodi="http://sodipodi.sourceforge.net/DTD/sodipodi-0.dtd"
   xmlns:inkscape="http://www.inkscape.org/namespaces/inkscape"
   id="svg2"
   sodipodi:docname="pointing-finger-right.svg"
   viewBox="0 0 159.2 74.801"
   version="1.1"
   inkscape:version="0.92.2 (5c3e80d, 2017-08-06)">
  <defs
     id="defs8" />
  <sodipodi:namedview
     id="base"
     bordercolor="#666666"
     inkscape:pageshadow="2"
     inkscape:window-y="-4"
     fit-margin-left="10"
     pagecolor="#ffffff"
     fit-margin-top="10"
     inkscape:window-maximized="1"
     inkscape:zoom="2.56"
     inkscape:window-x="-4"
     inkscape:window-height="1061"
     showgrid="false"
     borderopacity="1.0"
     inkscape:current-layer="layer1"
     inkscape:cx="151.41836"
     inkscape:cy="12.752083"
     fit-margin-right="10"
     fit-margin-bottom="10"
     inkscape:window-width="1856"
     inkscape:pageopacity="0.0"
     inkscape:document-units="px" />
  <g
     id="layer1"
     inkscape:label="Layer 1"
     inkscape:groupmode="layer"
     transform="translate(-6849.9 -973.78)">
    <path
       style="fill:#000000"
       d="m 6998.7,1008.4 c -5.5924,-2.7728 -11.6249,-4.7177 -17.2532,-7.4902 -4.8804,-2.37262 -9.9351,-4.25462 -15.2985,-5.13013 -5.3205,-1.54903 -10.7207,-2.70162 -15.9532,-4.53111 -6.9967,-1.4917 -14.2914,0.42285 -21.2437,-1.02982 -5.3094,-0.20496 -10.7299,-0.0166 -15.8315,-1.55542 -5.2556,-0.65166 -10.2627,1.63189 -15.4313,1.7274 3.7692,-4.73963 -4.5344,-4.95349 -7.6377,-6.34347 -5.1669,-1.1154 -10.2128,1.68975 -15.4243,0.98766 -2.5311,-0.50701 -7.0217,1.05505 -1.9559,1.22262 5.1904,-0.0329 10.3519,-0.64746 15.4998,-1.16074 2.1598,-0.1112 8.9082,3.2247 3.8979,3.19547 -3.4555,5.22394 -3.9983,11.70319 -6.6497,17.32114 -2.9003,4.8067 1.4803,10.5924 -1.524,15.1632 -1.1695,-5.015 -0.1307,-10.4088 -0.3702,-15.5002 -1.0642,4.4988 -0.8385,9.5932 -0.8475,14.3197 -1.097,3.3668 6.7139,4.8132 2.0292,6.7677 -7.814,1.3502 -15.7829,0.7027 -23.6316,0.4427 2.6318,2.3251 9.6954,1.169 13.9658,1.9031 5.3003,-0.078 10.6693,0.4099 15.9263,-0.2461 4.9067,1.7089 6.2413,-5.2606 8.2155,-7.3438 5.5672,2.672 10.5421,8.4438 17.292,7.0024 4.7875,-0.9898 10.5348,-3.8309 11.5865,3.0908 1.5259,6.2475 7.8956,5.3718 12.9019,5.4812 1.9416,-0.033 4.4683,1.5044 5.3899,-0.9852 0.7647,-2.6331 3.5952,-6.5456 5.3212,-2.1308 1.3247,6.6759 11.6716,5.9737 11.7402,-0.8592 -1.8904,-3.5401 0.5832,-4.3222 3.3541,-5.5761 3.8933,-4.2776 -0.3952,-9.3242 -2.5794,-13.2034 -1.9631,-1.8352 -3.0232,-4.6629 0.9506,-3.4638 5.6399,-0.3268 10.9271,0.417 16.2124,2.7037 4.7387,0.5352 9.347,4.043 14.5129,1.9647 2.2537,-0.9499 4.1121,-4.4755 2.8355,-6.744 z m -2.3432,1.7228 c -1.8299,1.6226 -9.3686,-0.3327 -3.2001,1.566 5.4218,0.5567 -1.6795,1.8299 -3.5705,0.999 3.7167,2.8888 -6.6337,-1.9477 -8.6635,-2.0889 -5.0046,-1.7841 -10.144,-2.706 -15.4581,-2.8678 -2.636,-0.3108 -5.6452,-8.55593 -5.5842,-3.653 -0.8139,-1.7903 -0.6778,-5.16236 -2.2077,-4.0638 -1.1909,-2.31558 -3.2089,-3.66206 -3.4511,-1.93665 -0.9531,-1.07165 -3.5438,-4.43249 -2.837,-1.37308 -1.809,-3.03237 -3.5189,-2.20713 -1.7722,0.80448 0.019,1.99941 0.7326,7.99655 -1.0287,7.55685 0.6944,-1.8864 -0.3672,-7.3413 -0.8815,-2.5756 -0.2573,6.1371 -0.4659,-1.8162 -1.2997,-2.92997 -0.5182,2.30537 0.1216,5.39697 -1.4403,2.25247 -1.0333,-2.35792 -10.5029,-2.35908 -4.4702,-0.339 4.671,2.9631 2.2924,9.8708 1.1403,14.4144 -1.6969,3.9474 0.3569,-5.6979 0.8098,-7.1756 0.1402,-7.0401 -0.9952,6.0493 -1.5349,-0.1662 -0.6245,0.517 -1.7134,6.2247 -1.4658,1.4863 -0.3016,-4.0732 -0.5647,2.568 -1.9226,-1.2401 -0.1309,2.0595 -0.8901,6.7135 -1.0216,1.4649 -1.1351,0.5963 -0.068,8.3687 -2.0703,11.3791 -1.8045,5.7664 1.9698,-3.0823 1.9944,-4.8402 2.18,-3.367 -0.3483,6.088 -1.4769,7.2734 -2.7543,4.8035 -3.4377,-6.7463 -5.8225,-2.3586 -1.4587,-1.9149 -2.6588,-4.5286 -1.5605,-0.5233 -0.6655,3.0176 -1.3424,-7.9414 -2.2895,-2.3864 0.9478,2.2616 0.984,5.693 -0.6685,1.4438 0.1982,-1.6656 0.2675,-8.5019 -0.6282,-3.1186 -0.9352,2.0939 2.1323,8.9955 -1.2493,3.434 0.3477,-2.3132 -0.7206,-4.9747 -0.6604,-1.2986 1.2839,3.5102 0.176,3.129 -1.3396,1.8989 0.2577,5.3686 -3.3227,-7.9252 -2.1649,-1.4013 0.7884,2.1553 1.8353,5.608 -0.607,1.9387 -1.1754,-3.739 -1.4072,-2.7479 -0.8357,0.5148 -2.7258,-4.264 0.8361,4.372 -2.2426,-0.2922 -1.7657,-2.9266 -0.8621,-1.3428 -0.7885,0.4486 -2.0025,-1.0403 -4.8081,-8.9217 -3.0161,-2.5726 1.6413,6.0449 -2.3872,-4.059 -2.6758,-4.248 0.2419,1.7159 1.2821,6.8252 -0.5892,2.2255 -0.6997,-2.7712 -2.5423,-6.3655 -1.6097,-1.4011 0.5924,7.0786 -2.5127,-8.8264 -2.0049,-1.7032 0.3434,2.6029 0.3688,6.073 -0.8823,1.6517 -0.21,-2.5584 1.1504,-9.904 -0.8111,-3.4903 -2.1114,-0.3918 2.8005,-10.4127 1.2917,-9.2465 -1.6388,2.5298 -2.1718,9.4566 -3.3483,9.9159 -0.1761,-2.4178 1.1306,-5.1669 -0.9832,-2.5764 0.074,-2.8913 -2.6103,1.5316 -1.4408,-2.4898 0.747,-4.052 5.4093,-3.9324 4.4888,-7.218 -2.6788,0.2167 -5.5589,8.8036 -3.934,2.1889 1.3839,-2.8702 2.1155,-4.53868 -0.2307,-1.1513 -0.8265,2.3997 -2.8172,8.258 -2.1258,2.4446 -0.3431,0.7198 -1.2069,5.3735 -1.9058,1.1961 -1.0287,-2.5224 4.4804,-7.71015 2.5801,-7.52713 -4.4758,5.97213 2.6153,-8.58431 -1.4803,-1.49949 -2.6376,5.40562 -0.7389,-1.18578 -0.2569,-3.01886 0.5408,-4.21884 8.5153,-1.62952 11.9298,-3.06612 2.5058,-0.90869 8.9878,0.2416 3.2708,1.61472 2.6689,1.5009 4.4637,-2.94313 5.4466,0.0213 5.293,-0.32207 10.5656,-1.26381 15.8909,-0.34189 5.8286,0.84791 11.5962,0.71989 17.3334,0.60449 6.3179,1.63286 12.4,4.12509 18.8762,5.2071 9.9364,1.3502 18.0329,8.02519 27.6873,10.26429 0.9904,0.022 1.7896,1.2905 0.7689,1.9693 z m -17.388,-6.1393 c -5.1372,1.9161 1.0985,1.5515 0,0 z m -3.3146,-2.4581 c -2.8778,1.3177 0.9981,5.2436 0,0 z m -4.9983,-0.604 c -2.9004,1.9469 0.5898,1.954 0.01,0 z m -5.7141,5.1121 c -0.8086,1.029 1.6133,0.021 0,0 z m -1.0399,-2.4259 c -0.1309,1.5645 1.4996,0.7995 0,0 z m -1.3306,0.012 c -1.2715,-0.066 2.2559,2.6781 0,0 z m -12.373,-9.2323 c -0.8745,1.21642 1.3827,0.26024 0,0 z m -16.055,5.1887 c -3.5308,-0.89263 0.1045,1.9154 0.9511,0.4817 z m 0.1186,17.765 c -1.3368,2.6739 -0.8226,3.6885 0.2598,0.3859 0.6014,-0.1494 -0.3979,-1.509 -0.2598,-0.3859 z m -2.419,-0.5598 c -0.8493,1.1808 1.8582,1.8828 0,0 z m -2.1938,-0.9942 c -0.1803,2.5197 1.6191,4.2116 0.5649,0.779 -0.058,0.1888 -0.5087,-2.6386 -0.5649,-0.779 z m -1.5949,-0.6494 c -1.9656,1.8375 2.6287,7.6091 0.7284,2.5205 -0.3092,-0.805 -0.1346,-1.8483 -0.7284,-2.5205 z m -1.7847,-0.2926 c 0.3701,1.8767 0.3653,-0.7433 0,0 z m -1.9704,-2.3366 c -0.3648,2.4355 1.3749,0.8008 0,0 z m -3.3531,2.4117 c 0.4186,3.0703 -2.8674,-0.1508 -0.7122,2.8031 0.1031,5.5797 1.6993,-1.0336 0.9455,-2.7949 l -0.2333,-0.01 z m -1.3986,-1.2508 c -1.6784,0.548 1.028,2.23 0,0 z m -1.7829,1.3695 c 0.4408,2.1817 0.4407,-0.3931 0,0 z m -7.7435,-0.3804 c 0.3699,1.8765 0.3655,-0.743 0,0 z m -8.2297,-21.288 c -1.7163,1.65036 -4.2054,5.70564 -3.6823,6.8217 1.1218,-2.05867 3.6342,-4.79796 3.6823,-6.8217 z m -4.2054,7.5186 c -1.5855,1.4622 0.355,1.9158 0,0 z m 67.333,21.997 c -0.4796,2.9492 -2.9574,4.5409 -1.0618,0.5405 0.3731,-2.3687 2.217,-4.1788 1.0621,-0.5405 z m -6.7782,-17.359 c -0.9036,-1.3073 1.6629,-0.7496 0,0 z m 5.7599,14.468 c -0.096,1.8149 -4.0263,10.6083 -2.288,4.3899 0.6416,-0.6095 2.4175,-8.487 2.288,-4.3899 z m -6.8837,-17.101 c -1.2673,-0.025 0.5854,-1.2279 0,0 z m 3.986,14.455 c -1.4551,5.005 0.4198,1.7363 1.347,1.0651 -0.6762,2.1739 -2.1673,9.3148 -3.5817,8.3421 0.9128,-1.5065 2.6744,-8.1395 0.2492,-3.3507 -0.6139,2.32 -3.5232,6.731 -1.4647,1.6867 1.5402,-2.7375 2.8139,-9.284 3.8515,-10.1888 -0.038,0.829 -0.2322,1.6387 -0.4013,2.4456 z m -1.0496,-3.4912 c -0.859,2.8458 -1.8004,8.6404 -3.673,9.4441 1.5194,-2.9517 2.4008,-8.8682 3.8305,-10.3441 l 0,0.4348 z m -4.7548,-11.191 c -1.8299,-0.7027 0.9463,-1.8885 0,0 z m 2.0873,7.5551 c -1.4517,0.39 0.6541,-3.1001 0,0 z m 0.8628,4.2283 c -0.2102,2.248 -4.0999,10.8904 -2.0834,4.4674 0.1239,-0.8049 2.1484,-8.8576 2.0834,-4.4674 z m -2.1984,-5.1433 c -0.081,1.9025 -3.7698,11.3408 -2.4103,5.21 0.5813,-0.9351 1.9796,-10.0169 2.4103,-5.21 z m 0.6265,4.2613 c -0.2195,2.2997 -3.6576,8.4364 -1.8518,2.9937 0.3498,-1.6241 2.8961,-8.1231 1.8518,-2.9937 z m -3.6384,-1.277 c -2.596,4.6011 1.5462,-10.6875 0.9398,-3.3414 -0.2171,1.1365 -0.487,2.2728 -0.9398,3.3414 z m -0.5156,-4.8701 c -0.261,2.9585 -2.9334,5.6638 -1.1842,1.0576 0.073,-2.0584 1.7637,-6.2947 1.3143,-1.7441 z m -1.7874,-0.7447 c -0.2899,2.9569 -1.9486,4.4461 -0.9649,0.5338 0.131,-2.1151 1.9132,-8.02363 1.3595,-2.5037 l -0.17,0.9326 -0.2248,1.0373 z m -2.5791,1.328 c -1.0933,0.1524 0.6875,-1.8285 0.2308,-0.3156 z m 0.6516,8.8219 c -0.606,2.0609 -1.8709,7.7151 -3.3116,7.5022 1.2814,-2.4507 2.5176,-8.9658 3.6269,-9.08 l -0.181,0.7214 z m 2.6459,7.6148 c -1.8688,4.765 -0.4142,-2.0467 0.735,-2.0913 -0.1172,0.7373 -0.4525,1.4096 -0.735,2.0913 z m -1.6219,-5.6385 c -1.7746,3.2806 0.7006,-4.4326 0,0 z m 1.0487,2.6872 c -0.1888,2.191 -3.7031,7.7277 -1.4493,2.469 0.1429,-0.8159 2.1754,-6.2064 1.4493,-2.469 z m 1.5369,5.4578 c -1.4589,1.5508 0.8394,-2.9779 0,0 z m -4.5378,-2.1863 c -0.9442,3.0535 -2.6386,3.2907 -0.895,-0.017 0.3175,-2.1447 3.4616,-6.9119 1.7365,-1.9136 l -0.379,0.9148 z m -0.8898,-7.2875 c -0.6753,1.9323 -2.8226,7.5899 -1.58,2.3128 0.5046,-1.4994 2.5146,-7.0285 1.58,-2.3128 z m -1.4111,-1.7036 c -2.9617,6.955 0.9753,-6.7661 0.2384,-0.7237 z m -1.62,-2.1694 c -0.2382,3.0093 -1.6712,4.6054 -0.8461,0.4359 -0.072,-2.065 1.9648,-3.3834 0.8461,-0.4359 z m -4.5003,2.1991 c -0.9804,3.1233 -2.0265,8.9723 -4.2837,9.9392 2.0215,-3.4563 2.6565,-10.2114 4.5168,-11.8867 l -0.037,0.7946 z m 1.0406,3.3286 c -1.1614,2.8036 -1.7302,7.0232 -4.1096,8.6407 1.8481,-2.6241 2.1554,-8.6126 4.2959,-9.6016 z m -2.1366,-5.8319 c -1.0494,-1.2554 0.5266,-0.4246 0,0 z m 3.2169,13.123 c -1.0516,2.7092 -4.1207,6.6329 -1.7404,1.5817 0.5316,-2.4059 3.5979,-6.7921 1.7404,-1.5817 z m 2.6662,4.7521 c -1.2092,0.6435 0.4982,-2.3115 -3e-4,0 z m -3.7564,-7.8825 c -0.05,2.9145 -4.7171,8.1286 -1.9026,2.5476 0.2411,-0.6108 3.08,-6.8732 1.9026,-2.5476 z m 2.7224,5.9451 c -1.1442,0.4977 0.6445,-1.5966 0,0 z m -1.737,0.763 c -0.4028,1.9022 -4.0376,5.7243 -1.5754,1.8151 0.417,-1.2521 2.9036,-5.4168 1.5754,-1.8151 z m 1.4155,3.2818 c -0.9288,-0.3336 1.142,-1.9752 0,0 z m -1.6113,0.1461 c -1.7634,-0.9072 2.0357,-2.1196 0,0 z m -4.8561,-0.098 c -1.2832,-1.3326 1.947,-1.6257 0,0 z m -0.7812,-0.1192 c -2.0305,2.3817 -6.1772,-1.4232 -2.8133,-1.7247 1.3334,2.4275 3.3329,-1.1919 2.8133,1.7247 z m -5.6754,-2.3138 c -1.2277,0.016 0.5824,-1.604 0,0 z m -11.149,-6.3134 c -1.0462,-1.2547 0.525,-0.4247 0,0 z m -3.8126,-0.1333 c -1.5643,-0.6292 0.7165,-1.5359 0,0 z m -3.1903,1.5253 c -1.2088,-0.4906 0.021,-1.7498 0,0 z m -1.8211,-3.445 c -1.9823,-1.6222 0.7837,-1.3608 0,0 z m -13.445,-32.579 c -0.7171,-1.44879 2.4007,-0.87063 0,0 z m 2.9514,24.937 c -1.5091,-0.5624 0.7529,-3.1936 0,0 z m -2.5783,-4.7783 c -1.3997,-0.3467 0.9757,-1.8105 0,0 z m -4.0566,-5.7617 c -0.5235,-1.1379 1.1116,-2.2946 0,0 z m 1.4363,5.4051 c -2.3664,-0.7482 0.2663,-3.072 0,0 z m -2.5242,0.2852 c -1.5645,-0.6293 0.7164,-1.5355 0,0 z m 4.5844,12.414 c -0.772,0.8288 -1.0313,-1.0399 -1.8503,-0.5639 -0.1035,-1.6729 2.6487,-0.8328 1.8503,0.5639 z m -4.1054,-9.2919 c -1.8998,1.2414 -3.5792,-4.7951 -1.1345,-1.3465 0.9689,-0.7781 1.3886,0.7184 1.1345,1.3465 z m 0.657,5.6971 c -3.6322,0.3201 -0.1467,-3.1239 0,0 z m -4.2072,-7.6689 c -1.0339,-0.7464 0.6358,-1.6895 0,0 z m 3.7361,12.088 c -2.1065,5.3454 -1.5481,-6.6538 0.2267,-1.1138 z m -3.7791,-7.4496 c -1.4058,-0.2762 0.7389,-1.6104 0,0 z m -3.2732,-5.2123 c -1.0905,0.3218 0.6496,-1.2345 0,0 z m 4.7817,13.044 c -0.2106,5.9856 -1.6479,-4.8299 -0.142,-1.1562 z m -2.0491,-1.0172 c -1.0579,2.9226 -0.2312,-4.1455 0,0 z m -2.3126,-1.5364 c -1.6202,3.4095 -0.5406,-4.8093 0,0 z m 0.639,-25.25 c -1.4311,2.29869 -3.4658,11.4472 -1.0388,4.4487 0.093,-1.3551 2.0249,-3.2668 1.0388,-4.4487 z m -5.676,10.244 c -0.8881,5.806 -1.6253,12.1095 0.1361,17.8694 0.6596,-4.5684 -0.7219,-9.9776 -0.032,-14.8922 -0.05,-0.9725 0.356,-2.0613 -0.1036,-2.9772 z m -3.148,1.3159 c -0.4523,5.2611 -1.3134,10.9506 0.2902,16.0496 0.8564,-1.6219 -0.7192,-8.4005 0.054,-11.621 -0.1375,-1.3168 0.6017,-3.5195 -0.3446,-4.4286 z m -2.5476,2.6052 c -0.7385,3.4481 -1.1522,11.9732 0.3109,12.4303 -0.7281,-4.0886 0.01,-8.597 -0.3109,-12.4303 z m -4.02,-6.5648 c -1.2996,5.8191 -1.3194,11.8958 -1.9027,17.8308 -1.3367,-2.5386 -3.0134,-12.1519 -3.8737,-3.8959 -0.7945,1.6027 -1.3855,0.6296 -0.5593,3.7506 0.1591,2.272 1.3002,3.9904 0.8805,0.518 -0.6731,-2.222 1.1894,-9.3184 1.6728,-3.4331 0.01,2.0868 2.631,9.3834 2.6113,3.4398 0.4818,-2.7269 -0.043,-10.1146 1.161,-10.2488 0.2301,3.0297 0.2296,10.0396 1.1524,10.5771 -0.072,-5.2156 -0.2226,-10.4059 -0.689,-15.5851 -0.2237,-0.6964 0.7367,-3.0639 -0.4533,-2.9534 z m -8.4178,5.2809 c -2.5298,4.3063 -2.6529,9.9669 -2.348,14.8684 1.0458,-2.7252 0.106,-8.9093 2.429,-10.4891 0.7984,2.1092 1.6489,5.1112 0.9419,1.1238 -0.4833,-1.7371 -0.1204,-4.0193 -1.0229,-5.5031 z"
       id="path4014"
       inkscape:connector-curvature="0" />
  </g>
  <metadata
     id="metadata5">
    <rdf:RDF>
      <cc:Work>
        <dc:format>image/svg+xml</dc:format>
        <dc:type
           rdf:resource="http://purl.org/dc/dcmitype/StillImage" />
        <cc:license
           rdf:resource="http://creativecommons.org/licenses/publicdomain/" />
        <dc:publisher>
          <cc:Agent
             rdf:about="http://openclipart.org/">
            <dc:title>Openclipart</dc:title>
          </cc:Agent>
        </dc:publisher>
      </cc:Work>
      <cc:License
         rdf:about="http://creativecommons.org/licenses/publicdomain/">
        <cc:permits
           rdf:resource="http://creativecommons.org/ns#Reproduction" />
        <cc:permits
           rdf:resource="http://creativecommons.org/ns#Distribution" />
        <cc:permits
           rdf:resource="http://creativecommons.org/ns#DerivativeWorks" />
      </cc:License>
    </rdf:RDF>
  </metadata>
</svg>
