<?xml version="1.0" encoding="UTF-8" standalone="no"?>
<svg
   xmlns:dc="http://purl.org/dc/elements/1.1/"
   xmlns:cc="http://creativecommons.org/ns#"
   xmlns:rdf="http://www.w3.org/1999/02/22-rdf-syntax-ns#"
   xmlns:svg="http://www.w3.org/2000/svg"
   xmlns="http://www.w3.org/2000/svg"
   xmlns:sodipodi="http://sodipodi.sourceforge.net/DTD/sodipodi-0.dtd"
   xmlns:inkscape="http://www.inkscape.org/namespaces/inkscape"
   id="svg2051"
   version="1.1"
   viewBox="0 0 155.19392 99.666109"
   height="99.666107mm"
   width="155.19392mm"
   sodipodi:docname="logoW.svg"
   inkscape:version="0.92.4 (5da689c313, 2019-01-14)">
  <sodipodi:namedview
     pagecolor="#ffffff"
     bordercolor="#666666"
     borderopacity="1"
     objecttolerance="10"
     gridtolerance="10"
     guidetolerance="10"
     inkscape:pageopacity="0"
     inkscape:pageshadow="2"
     inkscape:window-width="1680"
     inkscape:window-height="1024"
     id="namedview54"
     showgrid="false"
     fit-margin-top="0"
     fit-margin-left="0"
     fit-margin-right="0"
     fit-margin-bottom="0"
     inkscape:zoom="0.7071068"
     inkscape:cx="5.507305"
     inkscape:cy="63.398037"
     inkscape:window-x="1680"
     inkscape:window-y="0"
     inkscape:window-maximized="1"
     inkscape:current-layer="svg2051" />
  <defs
     id="defs2045" />
  <metadata
     id="metadata2048">
    <rdf:RDF>
      <cc:Work
         rdf:about="">
        <dc:format>image/svg+xml</dc:format>
        <dc:type
           rdf:resource="http://purl.org/dc/dcmitype/StillImage" />
        <dc:title></dc:title>
      </cc:Work>
    </rdf:RDF>
  </metadata>
  <rect
     style="opacity:1;fill:#f2f3f5;fill-opacity:1;fill-rule:nonzero;stroke:none;stroke-width:0.09898347;stroke-linecap:round;stroke-linejoin:round;stroke-miterlimit:4;stroke-dasharray:none;stroke-dashoffset:0;stroke-opacity:1;paint-order:stroke fill markers"
     id="rect862"
     width="155.19392"
     height="99.666107"
     x="-2.8421709e-14"
     y="0" />
  <path
     inkscape:connector-curvature="0"
     d="M 116.6089,72.415469 H 93.056686 l 11.776104,-20.39681 z"
     id="path890"
     style="fill:#eb6a48;fill-opacity:1;stroke:none;stroke-width:0.381578;stroke-miterlimit:4;stroke-dasharray:none;stroke-opacity:1" />
  <rect
     y="38.224319"
     x="77.577164"
     height="27.255585"
     width="27.255585"
     id="rect892"
     style="fill:#343d8b;fill-opacity:1;stroke:none;stroke-width:0.54786402;stroke-miterlimit:4;stroke-dasharray:none;stroke-opacity:1" />
  <circle
     r="13.947841"
     cy="65.670731"
     cx="77.386368"
     id="circle894"
     style="fill:#66cd9b;fill-opacity:1;stroke:none;stroke-width:0.40665299;stroke-miterlimit:4;stroke-dasharray:none;stroke-opacity:1" />
  <path
     inkscape:connector-curvature="0"
     id="path896"
     d="m 60.127776,50.755629 -9.4221,-22.39672 c -0.3861,-1.00398 -0.3861,-1.00398 -1.7762,-1.00398 h -9.1132 c -0.9268,0 -1.6218,0 -1.6218,0.84953 0,0.84952 0.8495,0.84952 1.0812,0.84952 0.6178,0 1.9307,0.15447 3.012,0.54061 v 26.25823 c 0,1.08121 0,3.24365 -3.3209,3.55258 -0.9268,0.0772 -0.9268,0.7723 -0.9268,0.84954 0,0.84952 0.7723,0.84952 1.6991,0.84952 h 7.5685 c 0.9268,0 1.6219,0 1.6219,-0.84952 0,-0.46338 -0.3862,-0.84954 -0.7723,-0.84954 -3.7843,-0.30893 -3.7843,-2.39413 -3.7843,-3.55258 v -24.48193 l 0.077,-0.0772 11.9706,28.80681 c 0.4634,0.84954 0.7724,1.004 1.0813,1.004 0.6178,0 0.695,-0.38615 1.004,-1.004 l 12.0479,-28.80681 0.077,0.0772 v 24.48193 c 0,1.08121 0,3.24365 -3.3982,3.55258 -0.9267,0.0772 -0.9267,0.7723 -0.9267,0.84954 0,0.84952 0.7723,0.84952 1.6991,0.84952 h 13.1291 c 0.9267,0 1.6218,0 1.6218,-0.84952 0,-0.46338 -0.3862,-0.84954 -0.7723,-0.84954 -3.7843,-0.30893 -3.7843,-2.39413 -3.7843,-3.55258 v -23.24624 c 0,-1.08123 0,-3.24368 3.3209,-3.5526 0.5406,0 0.9268,-0.30891 0.9268,-0.84952 0,-0.84953 -0.6951,-0.84953 -1.6219,-0.84953 h -9.4993 c -1.2356,0 -1.3901,0 -1.7763,1.00398 z m -1.4674,0.92677 c 0.3862,0.77229 0.4634,0.84952 1.0813,1.08121 l -2.2397,5.17441 h -0.077 l -11.1984,-26.79882 c -0.2317,-0.61785 -0.6951,-1.46737 -1.3129,-2.08522 h 4.2477 z m 13.6698,-22.62842 h 5.2516 c -1.1585,1.23568 -1.1585,2.5486 -1.1585,3.39813 v 23.55516 c 0,0.84954 0,2.16244 1.1585,3.39813 h -6.3329 c 1.0813,-1.23569 1.0813,-2.54859 1.0813,-3.39813 z"
     style="fill:#343434;fill-opacity:1;stroke:none;stroke-width:4.94271994" />
</svg>
