<?xml version="1.0" encoding="UTF-8" standalone="no"?>
<!-- Generator: Adobe Illustrator 16.0.0, SVG Export Plug-In . SVG Version: 6.00 Build 0)  -->

<svg
   xmlns:dc="http://purl.org/dc/elements/1.1/"
   xmlns:cc="http://creativecommons.org/ns#"
   xmlns:rdf="http://www.w3.org/1999/02/22-rdf-syntax-ns#"
   xmlns:svg="http://www.w3.org/2000/svg"
   xmlns="http://www.w3.org/2000/svg"
   xmlns:sodipodi="http://sodipodi.sourceforge.net/DTD/sodipodi-0.dtd"
   xmlns:inkscape="http://www.inkscape.org/namespaces/inkscape"
   version="1.1"
   id="Capa_1"
   x="0px"
   y="0px"
   width="792px"
   height="792px"
   viewBox="0 0 792 792"
   style="enable-background:new 0 0 792 792;"
   xml:space="preserve"
   sodipodi:docname="mobile.svg"
   inkscape:version="0.92.3 (d244b95, 2018-08-02)"><metadata
   id="metadata41"><rdf:RDF><cc:Work
       rdf:about=""><dc:format>image/svg+xml</dc:format><dc:type
         rdf:resource="http://purl.org/dc/dcmitype/StillImage" /></cc:Work></rdf:RDF></metadata><defs
   id="defs39" /><sodipodi:namedview
   pagecolor="#ffffff"
   bordercolor="#666666"
   borderopacity="1"
   objecttolerance="10"
   gridtolerance="10"
   guidetolerance="10"
   inkscape:pageopacity="0"
   inkscape:pageshadow="2"
   inkscape:window-width="1366"
   inkscape:window-height="711"
   id="namedview37"
   showgrid="false"
   inkscape:zoom="1.6856283"
   inkscape:cx="348.76876"
   inkscape:cy="619.55061"
   inkscape:window-x="0"
   inkscape:window-y="24"
   inkscape:window-maximized="1"
   inkscape:current-layer="layer4" />
<g
   id="g4">
	<path
   d="M521.806,792c0,0,71.889,0,71.889-71.997V71.997C593.694,0,521.806,0,521.806,0H270.194c0,0-71.889,0-71.889,71.997   v648.006C198.306,792,270.194,792,270.194,792H521.806z M396,762.022c-19.841,0-35.944-16.104-35.944-35.944   c0-19.842,16.103-35.944,35.944-35.944c19.842,0,35.944,16.103,35.944,35.944C431.944,745.919,415.842,762.022,396,762.022z    M342.083,43.888c0-4.457,2.121-7.944,4.78-7.944h98.272c2.624,0,4.781,3.559,4.781,7.944v2.121c0,4.457-2.157,7.944-4.781,7.944   h-98.272c-2.624,0-4.78-3.559-4.78-7.944V43.888z M234.25,89.861h323.5v575.111h-323.5V89.861z"
   id="path2" />
</g>
<g
   id="g6">
</g>
<g
   id="g8">
</g>
<g
   id="g10">
</g>
<g
   id="g12">
</g>
<g
   id="g14">
</g>
<g
   id="g16">
</g>
<g
   id="g18">
</g>
<g
   id="g20">
</g>
<g
   id="g22">
</g>
<g
   id="g24">
</g>
<g
   id="g26">
</g>
<g
   id="g28">
</g>
<g
   id="g30">
</g>
<g
   id="g32">
</g>
<g
   id="g34">
</g>
<g
   inkscape:groupmode="layer"
   id="layer1"
   inkscape:label="Layer 1"
   style="display:inline"><path
     style="fill:#000000;fill-opacity:0;stroke:#c25900;stroke-width:3.69300008;stroke-miterlimit:4;stroke-dasharray:none;stroke-dashoffset:0;stroke-opacity:1"
     d="m 432.32694,725.55591 c 1.05773,23.21439 -23.84028,43.10863 -46.11409,35.13874 -22.72437,-6.58828 -32.42327,-36.85859 -18.8588,-55.90716 11.98781,-20.10659 43.85899,-21.33107 57.2604,-2.09535 5.00621,6.49261 7.72877,14.67369 7.71249,22.86377 z"
     id="path849"
     inkscape:connector-curvature="0" /></g><g
   inkscape:groupmode="layer"
   id="layer2"
   inkscape:label="Layer 2"><rect
     style="display:inline;fill:#000000;fill-opacity:0;stroke:#c25900;stroke-width:2.96028757;stroke-miterlimit:4;stroke-dasharray:none;stroke-dashoffset:0;stroke-opacity:1"
     id="rect852"
     width="30.936104"
     height="30.936104"
     x="380.85397"
     y="709.5871" /></g><g
   inkscape:groupmode="layer"
   id="layer3"
   inkscape:label="Layer 3"><circle
     style="fill:#000000;fill-opacity:0;stroke:#c25900;stroke-width:0.88931572;stroke-miterlimit:4;stroke-dasharray:none;stroke-dashoffset:0;stroke-opacity:1"
     id="path834"
     cx="316.207"
     cy="44.648094"
     r="7.4208498" /></g><g
   inkscape:groupmode="layer"
   id="layer4"
   inkscape:label="Layer 4"><rect
     style="fill:#000000;fill-opacity:0;stroke:#c25900;stroke-width:2.13762784;stroke-miterlimit:4;stroke-dasharray:none;stroke-dashoffset:0;stroke-opacity:1"
     id="rect837"
     width="323.5"
     height="575.11102"
     x="234.25"
     y="89.861" /></g><path
   style="fill:#000000;fill-opacity:0;stroke:#c25900;stroke-width:1.49300003;stroke-miterlimit:4;stroke-dasharray:none;stroke-dashoffset:0;stroke-opacity:1"
   d="m 346.45834,36.198727 h 100.8526 c 0,0 3.11457,1.501624 3.11457,8.750447 0,7.248824 -3.11457,8.750445 -3.11457,8.750445 h -100.8526 c -4.79658,-0.879859 -6.80849,-15.838107 0,-17.500892 z"
   id="rect870"
   inkscape:connector-curvature="0"
   sodipodi:nodetypes="cczccc" /></svg>