<?xml version="1.0" encoding="UTF-8" standalone="no"?>
<!DOCTYPE svg PUBLIC "-//W3C//DTD SVG 1.1//EN"
 "http://www.w3.org/Graphics/SVG/1.1/DTD/svg11.dtd">
<!-- Generated by graphviz version 2.38.0 (20140413.2041)
 -->
<!-- Title: %3 Pages: 1 -->
<svg width="1364pt" height="881pt"
 viewBox="0.00 0.00 1364.00 881.00" xmlns="http://www.w3.org/2000/svg" xmlns:xlink="http://www.w3.org/1999/xlink">
<g id="graph0" class="graph" transform="scale(1 1) rotate(0) translate(4 877)">
<title>%3</title>
<polygon fill="white" stroke="none" points="-4,4 -4,-877 1360,-877 1360,4 -4,4"/>
<!-- manim -->
<g id="node1" class="node"><title>manim</title>
<polygon fill="lemonchiffon" stroke="black" stroke-width="2" points="54,-569 51,-573 30,-573 27,-569 0,-569 0,-533 54,-533 54,-569"/>
<text text-anchor="start" x="8" y="-547.3" font-family="Times New Roman,serif" font-size="14.00">manim</text>
</g>
<!-- manim\docs -->
<g id="node2" class="node"><title>manim\docs</title>
<polygon fill="lemonchiffon" stroke="black" stroke-width="2" points="330.5,-663 327.5,-667 306.5,-667 303.5,-663 276.5,-663 276.5,-627 330.5,-627 330.5,-663"/>
<text text-anchor="start" x="284.5" y="-641.3" font-family="Times New Roman,serif" font-size="14.00">docs</text>
</g>
<!-- manim&#45;&gt;manim\docs -->
<g id="edge1" class="edge"><title>manim&#45;&gt;manim\docs</title>
<path fill="none" stroke="black" d="M54.3202,-560.013C103.817,-576.963 210.802,-613.599 266.756,-632.76"/>
<polygon fill="black" stroke="black" points="265.665,-636.086 276.259,-636.014 267.933,-629.463 265.665,-636.086"/>
</g>
<!-- manim\logo -->
<g id="node3" class="node"><title>manim\logo</title>
<polygon fill="lemonchiffon" stroke="black" stroke-width="2" points="330.5,-569 327.5,-573 306.5,-573 303.5,-569 276.5,-569 276.5,-533 330.5,-533 330.5,-569"/>
<text text-anchor="start" x="284.5" y="-547.3" font-family="Times New Roman,serif" font-size="14.00">logo</text>
</g>
<!-- manim&#45;&gt;manim\logo -->
<g id="edge2" class="edge"><title>manim&#45;&gt;manim\logo</title>
<path fill="none" stroke="black" d="M54.3202,-551C103.612,-551 209.917,-551 266.059,-551"/>
<polygon fill="black" stroke="black" points="266.26,-554.5 276.259,-551 266.259,-547.5 266.26,-554.5"/>
</g>
<!-- manim\manimlib -->
<g id="node4" class="node"><title>manim\manimlib</title>
<polygon fill="lemonchiffon" stroke="black" stroke-width="2" points="337,-434 334,-438 313,-438 310,-434 270,-434 270,-398 337,-398 337,-434"/>
<text text-anchor="start" x="278" y="-412.3" font-family="Times New Roman,serif" font-size="14.00">manimlib</text>
</g>
<!-- manim&#45;&gt;manim\manimlib -->
<g id="edge3" class="edge"><title>manim&#45;&gt;manim\manimlib</title>
<path fill="none" stroke="black" d="M54.3202,-538.056C102.115,-514.55 203.514,-464.682 260.808,-436.504"/>
<polygon fill="black" stroke="black" points="262.521,-439.562 269.95,-432.008 259.432,-433.281 262.521,-439.562"/>
</g>
<!-- manim\docs\source -->
<g id="node5" class="node"><title>manim\docs\source</title>
<polygon fill="lemonchiffon" stroke="black" stroke-width="2" points="655,-684 652,-688 631,-688 628,-684 601,-684 601,-648 655,-648 655,-684"/>
<text text-anchor="start" x="609" y="-662.3" font-family="Times New Roman,serif" font-size="14.00">source</text>
</g>
<!-- manim\docs&#45;&gt;manim\docs\source -->
<g id="edge4" class="edge"><title>manim\docs&#45;&gt;manim\docs\source</title>
<path fill="none" stroke="black" d="M330.618,-646.701C387.863,-650.428 524.509,-659.326 590.33,-663.612"/>
<polygon fill="black" stroke="black" points="590.432,-667.126 600.638,-664.283 590.886,-660.141 590.432,-667.126"/>
</g>
<!-- manim\manimlib\animation -->
<g id="node16" class="node"><title>manim\manimlib\animation</title>
<polygon fill="lemonchiffon" stroke="black" stroke-width="2" points="663,-630 660,-634 639,-634 636,-630 593,-630 593,-594 663,-594 663,-630"/>
<text text-anchor="start" x="601" y="-608.3" font-family="Times New Roman,serif" font-size="14.00">animation</text>
</g>
<!-- manim\manimlib&#45;&gt;manim\manimlib\animation -->
<g id="edge15" class="edge"><title>manim\manimlib&#45;&gt;manim\manimlib\animation</title>
<path fill="none" stroke="black" d="M331.094,-434.086C395.2,-477.683 553,-585 553,-585 553,-585 567.168,-590.169 583.105,-595.984"/>
<polygon fill="black" stroke="black" points="582.006,-599.309 592.6,-599.449 584.405,-592.733 582.006,-599.309"/>
</g>
<!-- manim\manimlib\camera -->
<g id="node17" class="node"><title>manim\manimlib\camera</title>
<polygon fill="lemonchiffon" stroke="black" stroke-width="2" points="656,-576 653,-580 632,-580 629,-576 600,-576 600,-540 656,-540 656,-576"/>
<text text-anchor="start" x="608" y="-554.3" font-family="Times New Roman,serif" font-size="14.00">camera</text>
</g>
<!-- manim\manimlib&#45;&gt;manim\manimlib\camera -->
<g id="edge16" class="edge"><title>manim\manimlib&#45;&gt;manim\manimlib\camera</title>
<path fill="none" stroke="black" d="M337.243,-431.152C404.721,-462.38 553,-531 553,-531 553,-531 571.67,-537.812 590.254,-544.593"/>
<polygon fill="black" stroke="black" points="589.271,-547.96 599.865,-548.1 591.671,-541.384 589.271,-547.96"/>
</g>
<!-- manim\manimlib\event_handler -->
<g id="node18" class="node"><title>manim\manimlib\event_handler</title>
<polygon fill="lemonchiffon" stroke="black" stroke-width="2" points="675,-522 672,-526 651,-526 648,-522 581,-522 581,-486 675,-486 675,-522"/>
<text text-anchor="start" x="589" y="-500.3" font-family="Times New Roman,serif" font-size="14.00">event_handler</text>
</g>
<!-- manim\manimlib&#45;&gt;manim\manimlib\event_handler -->
<g id="edge17" class="edge"><title>manim\manimlib&#45;&gt;manim\manimlib\event_handler</title>
<path fill="none" stroke="black" d="M337.198,-424.922C392.031,-439.885 503.144,-470.204 570.732,-488.646"/>
<polygon fill="black" stroke="black" points="570.214,-492.133 580.783,-491.389 572.057,-485.38 570.214,-492.133"/>
</g>
<!-- manim\manimlib\mobject -->
<g id="node19" class="node"><title>manim\manimlib\mobject</title>
<polygon fill="lemonchiffon" stroke="black" stroke-width="2" points="659,-468 656,-472 635,-472 632,-468 597,-468 597,-432 659,-432 659,-468"/>
<text text-anchor="start" x="605" y="-446.3" font-family="Times New Roman,serif" font-size="14.00">mobject</text>
</g>
<!-- manim\manimlib&#45;&gt;manim\manimlib\mobject -->
<g id="edge18" class="edge"><title>manim\manimlib&#45;&gt;manim\manimlib\mobject</title>
<path fill="none" stroke="black" d="M337.198,-419.447C396.509,-425.7 521.664,-438.895 586.363,-445.716"/>
<polygon fill="black" stroke="black" points="586.272,-449.226 596.584,-446.793 587.006,-442.264 586.272,-449.226"/>
</g>
<!-- manim\manimlib\once_useful_constructs -->
<g id="node20" class="node"><title>manim\manimlib\once_useful_constructs</title>
<polygon fill="lemonchiffon" stroke="black" stroke-width="2" points="703,-414 700,-418 679,-418 676,-414 553,-414 553,-378 703,-378 703,-414"/>
<text text-anchor="start" x="561" y="-392.3" font-family="Times New Roman,serif" font-size="14.00">once_useful_constructs</text>
</g>
<!-- manim\manimlib&#45;&gt;manim\manimlib\once_useful_constructs -->
<g id="edge19" class="edge"><title>manim\manimlib&#45;&gt;manim\manimlib\once_useful_constructs</title>
<path fill="none" stroke="black" d="M337.198,-413.972C384.949,-411.011 475.379,-405.403 542.578,-401.235"/>
<polygon fill="black" stroke="black" points="542.97,-404.718 552.734,-400.606 542.537,-397.731 542.97,-404.718"/>
</g>
<!-- manim\manimlib\scene -->
<g id="node21" class="node"><title>manim\manimlib\scene</title>
<polygon fill="lemonchiffon" stroke="black" stroke-width="2" points="655,-360 652,-364 631,-364 628,-360 601,-360 601,-324 655,-324 655,-360"/>
<text text-anchor="start" x="609" y="-338.3" font-family="Times New Roman,serif" font-size="14.00">scene</text>
</g>
<!-- manim\manimlib&#45;&gt;manim\manimlib\scene -->
<g id="edge20" class="edge"><title>manim\manimlib&#45;&gt;manim\manimlib\scene</title>
<path fill="none" stroke="black" d="M337.198,-408.497C397.874,-394.575 527.461,-364.84 590.733,-350.322"/>
<polygon fill="black" stroke="black" points="591.696,-353.692 600.66,-348.044 590.13,-346.869 591.696,-353.692"/>
</g>
<!-- manim\manimlib\shaders -->
<g id="node22" class="node"><title>manim\manimlib\shaders</title>
<polygon fill="lemonchiffon" stroke="black" stroke-width="2" points="657.5,-306 654.5,-310 633.5,-310 630.5,-306 598.5,-306 598.5,-270 657.5,-270 657.5,-306"/>
<text text-anchor="start" x="606.5" y="-284.3" font-family="Times New Roman,serif" font-size="14.00">shaders</text>
</g>
<!-- manim\manimlib&#45;&gt;manim\manimlib\shaders -->
<g id="edge21" class="edge"><title>manim\manimlib&#45;&gt;manim\manimlib\shaders</title>
<path fill="none" stroke="black" d="M337.243,-402.692C404.721,-375.266 553,-315 553,-315 553,-315 570.694,-308.544 588.777,-301.946"/>
<polygon fill="black" stroke="black" points="589.983,-305.232 598.178,-298.516 587.584,-298.656 589.983,-305.232"/>
</g>
<!-- manim\manimlib\tex_templates -->
<g id="node23" class="node"><title>manim\manimlib\tex_templates</title>
<polygon fill="lemonchiffon" stroke="black" stroke-width="2" points="674.5,-252 671.5,-256 650.5,-256 647.5,-252 581.5,-252 581.5,-216 674.5,-216 674.5,-252"/>
<text text-anchor="start" x="589.5" y="-230.3" font-family="Times New Roman,serif" font-size="14.00">tex_templates</text>
</g>
<!-- manim\manimlib&#45;&gt;manim\manimlib\tex_templates -->
<g id="edge22" class="edge"><title>manim\manimlib&#45;&gt;manim\manimlib\tex_templates</title>
<path fill="none" stroke="black" d="M333.492,-397.916C399.044,-357.029 553,-261 553,-261 553,-261 561.039,-258.067 571.817,-254.134"/>
<polygon fill="black" stroke="black" points="573.204,-257.354 581.399,-250.638 570.805,-250.778 573.204,-257.354"/>
</g>
<!-- manim\manimlib\utils -->
<g id="node24" class="node"><title>manim\manimlib\utils</title>
<polygon fill="lemonchiffon" stroke="black" stroke-width="2" points="655,-198 652,-202 631,-202 628,-198 601,-198 601,-162 655,-162 655,-198"/>
<text text-anchor="start" x="609" y="-176.3" font-family="Times New Roman,serif" font-size="14.00">utils</text>
</g>
<!-- manim\manimlib&#45;&gt;manim\manimlib\utils -->
<g id="edge23" class="edge"><title>manim\manimlib&#45;&gt;manim\manimlib\utils</title>
<path fill="none" stroke="black" d="M326.118,-397.818C386.577,-346.97 553,-207 553,-207 553,-207 572.344,-199.942 591.251,-193.043"/>
<polygon fill="black" stroke="black" points="592.507,-196.311 600.702,-189.595 590.108,-189.735 592.507,-196.311"/>
</g>
<!-- manim\docs\source\development -->
<g id="node6" class="node"><title>manim\docs\source\development</title>
<polygon fill="lemonchiffon" stroke="black" stroke-width="2" points="1038.5,-792 1035.5,-796 1014.5,-796 1011.5,-792 950.5,-792 950.5,-756 1038.5,-756 1038.5,-792"/>
<text text-anchor="start" x="958.5" y="-770.3" font-family="Times New Roman,serif" font-size="14.00">development</text>
</g>
<!-- manim\docs\source&#45;&gt;manim\docs\source\development -->
<g id="edge5" class="edge"><title>manim\docs\source&#45;&gt;manim\docs\source\development</title>
<path fill="none" stroke="black" d="M655.214,-673.767C714.778,-691.416 861.262,-734.818 940.521,-758.302"/>
<polygon fill="black" stroke="black" points="939.727,-761.718 950.309,-761.203 941.716,-755.006 939.727,-761.718"/>
</g>
<!-- manim\docs\source\documentation -->
<g id="node7" class="node"><title>manim\docs\source\documentation</title>
<polygon fill="lemonchiffon" stroke="black" stroke-width="2" points="1044,-738 1041,-742 1020,-742 1017,-738 945,-738 945,-702 1044,-702 1044,-738"/>
<text text-anchor="start" x="953" y="-716.3" font-family="Times New Roman,serif" font-size="14.00">documentation</text>
</g>
<!-- manim\docs\source&#45;&gt;manim\docs\source\documentation -->
<g id="edge6" class="edge"><title>manim\docs\source&#45;&gt;manim\docs\source\documentation</title>
<path fill="none" stroke="black" d="M655.214,-669.884C713.369,-678.499 854.381,-699.39 934.786,-711.302"/>
<polygon fill="black" stroke="black" points="934.353,-714.776 944.758,-712.779 935.379,-707.851 934.353,-714.776"/>
</g>
<!-- manim\docs\source\getting_started -->
<g id="node8" class="node"><title>manim\docs\source\getting_started</title>
<polygon fill="lemonchiffon" stroke="black" stroke-width="2" points="1043.5,-684 1040.5,-688 1019.5,-688 1016.5,-684 945.5,-684 945.5,-648 1043.5,-648 1043.5,-684"/>
<text text-anchor="start" x="953.5" y="-662.3" font-family="Times New Roman,serif" font-size="14.00">getting_started</text>
</g>
<!-- manim\docs\source&#45;&gt;manim\docs\source\getting_started -->
<g id="edge7" class="edge"><title>manim\docs\source&#45;&gt;manim\docs\source\getting_started</title>
<path fill="none" stroke="black" d="M655.214,-666C713.406,-666 854.565,-666 934.942,-666"/>
<polygon fill="black" stroke="black" points="935.388,-669.5 945.388,-666 935.388,-662.5 935.388,-669.5"/>
</g>
<!-- manim\docs\source\_static -->
<g id="node9" class="node"><title>manim\docs\source\_static</title>
<polygon fill="lemonchiffon" stroke="black" stroke-width="2" points="1021.5,-630 1018.5,-634 997.5,-634 994.5,-630 967.5,-630 967.5,-594 1021.5,-594 1021.5,-630"/>
<text text-anchor="start" x="975.5" y="-608.3" font-family="Times New Roman,serif" font-size="14.00">_static</text>
</g>
<!-- manim\docs\source&#45;&gt;manim\docs\source\_static -->
<g id="edge8" class="edge"><title>manim\docs\source&#45;&gt;manim\docs\source\_static</title>
<path fill="none" stroke="black" d="M655.214,-662.116C719.159,-652.643 883.283,-628.328 956.858,-617.428"/>
<polygon fill="black" stroke="black" points="957.655,-620.849 967.034,-615.921 956.629,-613.924 957.655,-620.849"/>
</g>
<!-- manim\docs\source\documentation\animation -->
<g id="node10" class="node"><title>manim\docs\source\documentation\animation</title>
<polygon fill="lemonchiffon" stroke="black" stroke-width="2" points="1356,-873 1353,-877 1332,-877 1329,-873 1286,-873 1286,-837 1356,-837 1356,-873"/>
<text text-anchor="start" x="1294" y="-851.3" font-family="Times New Roman,serif" font-size="14.00">animation</text>
</g>
<!-- manim\docs\source\documentation&#45;&gt;manim\docs\source\documentation\animation -->
<g id="edge9" class="edge"><title>manim\docs\source\documentation&#45;&gt;manim\docs\source\documentation\animation</title>
<path fill="none" stroke="black" d="M1044.36,-737.708C1058.4,-742.797 1070,-747 1070,-747 1070,-747 1204.91,-805.28 1276.52,-836.216"/>
<polygon fill="black" stroke="black" points="1275.19,-839.457 1285.76,-840.21 1277.97,-833.031 1275.19,-839.457"/>
</g>
<!-- manim\docs\source\documentation\camera -->
<g id="node11" class="node"><title>manim\docs\source\documentation\camera</title>
<polygon fill="lemonchiffon" stroke="black" stroke-width="2" points="1349,-819 1346,-823 1325,-823 1322,-819 1293,-819 1293,-783 1349,-783 1349,-819"/>
<text text-anchor="start" x="1301" y="-797.3" font-family="Times New Roman,serif" font-size="14.00">camera</text>
</g>
<!-- manim\docs\source\documentation&#45;&gt;manim\docs\source\documentation\camera -->
<g id="edge10" class="edge"><title>manim\docs\source\documentation&#45;&gt;manim\docs\source\documentation\camera</title>
<path fill="none" stroke="black" d="M1044.08,-732.127C1109.3,-748.405 1223.75,-776.974 1282.65,-791.677"/>
<polygon fill="black" stroke="black" points="1282.09,-795.143 1292.64,-794.17 1283.78,-788.352 1282.09,-795.143"/>
</g>
<!-- manim\docs\source\documentation\mobject -->
<g id="node12" class="node"><title>manim\docs\source\documentation\mobject</title>
<polygon fill="lemonchiffon" stroke="black" stroke-width="2" points="1352,-765 1349,-769 1328,-769 1325,-765 1290,-765 1290,-729 1352,-729 1352,-765"/>
<text text-anchor="start" x="1298" y="-743.3" font-family="Times New Roman,serif" font-size="14.00">mobject</text>
</g>
<!-- manim\docs\source\documentation&#45;&gt;manim\docs\source\documentation\mobject -->
<g id="edge11" class="edge"><title>manim\docs\source\documentation&#45;&gt;manim\docs\source\documentation\mobject</title>
<path fill="none" stroke="black" d="M1044.08,-724.042C1108.13,-729.371 1219.67,-738.652 1279.43,-743.625"/>
<polygon fill="black" stroke="black" points="1279.36,-747.131 1289.62,-744.472 1279.94,-740.155 1279.36,-747.131"/>
</g>
<!-- manim\docs\source\documentation\scene -->
<g id="node13" class="node"><title>manim\docs\source\documentation\scene</title>
<polygon fill="lemonchiffon" stroke="black" stroke-width="2" points="1348,-711 1345,-715 1324,-715 1321,-711 1294,-711 1294,-675 1348,-675 1348,-711"/>
<text text-anchor="start" x="1302" y="-689.3" font-family="Times New Roman,serif" font-size="14.00">scene</text>
</g>
<!-- manim\docs\source\documentation&#45;&gt;manim\docs\source\documentation\scene -->
<g id="edge12" class="edge"><title>manim\docs\source\documentation&#45;&gt;manim\docs\source\documentation\scene</title>
<path fill="none" stroke="black" d="M1044.08,-715.958C1109.66,-710.501 1225.03,-700.902 1283.63,-696.026"/>
<polygon fill="black" stroke="black" points="1284.21,-699.49 1293.89,-695.173 1283.63,-692.514 1284.21,-699.49"/>
</g>
<!-- manim\docs\source\documentation\shaders -->
<g id="node14" class="node"><title>manim\docs\source\documentation\shaders</title>
<polygon fill="lemonchiffon" stroke="black" stroke-width="2" points="1350.5,-657 1347.5,-661 1326.5,-661 1323.5,-657 1291.5,-657 1291.5,-621 1350.5,-621 1350.5,-657"/>
<text text-anchor="start" x="1299.5" y="-635.3" font-family="Times New Roman,serif" font-size="14.00">shaders</text>
</g>
<!-- manim\docs\source\documentation&#45;&gt;manim\docs\source\documentation\shaders -->
<g id="edge13" class="edge"><title>manim\docs\source\documentation&#45;&gt;manim\docs\source\documentation\shaders</title>
<path fill="none" stroke="black" d="M1044.08,-707.873C1108.93,-691.686 1222.46,-663.346 1281.65,-648.572"/>
<polygon fill="black" stroke="black" points="1282.5,-651.967 1291.36,-646.149 1280.81,-645.175 1282.5,-651.967"/>
</g>
<!-- manim\docs\source\documentation\utils -->
<g id="node15" class="node"><title>manim\docs\source\documentation\utils</title>
<polygon fill="lemonchiffon" stroke="black" stroke-width="2" points="1348,-603 1345,-607 1324,-607 1321,-603 1294,-603 1294,-567 1348,-567 1348,-603"/>
<text text-anchor="start" x="1302" y="-581.3" font-family="Times New Roman,serif" font-size="14.00">utils</text>
</g>
<!-- manim\docs\source\documentation&#45;&gt;manim\docs\source\documentation\utils -->
<g id="edge14" class="edge"><title>manim\docs\source\documentation&#45;&gt;manim\docs\source\documentation\utils</title>
<path fill="none" stroke="black" d="M1044.36,-702.292C1058.4,-697.203 1070,-693 1070,-693 1070,-693 1215.52,-630.135 1284.51,-600.33"/>
<polygon fill="black" stroke="black" points="1285.93,-603.533 1293.72,-596.354 1283.15,-597.107 1285.93,-603.533"/>
</g>
<!-- manim\manimlib\mobject\svg -->
<g id="node25" class="node"><title>manim\manimlib\mobject\svg</title>
<polygon fill="lemonchiffon" stroke="black" stroke-width="2" points="1021.5,-576 1018.5,-580 997.5,-580 994.5,-576 967.5,-576 967.5,-540 1021.5,-540 1021.5,-576"/>
<text text-anchor="start" x="975.5" y="-554.3" font-family="Times New Roman,serif" font-size="14.00">svg</text>
</g>
<!-- manim\manimlib\mobject&#45;&gt;manim\manimlib\mobject\svg -->
<g id="edge24" class="edge"><title>manim\manimlib\mobject&#45;&gt;manim\manimlib\mobject\svg</title>
<path fill="none" stroke="black" d="M659.139,-458.93C725.793,-478.679 885.48,-525.994 957.357,-547.291"/>
<polygon fill="black" stroke="black" points="956.721,-550.753 967.303,-550.238 958.71,-544.041 956.721,-550.753"/>
</g>
<!-- manim\manimlib\mobject\types -->
<g id="node26" class="node"><title>manim\manimlib\mobject\types</title>
<polygon fill="lemonchiffon" stroke="black" stroke-width="2" points="1021.5,-522 1018.5,-526 997.5,-526 994.5,-522 967.5,-522 967.5,-486 1021.5,-486 1021.5,-522"/>
<text text-anchor="start" x="975.5" y="-500.3" font-family="Times New Roman,serif" font-size="14.00">types</text>
</g>
<!-- manim\manimlib\mobject&#45;&gt;manim\manimlib\mobject\types -->
<g id="edge25" class="edge"><title>manim\manimlib\mobject&#45;&gt;manim\manimlib\mobject\types</title>
<path fill="none" stroke="black" d="M659.139,-454.465C725.793,-464.34 885.48,-487.997 957.357,-498.645"/>
<polygon fill="black" stroke="black" points="956.898,-502.116 967.303,-500.119 957.924,-495.191 956.898,-502.116"/>
</g>
<!-- manim\manimlib\shaders\image -->
<g id="node27" class="node"><title>manim\manimlib\shaders\image</title>
<polygon fill="lemonchiffon" stroke="black" stroke-width="2" points="1021.5,-468 1018.5,-472 997.5,-472 994.5,-468 967.5,-468 967.5,-432 1021.5,-432 1021.5,-468"/>
<text text-anchor="start" x="975.5" y="-446.3" font-family="Times New Roman,serif" font-size="14.00">image</text>
</g>
<!-- manim\manimlib\shaders&#45;&gt;manim\manimlib\shaders\image -->
<g id="edge26" class="edge"><title>manim\manimlib\shaders&#45;&gt;manim\manimlib\shaders\image</title>
<path fill="none" stroke="black" d="M657.822,-298.516C678.6,-306.097 703,-315 703,-315 703,-315 919,-423 919,-423 919,-423 938.73,-430.15 957.883,-437.092"/>
<polygon fill="black" stroke="black" points="956.849,-440.44 967.444,-440.557 959.234,-433.859 956.849,-440.44"/>
</g>
<!-- manim\manimlib\shaders\inserts -->
<g id="node28" class="node"><title>manim\manimlib\shaders\inserts</title>
<polygon fill="lemonchiffon" stroke="black" stroke-width="2" points="1021.5,-414 1018.5,-418 997.5,-418 994.5,-414 967.5,-414 967.5,-378 1021.5,-378 1021.5,-414"/>
<text text-anchor="start" x="975.5" y="-392.3" font-family="Times New Roman,serif" font-size="14.00">inserts</text>
</g>
<!-- manim\manimlib\shaders&#45;&gt;manim\manimlib\shaders\inserts -->
<g id="edge27" class="edge"><title>manim\manimlib\shaders&#45;&gt;manim\manimlib\shaders\inserts</title>
<path fill="none" stroke="black" d="M657.602,-296.475C723.345,-315.954 885.118,-363.887 957.489,-385.33"/>
<polygon fill="black" stroke="black" points="956.914,-388.81 967.496,-388.295 958.903,-382.098 956.914,-388.81"/>
</g>
<!-- manim\manimlib\shaders\mandelbrot_fractal -->
<g id="node29" class="node"><title>manim\manimlib\shaders\mandelbrot_fractal</title>
<polygon fill="lemonchiffon" stroke="black" stroke-width="2" points="1055.5,-360 1052.5,-364 1031.5,-364 1028.5,-360 933.5,-360 933.5,-324 1055.5,-324 1055.5,-360"/>
<text text-anchor="start" x="941.5" y="-338.3" font-family="Times New Roman,serif" font-size="14.00">mandelbrot_fractal</text>
</g>
<!-- manim\manimlib\shaders&#45;&gt;manim\manimlib\shaders\mandelbrot_fractal -->
<g id="edge28" class="edge"><title>manim\manimlib\shaders&#45;&gt;manim\manimlib\shaders\mandelbrot_fractal</title>
<path fill="none" stroke="black" d="M657.602,-292.237C714.334,-300.642 842.576,-319.641 923.17,-331.581"/>
<polygon fill="black" stroke="black" points="922.835,-335.069 933.24,-333.073 923.861,-328.145 922.835,-335.069"/>
</g>
<!-- manim\manimlib\shaders\newton_fractal -->
<g id="node30" class="node"><title>manim\manimlib\shaders\newton_fractal</title>
<polygon fill="lemonchiffon" stroke="black" stroke-width="2" points="1044,-306 1041,-310 1020,-310 1017,-306 945,-306 945,-270 1044,-270 1044,-306"/>
<text text-anchor="start" x="953" y="-284.3" font-family="Times New Roman,serif" font-size="14.00">newton_fractal</text>
</g>
<!-- manim\manimlib\shaders&#45;&gt;manim\manimlib\shaders\newton_fractal -->
<g id="edge29" class="edge"><title>manim\manimlib\shaders&#45;&gt;manim\manimlib\shaders\newton_fractal</title>
<path fill="none" stroke="black" d="M657.602,-288C717.11,-288 855.295,-288 934.642,-288"/>
<polygon fill="black" stroke="black" points="934.962,-291.5 944.962,-288 934.962,-284.5 934.962,-291.5"/>
</g>
<!-- manim\manimlib\shaders\quadratic_bezier_fill -->
<g id="node31" class="node"><title>manim\manimlib\shaders\quadratic_bezier_fill</title>
<polygon fill="lemonchiffon" stroke="black" stroke-width="2" points="1059.5,-252 1056.5,-256 1035.5,-256 1032.5,-252 929.5,-252 929.5,-216 1059.5,-216 1059.5,-252"/>
<text text-anchor="start" x="937.5" y="-230.3" font-family="Times New Roman,serif" font-size="14.00">quadratic_bezier_fill</text>
</g>
<!-- manim\manimlib\shaders&#45;&gt;manim\manimlib\shaders\quadratic_bezier_fill -->
<g id="edge30" class="edge"><title>manim\manimlib\shaders&#45;&gt;manim\manimlib\shaders\quadratic_bezier_fill</title>
<path fill="none" stroke="black" d="M657.602,-283.763C713.449,-275.489 838.591,-256.949 919.363,-244.983"/>
<polygon fill="black" stroke="black" points="920.095,-248.413 929.474,-243.485 919.069,-241.489 920.095,-248.413"/>
</g>
<!-- manim\manimlib\shaders\quadratic_bezier_stroke -->
<g id="node32" class="node"><title>manim\manimlib\shaders\quadratic_bezier_stroke</title>
<polygon fill="lemonchiffon" stroke="black" stroke-width="2" points="1070,-198 1067,-202 1046,-202 1043,-198 919,-198 919,-162 1070,-162 1070,-198"/>
<text text-anchor="start" x="927" y="-176.3" font-family="Times New Roman,serif" font-size="14.00">quadratic_bezier_stroke</text>
</g>
<!-- manim\manimlib\shaders&#45;&gt;manim\manimlib\shaders\quadratic_bezier_stroke -->
<g id="edge31" class="edge"><title>manim\manimlib\shaders&#45;&gt;manim\manimlib\shaders\quadratic_bezier_stroke</title>
<path fill="none" stroke="black" d="M657.602,-279.525C714.173,-262.763 841.849,-224.934 922.483,-201.042"/>
<polygon fill="black" stroke="black" points="923.968,-204.253 932.561,-198.056 921.979,-197.541 923.968,-204.253"/>
</g>
<!-- manim\manimlib\shaders\surface -->
<g id="node33" class="node"><title>manim\manimlib\shaders\surface</title>
<polygon fill="lemonchiffon" stroke="black" stroke-width="2" points="1023,-144 1020,-148 999,-148 996,-144 966,-144 966,-108 1023,-108 1023,-144"/>
<text text-anchor="start" x="974" y="-122.3" font-family="Times New Roman,serif" font-size="14.00">surface</text>
</g>
<!-- manim\manimlib\shaders&#45;&gt;manim\manimlib\shaders\surface -->
<g id="edge32" class="edge"><title>manim\manimlib\shaders&#45;&gt;manim\manimlib\shaders\surface</title>
<path fill="none" stroke="black" d="M657.822,-277.484C678.6,-269.903 703,-261 703,-261 703,-261 919,-153 919,-153 919,-153 937.548,-146.278 956.134,-139.542"/>
<polygon fill="black" stroke="black" points="957.55,-142.752 965.759,-136.054 955.165,-136.171 957.55,-142.752"/>
</g>
<!-- manim\manimlib\shaders\textured_surface -->
<g id="node34" class="node"><title>manim\manimlib\shaders\textured_surface</title>
<polygon fill="lemonchiffon" stroke="black" stroke-width="2" points="1049.5,-90 1046.5,-94 1025.5,-94 1022.5,-90 939.5,-90 939.5,-54 1049.5,-54 1049.5,-90"/>
<text text-anchor="start" x="947.5" y="-68.3" font-family="Times New Roman,serif" font-size="14.00">textured_surface</text>
</g>
<!-- manim\manimlib\shaders&#45;&gt;manim\manimlib\shaders\textured_surface -->
<g id="edge33" class="edge"><title>manim\manimlib\shaders&#45;&gt;manim\manimlib\shaders\textured_surface</title>
<path fill="none" stroke="black" d="M657.822,-277.484C678.6,-269.903 703,-261 703,-261 703,-261 919,-99 919,-99 919,-99 925.267,-96.7287 934.166,-93.5036"/>
<polygon fill="black" stroke="black" points="935.598,-96.7073 943.807,-90.0094 933.213,-90.1262 935.598,-96.7073"/>
</g>
<!-- manim\manimlib\shaders\true_dot -->
<g id="node35" class="node"><title>manim\manimlib\shaders\true_dot</title>
<polygon fill="lemonchiffon" stroke="black" stroke-width="2" points="1026.5,-36 1023.5,-40 1002.5,-40 999.5,-36 962.5,-36 962.5,-0 1026.5,-0 1026.5,-36"/>
<text text-anchor="start" x="970.5" y="-14.3" font-family="Times New Roman,serif" font-size="14.00">true_dot</text>
</g>
<!-- manim\manimlib\shaders&#45;&gt;manim\manimlib\shaders\true_dot -->
<g id="edge34" class="edge"><title>manim\manimlib\shaders&#45;&gt;manim\manimlib\shaders\true_dot</title>
<path fill="none" stroke="black" d="M657.822,-277.484C678.6,-269.903 703,-261 703,-261 703,-261 919,-45 919,-45 919,-45 935.319,-39.0859 952.681,-32.7935"/>
<polygon fill="black" stroke="black" points="954.128,-35.9919 962.337,-29.294 951.743,-29.4108 954.128,-35.9919"/>
</g>
</g>
</svg>
