<?xml version="1.0" encoding="UTF-8" standalone="no"?>
<svg
   xmlns:dc="http://purl.org/dc/elements/1.1/"
   xmlns:cc="http://creativecommons.org/ns#"
   xmlns:rdf="http://www.w3.org/1999/02/22-rdf-syntax-ns#"
   xmlns:svg="http://www.w3.org/2000/svg"
   xmlns="http://www.w3.org/2000/svg"
   xmlns:sodipodi="http://sodipodi.sourceforge.net/DTD/sodipodi-0.dtd"
   xmlns:inkscape="http://www.inkscape.org/namespaces/inkscape"
   version="1.0"
   width="1052.000000pt"
   height="1280.000000pt"
   viewBox="0 0 1052.000000 1280.000000"
   preserveAspectRatio="xMidYMid meet"
   id="svg6"
   sodipodi:docname="jarra.svg"
   inkscape:version="0.92.2 (5c3e80d, 2017-08-06)">
  <metadata
     id="metadata12">
    <rdf:RDF>
      <cc:Work
         rdf:about="">
        <dc:format>image/svg+xml</dc:format>
        <dc:type
           rdf:resource="http://purl.org/dc/dcmitype/StillImage" />
        <dc:title></dc:title>
      </cc:Work>
    </rdf:RDF>
  </metadata>
  <defs
     id="defs10" />
  <sodipodi:namedview
     pagecolor="#ffffff"
     bordercolor="#666666"
     borderopacity="1"
     objecttolerance="10"
     gridtolerance="10"
     guidetolerance="10"
     inkscape:pageopacity="0"
     inkscape:pageshadow="2"
     inkscape:window-width="1860"
     inkscape:window-height="1061"
     id="namedview8"
     showgrid="false"
     inkscape:zoom="0.13828125"
     inkscape:cx="-249.62712"
     inkscape:cy="853.33333"
     inkscape:window-x="-4"
     inkscape:window-y="-4"
     inkscape:window-maximized="1"
     inkscape:current-layer="svg6" />
  <g
     transform="translate(0.000000,1280.000000) scale(0.100000,-0.100000)"
     fill="#000000"
     stroke="none"
     id="g4">
    <path
       d="m 4110,12789 c -968.3722,-34.03 -1964.0694,4.885 -2902.5781,-268.244 C 717.66947,12378.14 21.563124,12135.532 0,11539.738 c -241.0008,-318.36 2473.4836,-1701.6806 912.8125,-766.55 558.2943,-252.596 898.1584,-865.0806 1020.375,-1446.6411 C 2088.1801,8705.5726 1479.1271,8352.4284 1186.4121,7901.7305 -229.1006,5958.2205 -332.07883,3065.6088 1149.5312,1129.5312 1723.2325,549.45394 1489.5831,674.64647 1992.9031,584.13016 3436.9974,66.7561 5020.7712,-184.62436 6530.7012,186.91553 7119.7042,315.30113 7692.3665,507.79668 8254,725 c 777.3911,1006.8037 1277.4273,2263.1553 1193.0312,3549.875 58.2487,564.5964 763.3758,2132.5326 621.4568,1581.0957 346.808,962.3664 568.798,1997.0056 375.553,3017.957 -137.019,865.3308 -490.9627,1876.4893 -1388.032,2204.9953 -306.2094,224.166 -1189.0186,-287.323 -739.507,295.692 477.0915,567.176 -1394.8214,1293.336 -910.0787,1183.99 C 6332.6527,12819.446 5208.4503,12800.578 4110,12789 Z m 1577,-939 c 125.0365,2.712 2011.3333,-146.66 1201.0156,-156.25 C 5488.8526,11407.939 4024.24,11493.883 2636,11800 c 1011.7739,96.773 2035.0537,64.7 3051,50 z m -3315,-950 c 1477.596,-349.035 3051.6829,-400.049 4535,-171 C 6516.2033,10000.402 6243.8865,9085.6811 6666.4219,8308.0938 7043.1686,7708.1893 7496.1195,7151.2613 7800,6506 c -131.0753,149.1163 -786.2744,106.5788 -592.0953,74 -1894.9676,0.7717 -3789.9464,-2.163 -5684.9047,3 -76.2892,-36.7032 669.1161,1059.698 492.4221,867.3408 374.3435,442.2688 841.6732,881.9644 854.6404,1506.003 C 2929.2371,9685.8424 2593.9218,10383.16 2164,10950 c 69.5018,-15.963 138.6317,-33.478 208,-50 z M 8733,9724 C 9254.5687,9342.7207 9123.7681,8590.6224 9079.7725,8027.9304 9109.9673,7393.0532 8574.5389,6586.401 8736.125,6764.375 8421.2692,7389.9042 8021.5565,7966.6129 7634,8547 c 281.3491,431.1714 514.5845,993.9287 1019,1193 z"
       id="path2"
       inkscape:connector-curvature="0" />
  </g>
</svg>
