<?xml version="1.0" encoding="UTF-8" standalone="no"?>
<!-- Generator: Adobe Illustrator 16.0.0, SVG Export Plug-In . SVG Version: 6.00 Build 0)  -->

<svg
   xmlns:dc="http://purl.org/dc/elements/1.1/"
   xmlns:cc="http://creativecommons.org/ns#"
   xmlns:rdf="http://www.w3.org/1999/02/22-rdf-syntax-ns#"
   xmlns:svg="http://www.w3.org/2000/svg"
   xmlns="http://www.w3.org/2000/svg"
   xmlns:sodipodi="http://sodipodi.sourceforge.net/DTD/sodipodi-0.dtd"
   xmlns:inkscape="http://www.inkscape.org/namespaces/inkscape"
   version="1.1"
   id="Layer_1"
   x="0px"
   y="0px"
   width="1161.526px"
   height="529.376px"
   viewBox="0 0 1161.526 529.376"
   enable-background="new 0 0 1161.526 529.376"
   xml:space="preserve"
   sodipodi:docname="test.svg"
   inkscape:version="0.92.4 (5da689c313, 2019-01-14)"><metadata
   id="metadata21"><rdf:RDF><cc:Work
       rdf:about=""><dc:format>image/svg+xml</dc:format><dc:type
         rdf:resource="http://purl.org/dc/dcmitype/StillImage" /></cc:Work></rdf:RDF></metadata><defs
   id="defs19" /><sodipodi:namedview
   pagecolor="#ffffff"
   bordercolor="#666666"
   borderopacity="1"
   objecttolerance="10"
   gridtolerance="10"
   guidetolerance="10"
   inkscape:pageopacity="0"
   inkscape:pageshadow="2"
   inkscape:window-width="1856"
   inkscape:window-height="1057"
   id="namedview17"
   showgrid="false"
   inkscape:zoom="0.6988725"
   inkscape:cx="506.19368"
   inkscape:cy="396.65802"
   inkscape:window-x="1656"
   inkscape:window-y="-8"
   inkscape:window-maximized="1"
   inkscape:current-layer="Layer_1" />
<title
   id="title2">Untitled</title>
<desc
   id="desc4">Generated by MuseScore 3.1.0</desc>





<path
   style="fill:none;stroke:#000000;stroke-width:2.18646097px;stroke-linecap:butt;stroke-linejoin:miter;stroke-opacity:1"
   d="M 50.040572,153.93727 H 1122.6602"
   id="path37"
   inkscape:connector-curvature="0" /><path
   style="fill:none;stroke:#000000;stroke-width:2.18646097px;stroke-linecap:butt;stroke-linejoin:miter;stroke-opacity:1"
   d="M 50.040572,209.52741 H 1120.8067"
   id="path39"
   inkscape:connector-curvature="0" /><path
   style="fill:none;stroke:#000000;stroke-width:2.18646097px;stroke-linecap:butt;stroke-linejoin:miter;stroke-opacity:1"
   d="M 50.040572,265.11756 H 1119.8801"
   id="path41"
   inkscape:connector-curvature="0" /><path
   style="fill:none;stroke:#000000;stroke-width:2.18646097px;stroke-linecap:butt;stroke-linejoin:miter;stroke-opacity:1"
   d="M 50.040572,320.7113 H 1118.9533"
   id="path43"
   inkscape:connector-curvature="0" /><path
   style="fill:none;stroke:#000000;stroke-width:2.18646097px;stroke-linecap:butt;stroke-linejoin:miter;stroke-opacity:1"
   d="M 50.040572,376.30144 H 1118.9533"
   id="path45"
   inkscape:connector-curvature="0" /><path
   id="path51"
   d="m 155.07762,264.95508 c 0,0 0.427,0 1.28751,0 0.56355,-0.13655 1.04691,-0.20375 1.45658,-0.20375 15.80347,0 28.78698,5.57705 38.9462,16.73118 10.16138,10.99371 15.24207,23.82983 15.24207,38.50836 0,18.21809 -7.54301,33.04401 -22.62469,44.46906 -3.94923,3.11691 -9.10796,5.65508 -15.47617,7.61888 0.72179,9.16866 1.08376,16.57293 1.08376,22.21719 0,1.12927 -0.14738,5.22808 -0.44217,12.2964 -0.56355,13.1179 -5.07853,24.47577 -13.54707,34.07142 -8.17159,9.46127 -18.33298,14.19083 -30.47982,14.19083 -11.42506,0 -21.15945,-4.01861 -29.19664,-12.05798 -8.061051,-8.19326 -12.088327,-18.07288 -12.088327,-29.63232 0,-6.07559 2.334433,-11.23431 7.007631,-15.47833 4.788076,-4.22236 10.352126,-6.33354 16.698656,-6.33354 5.64426,0 10.3738,2.18922 14.18867,6.5698 3.95141,4.08797 5.92818,9.16648 5.92818,15.23991 0,5.48603 -1.97677,10.20474 -5.92818,14.15614 -3.95141,3.95141 -8.68097,5.92603 -14.18867,5.92603 -2.25856,0 -4.43693,-0.41833 -6.53727,-1.25283 6.20563,9.16649 14.46177,13.75083 24.75754,13.75083 9.73004,0 17.70006,-3.95142 23.91003,-11.85425 6.5026,-8.17375 10.03568,-17.70221 10.6014,-28.58538 0.27094,-6.77354 0.40533,-10.64692 0.40533,-11.61581 0,-7.90281 -0.28178,-14.39457 -0.84534,-19.4731 -7.04448,1.12928 -13.32165,1.69285 -18.8315,1.69285 -19.62267,0 -36.34301,-7.76627 -50.161011,-23.30097 C 82.697246,336.93662 75.92371,318.30886 75.92371,296.72458 c 0,-4.51713 0.418333,-9.09929 1.255,-13.75081 0.858341,-3.81486 1.918265,-7.98302 3.181937,-12.50015 0.70011,-2.55119 2.607538,-6.64566 5.726617,-12.29207 1.129279,-1.69285 2.397292,-3.81052 3.810523,-6.35086 1.413224,-2.54036 2.395118,-4.22886 2.963012,-5.06336 1.400228,-2.82213 4.142149,-6.63915 8.230121,-11.44674 1.12928,-1.26584 2.29758,-2.66822 3.50489,-4.21584 1.20731,-1.54762 2.23256,-2.81779 3.08224,-3.81052 0.84533,-0.9949 1.47825,-1.77087 1.89658,-2.33877 0.41617,-0.56356 3.59593,-4.29821 9.53064,-11.2083 1.40022,-1.42191 2.77227,-2.93918 4.11614,-4.55615 1.34387,-1.61698 2.43846,-2.88499 3.2838,-3.81051 0.84969,-0.92771 1.48693,-1.59098 1.91393,-1.99847 -5.08069,-16.79838 -8.26262,-30.21105 -9.54797,-40.23589 -0.97105,-8.03937 -1.45658,-19.04609 -1.45658,-33.02234 0,-12.28123 2.82213,-23.78648 8.46422,-34.509248 5.48818,-11.13244 13.17424,-20.231736 23.06686,-27.297887 0.56355,-0.429172 1.26367,-0.643757 2.10035,-0.643757 0.99271,0 1.70365,0.214585 2.13284,0.643757 7.60803,9.166489 14.16482,21.087905 19.67467,35.764255 5.64425,14.67635 8.46638,28.01967 8.46638,40.03212 0,13.54708 -3.23829,26.24665 -9.71705,38.10088 -7.33925,12.55216 -16.79836,25.53569 -28.38381,38.9462 2.96085,9.30521 6.91225,23.90136 11.85857,43.79496 m 17.984,98.45144 c 7.3371,-2.68341 13.05936,-7.26991 17.17118,-13.74866 4.51497,-6.20997 6.77354,-13.19809 6.77354,-20.96437 0,-10.02483 -3.38785,-18.92036 -10.16139,-26.6888 -6.9296,-8.03721 -15.76012,-12.55217 -26.48289,-13.54707 6.07124,29.78188 10.30444,54.76484 12.69956,74.9489 M 91.167957,314.50267 c 0,13.97625 5.644254,26.25748 16.932763,36.84803 11.55944,10.29578 24.54294,15.44367 38.95053,15.44367 5.91519,0 11.69599,-0.42917 17.34023,-1.28752 -2.25855,-21.44988 -6.70849,-47.13296 -13.3433,-77.04923 -8.03938,0.85834 -14.45093,3.6783 -19.23685,8.46638 -4.67536,4.94413 -7.01196,10.52119 -7.01196,16.73117 0,10.72277 5.72662,19.40374 17.17118,26.04505 0.97105,0.99274 1.45876,2.05482 1.45876,3.1841 0,1.12929 -0.48771,2.17837 -1.45876,3.14943 -0.85834,0.99274 -1.91826,1.49126 -3.18409,1.49126 -0.1344,0 -0.76732,-0.13656 -1.8966,-0.40749 -8.05889,-4.38059 -14.26886,-10.02484 -18.62559,-16.93493 -4.10965,-7.36093 -6.16446,-14.77605 -6.16446,-22.25187 0,-9.73221 3.03454,-18.54973 9.11013,-26.45039 6.34436,-7.90282 14.59399,-12.98133 24.75754,-15.23991 -3.95141,-15.80345 -7.19186,-28.15406 -9.71922,-37.05178 -2.25856,2.55336 -4.97448,5.62259 -8.14558,9.21202 -3.17326,3.58943 -5.04167,5.74612 -5.60523,6.46791 -5.08068,6.6153 -8.96491,11.76318 -11.65048,15.44366 -4.80975,6.63698 -8.345,12.35059 -10.60356,17.1365 -2.392959,5.37331 -4.501959,11.23214 -6.333526,17.57651 -1.827232,6.07776 -2.741927,12.56734 -2.741927,19.47743 M 161.85114,99.238662 c -10.59055,5.217238 -18.91171,12.690878 -24.96344,22.423098 -6.20782,10.02484 -9.31173,20.81698 -9.31173,32.37859 0,10.16137 2.53819,23.85368 7.61888,41.08122 10.16138,-12.28341 17.78025,-23.63909 22.86313,-34.07143 5.35162,-11.01755 8.02419,-22.52499 8.02419,-34.51143 0,-9.03428 -1.41107,-18.13139 -4.23103,-27.300048"
   inkscape:connector-curvature="0"
   style="stroke-width:2.16753101" /></svg>