<?xml version="1.0" encoding="UTF-8" standalone="no"?>
<!-- Generator: Adobe Illustrator 16.0.0, SVG Export Plug-In . SVG Version: 6.00 Build 0)  -->

<svg
   xmlns:dc="http://purl.org/dc/elements/1.1/"
   xmlns:cc="http://creativecommons.org/ns#"
   xmlns:rdf="http://www.w3.org/1999/02/22-rdf-syntax-ns#"
   xmlns:svg="http://www.w3.org/2000/svg"
   xmlns="http://www.w3.org/2000/svg"
   xmlns:sodipodi="http://sodipodi.sourceforge.net/DTD/sodipodi-0.dtd"
   xmlns:inkscape="http://www.inkscape.org/namespaces/inkscape"
   version="1.1"
   id="Layer_1"
   x="0px"
   y="0px"
   width="176px"
   height="204.641px"
   viewBox="101.1 504.7 176 204.641"
   enable-background="new 101.1 504.7 176 204.641"
   xml:space="preserve"
   sodipodi:docname="minim.svg"
   inkscape:version="0.92.4 (5da689c313, 2019-01-14)"><metadata
   id="metadata17"><rdf:RDF><cc:Work
       rdf:about=""><dc:format>image/svg+xml</dc:format><dc:type
         rdf:resource="http://purl.org/dc/dcmitype/StillImage" /></cc:Work></rdf:RDF></metadata><defs
   id="defs15" /><sodipodi:namedview
   pagecolor="#ffffff"
   bordercolor="#666666"
   borderopacity="1"
   objecttolerance="10"
   gridtolerance="10"
   guidetolerance="10"
   inkscape:pageopacity="0"
   inkscape:pageshadow="2"
   inkscape:window-width="1856"
   inkscape:window-height="1057"
   id="namedview13"
   showgrid="false"
   inkscape:zoom="13.04741"
   inkscape:cx="60.668348"
   inkscape:cy="123.12761"
   inkscape:window-x="1656"
   inkscape:window-y="-8"
   inkscape:window-maximized="1"
   inkscape:current-layer="Layer_1" />
<title
   id="title2">Untitled</title>
<desc
   id="desc4">Generated by MuseScore 3.1.0</desc>
<path
   d="M189.166,558.885c0-1.104-0.422-2.046-1.265-2.827c-0.854-0.844-1.834-1.266-2.938-1.266c-1.948,0-5.885,1.953-11.812,5.859  c-6.125,3.969-9.87,6.802-11.235,8.5c-0.718,0.906-1.078,1.849-1.078,2.828c0,1.104,0.427,2.047,1.281,2.828  c0.782,0.844,1.756,1.266,2.922,1.266c1.886,0,5.86-1.953,11.922-5.859c5.99-3.906,9.698-6.739,11.125-8.5  C188.808,560.87,189.166,559.927,189.166,558.885 M183.994,551.667c5.594,0,8.391,2.406,8.391,7.218  c0,2.345-0.682,5.079-2.047,8.204c-1.364,3.063-3.187,5.406-5.469,7.031c-5.01,3.385-11.291,5.078-18.843,5.078  c-5.604,0-8.407-2.406-8.407-7.219c0-2.146,0.683-4.85,2.047-8.109c1.302-3.125,3.125-5.5,5.469-7.125  C170.156,553.359,176.443,551.667,183.994,551.667"
   id="path6" />
<path
   d="M202.752,556.94c-1.108-1.109-1.664-2.445-1.664-4.008s0.556-2.898,1.664-4.009c1.11-1.108,2.446-1.664,4.008-1.664  c1.563,0,2.896,0.556,4,1.664c1.104,1.11,1.656,2.446,1.656,4.009s-0.552,2.898-1.656,4.008c-1.104,1.108-2.437,1.664-4,1.664  C205.198,558.604,203.863,558.049,202.752,556.94"
   id="path8" />

<path
   style="fill:none;stroke:#000000;stroke-width:1px;stroke-linecap:butt;stroke-linejoin:miter;stroke-opacity:1"
   d="m 159.239,569.35303 v 83.57995"
   id="path19"
   inkscape:connector-curvature="0" /></svg>