<?xml version="1.0" encoding="UTF-8" standalone="no"?>
<svg
   xmlns:dc="http://purl.org/dc/elements/1.1/"
   xmlns:cc="http://creativecommons.org/ns#"
   xmlns:rdf="http://www.w3.org/1999/02/22-rdf-syntax-ns#"
   xmlns:svg="http://www.w3.org/2000/svg"
   xmlns="http://www.w3.org/2000/svg"
   id="svg42"
   version="1.2"
   viewBox="0 0 17.865 76.375002"
   height="76.375"
   width="17.865">
  <metadata
     id="metadata48">
    <rdf:RDF>
      <cc:Work
         rdf:about="">
        <dc:format>image/svg+xml</dc:format>
        <dc:type
           rdf:resource="http://purl.org/dc/dcmitype/StillImage" />
        <dc:title>Untitled</dc:title>
      </cc:Work>
    </rdf:RDF>
  </metadata>
  <defs
     id="defs46" />
  <title
     id="title2">Untitled</title>
  <desc
     id="desc4">Generated by MuseScore 3.2.3</desc>
  <path
     id="path26"
     d="M -0.4,0.687 C 0.443,0.229 1.29,0 2.139,0 2.988,0 3.834,0.229 4.678,0.687 L 4.381,18.953 15.037,17 h 0.391 c 1.166,0 1.75,0.552 1.75,1.656 l 0.687,57.031 c -0.844,0.459 -1.69,0.688 -2.539,0.688 -0.849,0 -1.695,-0.229 -2.539,-0.688 L 13.084,57.422 2.537,59.375 H 2.146 c -1.177,0 -1.765,-0.552 -1.765,-1.656 L -0.4,0.687 M 13.178,47.656 13.475,26.953 4.287,28.719 3.99,49.422 13.178,47.656"
     class="Accidental" />
</svg>
