<?xml version="1.0" encoding="UTF-8" standalone="no"?>
<svg width="2977.2px" height="4208.4px" viewBox="0 0 2977.2 4208.4"
 xmlns="http://www.w3.org/2000/svg" xmlns:xlink="http://www.w3.org/1999/xlink" version="1.2" baseProfile="tiny">
<title>Untitled</title>
<desc>Generated by MuseScore 3.2.3</desc>
<polyline class="StaffLines" fill="none" stroke="#000000" stroke-width="2.00" stroke-linejoin="bevel" points="141.732,566.732 1745.96,566.732"/>
<polyline class="StaffLines" fill="none" stroke="#000000" stroke-width="2.00" stroke-linejoin="bevel" points="141.732,591.732 1745.96,591.732"/>
<polyline class="StaffLines" fill="none" stroke="#000000" stroke-width="2.00" stroke-linejoin="bevel" points="141.732,616.732 1745.96,616.732"/>
<polyline class="StaffLines" fill="none" stroke="#000000" stroke-width="2.00" stroke-linejoin="bevel" points="141.732,641.732 1745.96,641.732"/>
<polyline class="StaffLines" fill="none" stroke="#000000" stroke-width="2.00" stroke-linejoin="bevel" points="141.732,666.732 1745.96,666.732"/>
<path class="Text" d="M1407.33,149.576 L1400.86,149.576 C1394.13,149.576 1389.63,150.482 1387.35,152.295 C1385.07,154.107 1383.22,158.243 1381.78,164.701 L1378.89,164.701 L1379.61,144.295 L1447.29,144.295 L1448.01,164.701 L1445.12,164.701 C1443.77,158.159 1441.95,154.003 1439.67,152.232 C1437.39,150.461 1432.85,149.576 1426.04,149.576 L1419.58,149.576 L1419.58,210.685 C1419.58,215.071 1420.26,217.902 1421.62,219.178 C1422.97,220.454 1426.13,221.211 1431.09,221.451 L1431.09,223.732 L1396.04,223.732 L1396.04,221.451 C1401.01,221.128 1404.14,220.31 1405.41,218.998 C1406.69,217.685 1407.33,214.477 1407.33,209.373 L1407.33,149.576 M1457.25,176.576 C1455.49,176.576 1453.81,176.696 1452.22,176.935 L1452.22,175.139 C1457.81,173.534 1464.01,171.331 1470.81,168.529 L1471.29,168.889 L1471.29,211.498 C1471.29,215.81 1471.79,218.547 1472.79,219.709 C1473.79,220.87 1476.25,221.612 1480.17,221.935 L1480.17,223.732 L1451.73,223.732 L1451.73,221.935 C1455.89,221.696 1458.51,220.974 1459.59,219.771 C1460.67,218.568 1461.22,215.81 1461.22,211.498 L1461.22,183.654 C1461.22,181.019 1460.91,179.18 1460.31,178.139 C1459.71,177.097 1458.69,176.576 1457.25,176.576 M1465.17,141.779 C1466.93,141.779 1468.41,142.378 1469.61,143.576 C1470.81,144.774 1471.4,146.211 1471.4,147.889 C1471.4,149.649 1470.81,151.11 1469.61,152.271 C1468.41,153.433 1466.93,154.014 1465.17,154.014 C1463.49,154.014 1462.07,153.415 1460.91,152.217 C1459.75,151.019 1459.17,149.579 1459.17,147.896 C1459.17,146.214 1459.77,144.774 1460.97,143.576 C1462.16,142.378 1463.57,141.779 1465.17,141.779 M1514.25,169.732 L1514.25,173.342 L1502.12,173.342 L1502.12,207.654 C1502.12,211.415 1502.6,214.154 1503.57,215.873 C1504.53,217.592 1506.13,218.451 1508.37,218.451 C1510.85,218.451 1513.25,217.05 1515.58,214.248 L1517.12,215.576 C1513.29,221.816 1508.49,224.935 1502.73,224.935 C1495.61,224.935 1492.04,219.831 1492.04,209.623 L1492.04,173.342 L1485.69,173.342 C1485.37,173.112 1485.22,172.847 1485.22,172.545 C1485.22,172.17 1485.34,171.87 1485.58,171.646 C1485.82,171.422 1486.27,171.105 1486.95,170.693 C1487.63,170.282 1488.45,169.691 1489.41,168.92 C1490.38,168.149 1491.7,166.751 1493.37,164.724 C1495.05,162.698 1496.89,160.264 1498.89,157.42 C1500.17,155.555 1500.97,154.42 1501.29,154.014 C1501.85,154.014 1502.12,154.54 1502.12,155.592 L1502.12,169.732 L1514.25,169.732 M1518.33,148.982 L1518.33,147.06 C1526.24,145.133 1532.6,143.373 1537.4,141.779 L1537.89,142.014 L1537.89,213.654 C1537.89,216.935 1538.43,219.076 1539.51,220.076 C1540.58,221.076 1543.04,221.696 1546.89,221.935 L1546.89,223.732 L1518.56,223.732 L1518.56,221.935 C1522.32,221.612 1524.8,220.891 1526,219.771 C1527.2,218.652 1527.79,216.493 1527.79,213.295 L1527.79,156.06 C1527.79,153.258 1527.44,151.336 1526.72,150.295 C1526,149.253 1524.68,148.732 1522.76,148.732 C1521.16,148.732 1519.68,148.816 1518.33,148.982 M1559.72,190.498 C1559.87,195.446 1560.55,199.706 1561.76,203.279 C1562.96,206.852 1564.52,209.521 1566.44,211.287 C1568.35,213.053 1570.29,214.308 1572.26,215.053 C1574.22,215.797 1576.28,216.17 1578.44,216.17 C1582.28,216.17 1585.62,215.227 1588.46,213.342 C1591.3,211.456 1594.15,208.279 1597.03,203.81 L1598.95,204.623 C1596.47,211.196 1593.03,216.224 1588.63,219.709 C1584.23,223.193 1579.19,224.935 1573.51,224.935 C1566.64,224.935 1561.18,222.503 1557.14,217.639 C1553.1,212.774 1551.08,206.201 1551.08,197.92 C1551.08,189.076 1553.42,181.967 1558.1,176.592 C1562.78,171.217 1568.8,168.529 1576.15,168.529 C1582.24,168.529 1586.96,170.349 1590.32,173.99 C1593.68,177.631 1595.79,183.133 1596.67,190.498 L1559.72,190.498 M1559.95,186.889 L1584.44,186.889 C1583.63,181.691 1582.39,178.092 1580.72,176.092 C1579.04,174.092 1576.36,173.092 1572.67,173.092 C1565.47,173.092 1561.23,177.691 1559.95,186.889"/>
<path class="Text" d="M2592.56,359.232 C2592.56,353.024 2594.48,347.982 2598.33,344.107 C2602.17,340.232 2606.95,338.295 2612.67,338.295 C2615.22,338.295 2617.62,338.607 2619.87,339.232 C2622.11,339.857 2623.41,340.17 2623.76,340.17 C2625.09,340.17 2625.92,339.545 2626.28,338.295 L2627.54,338.295 L2628.09,351.732 L2626.7,351.732 C2624.5,344.295 2620.21,340.576 2613.81,340.576 C2609.45,340.576 2605.97,342.196 2603.4,345.435 C2600.82,348.675 2599.53,353.014 2599.53,358.451 C2599.53,361.93 2599.98,364.941 2600.88,367.482 C2601.78,370.024 2602.99,371.943 2604.51,373.24 C2606.02,374.537 2607.59,375.477 2609.21,376.06 C2610.83,376.644 2612.56,376.935 2614.4,376.935 C2619.12,376.935 2623.58,374.915 2627.78,370.873 L2628.87,371.951 C2627.03,374.389 2624.69,376.269 2621.85,377.592 C2619.01,378.915 2615.89,379.576 2612.48,379.576 C2606.57,379.576 2601.77,377.717 2598.08,373.998 C2594.4,370.279 2592.56,365.357 2592.56,359.232 M2645.42,351.139 C2649.25,351.139 2652.41,352.417 2654.89,354.974 C2657.37,357.532 2658.61,360.774 2658.61,364.701 C2658.61,368.857 2657.33,372.334 2654.77,375.131 C2652.21,377.928 2649.06,379.326 2645.29,379.326 C2641.53,379.326 2638.4,377.977 2635.9,375.279 C2633.4,372.581 2632.15,369.211 2632.15,365.17 C2632.15,361.055 2633.38,357.688 2635.84,355.068 C2638.3,352.448 2641.49,351.139 2645.42,351.139 M2637.56,362.264 C2637.56,366.503 2638.34,370.107 2639.9,373.076 C2641.45,376.045 2643.49,377.529 2646.01,377.529 C2648.25,377.529 2650.01,376.579 2651.29,374.678 C2652.58,372.777 2653.22,370.144 2653.22,366.779 C2653.22,362.696 2652.42,359.368 2650.82,356.795 C2649.22,354.222 2647.16,352.935 2644.64,352.935 C2642.51,352.935 2640.8,353.787 2639.51,355.49 C2638.21,357.193 2637.56,359.451 2637.56,362.264 M2660.89,354.967 L2660.89,353.951 C2663.76,353.118 2666.56,352.18 2669.28,351.139 L2669.7,351.264 L2669.7,355.873 C2672.18,353.946 2674.02,352.675 2675.22,352.06 C2676.43,351.446 2677.69,351.139 2679.01,351.139 C2682.17,351.139 2684.29,352.852 2685.37,356.279 C2688.49,352.852 2691.74,351.139 2695.14,351.139 C2699.78,351.139 2702.11,354.727 2702.11,361.904 L2702.11,374.185 C2702.11,376.415 2702.97,377.592 2704.69,377.717 L2706.25,377.826 L2706.25,378.732 L2693.11,378.732 L2693.11,377.826 C2694.87,377.628 2695.97,377.292 2696.4,376.818 C2696.84,376.344 2697.06,375.248 2697.06,373.529 L2697.06,360.935 C2697.06,358.467 2696.74,356.756 2696.1,355.803 C2695.46,354.849 2694.28,354.373 2692.56,354.373 C2689.92,354.373 2687.75,355.586 2686.03,358.014 L2686.03,373.06 C2686.03,374.925 2686.32,376.178 2686.9,376.818 C2687.47,377.459 2688.62,377.795 2690.34,377.826 L2690.34,378.732 L2676.9,378.732 L2676.9,377.826 C2678.62,377.711 2679.73,377.396 2680.23,376.881 C2680.73,376.365 2680.98,375.269 2680.98,373.592 L2680.98,360.639 C2680.98,356.461 2679.66,354.373 2677.03,354.373 C2675.9,354.373 2674.65,354.652 2673.27,355.209 C2671.89,355.766 2670.78,356.665 2669.95,357.904 L2669.95,374.732 C2669.95,375.889 2670.23,376.675 2670.79,377.092 C2671.34,377.508 2672.42,377.753 2674.03,377.826 L2674.03,378.732 L2660.7,378.732 L2660.7,377.826 C2662.39,377.795 2663.51,377.501 2664.07,376.943 C2664.63,376.386 2664.9,375.29 2664.9,373.654 L2664.9,358.56 C2664.9,357.123 2664.76,356.126 2664.46,355.568 C2664.16,355.011 2663.61,354.732 2662.81,354.732 C2662.21,354.732 2661.57,354.81 2660.89,354.967 M2707.69,355.154 L2707.69,354.201 C2710.21,353.441 2713.09,352.42 2716.33,351.139 L2716.69,351.248 L2716.69,355.873 C2719.24,352.717 2722.12,351.139 2725.33,351.139 C2728.24,351.139 2730.64,352.342 2732.52,354.748 C2734.4,357.154 2735.34,360.227 2735.34,363.967 C2735.34,368.31 2734.13,371.956 2731.71,374.904 C2729.29,377.852 2726.3,379.326 2722.75,379.326 C2721.47,379.326 2720.4,379.154 2719.54,378.81 C2718.68,378.467 2717.73,377.821 2716.69,376.873 L2716.69,386.217 C2716.69,388.081 2717.01,389.279 2717.65,389.81 C2718.29,390.342 2719.73,390.628 2721.97,390.67 L2721.97,391.748 L2707.44,391.748 L2707.44,390.732 C2709.2,390.576 2710.34,390.237 2710.86,389.717 C2711.38,389.196 2711.64,388.154 2711.64,386.592 L2711.64,358.514 C2711.64,357.118 2711.48,356.198 2711.16,355.756 C2710.84,355.313 2710.19,355.092 2709.19,355.092 C2708.54,355.092 2708.04,355.112 2707.69,355.154 M2716.69,358.717 L2716.69,373.545 C2716.69,374.43 2717.38,375.316 2718.76,376.201 C2720.14,377.086 2721.52,377.529 2722.92,377.529 C2725.08,377.529 2726.83,376.495 2728.17,374.428 C2729.51,372.36 2730.19,369.654 2730.19,366.31 C2730.19,362.81 2729.51,360.006 2728.17,357.896 C2726.83,355.787 2725.03,354.732 2722.79,354.732 C2721.4,354.732 2720.03,355.175 2718.69,356.06 C2717.35,356.946 2716.69,357.831 2716.69,358.717 M2751.59,351.139 C2755.42,351.139 2758.58,352.417 2761.06,354.974 C2763.54,357.532 2764.78,360.774 2764.78,364.701 C2764.78,368.857 2763.5,372.334 2760.94,375.131 C2758.39,377.928 2755.23,379.326 2751.47,379.326 C2747.71,379.326 2744.58,377.977 2742.08,375.279 C2739.58,372.581 2738.33,369.211 2738.33,365.17 C2738.33,361.055 2739.56,357.688 2742.01,355.068 C2744.47,352.448 2747.66,351.139 2751.59,351.139 M2743.73,362.264 C2743.73,366.503 2744.51,370.107 2746.07,373.076 C2747.63,376.045 2749.66,377.529 2752.19,377.529 C2754.42,377.529 2756.19,376.579 2757.47,374.678 C2758.75,372.777 2759.39,370.144 2759.39,366.779 C2759.39,362.696 2758.59,359.368 2756.99,356.795 C2755.39,354.222 2753.33,352.935 2750.81,352.935 C2748.69,352.935 2746.97,353.787 2745.68,355.49 C2744.38,357.193 2743.73,359.451 2743.73,362.264 M2782.36,352.326 C2782.4,352.326 2782.72,352.128 2783.33,351.732 L2783.98,351.732 L2784.22,359.889 L2783.33,359.889 C2782.64,357.211 2781.79,355.313 2780.79,354.193 C2779.79,353.073 2778.44,352.514 2776.72,352.514 C2775.36,352.514 2774.25,352.894 2773.39,353.654 C2772.52,354.415 2772.09,355.394 2772.09,356.592 C2772.09,358.31 2772.96,359.67 2774.69,360.67 L2781.15,364.514 C2782.96,365.597 2784.25,366.688 2785.03,367.787 C2785.81,368.886 2786.2,370.175 2786.2,371.654 C2786.2,373.737 2785.37,375.537 2783.71,377.053 C2782.05,378.568 2780.06,379.326 2777.73,379.326 C2776.73,379.326 2775.39,379.146 2773.72,378.787 C2772.04,378.428 2771,378.248 2770.59,378.248 C2770,378.248 2769.54,378.487 2769.22,378.967 L2768.44,378.967 L2768.44,369.607 L2769.4,369.607 C2770.04,372.409 2770.8,374.389 2771.69,375.545 C2772.96,377.191 2774.73,378.014 2777.01,378.014 C2778.53,378.014 2779.75,377.623 2780.65,376.842 C2781.55,376.06 2782,375.008 2782,373.685 C2782,371.894 2780.96,370.394 2778.87,369.185 L2775.4,367.217 C2772.84,365.779 2771.03,364.399 2769.97,363.076 C2768.9,361.753 2768.37,360.253 2768.37,358.576 C2768.37,356.409 2769.14,354.639 2770.69,353.264 C2772.23,351.889 2774.18,351.201 2776.54,351.201 C2777.86,351.201 2779.09,351.389 2780.26,351.764 C2781.42,352.139 2782.12,352.326 2782.36,352.326 M2794.11,362.107 C2794.19,364.586 2794.53,366.719 2795.13,368.506 C2795.73,370.292 2796.51,371.626 2797.47,372.506 C2798.44,373.386 2799.41,374.014 2800.39,374.389 C2801.37,374.764 2802.39,374.951 2803.47,374.951 C2805.39,374.951 2807.07,374.48 2808.48,373.537 C2809.9,372.594 2811.33,371.003 2812.78,368.764 L2813.73,369.185 C2812.49,372.467 2810.77,374.977 2808.58,376.717 C2806.38,378.456 2803.86,379.326 2801.01,379.326 C2797.58,379.326 2794.85,378.11 2792.83,375.678 C2790.81,373.245 2789.79,369.961 2789.79,365.826 C2789.79,361.409 2790.96,357.857 2793.3,355.17 C2795.64,352.482 2798.65,351.139 2802.34,351.139 C2805.37,351.139 2807.73,352.047 2809.41,353.865 C2811.09,355.683 2812.15,358.43 2812.59,362.107 L2794.11,362.107 M2794.23,360.31 L2806.47,360.31 C2806.07,357.717 2805.45,355.92 2804.62,354.92 C2803.78,353.92 2802.44,353.42 2800.59,353.42 C2797,353.42 2794.88,355.717 2794.23,360.31 M2832.98,357.014 C2832.38,357.014 2831.64,356.633 2830.76,355.873 C2829.88,355.112 2829.29,354.732 2829.01,354.732 C2828.22,354.732 2827.33,355.318 2826.33,356.49 C2825.33,357.662 2824.83,358.727 2824.83,359.685 L2824.83,373.295 C2824.83,375.034 2825.16,376.206 2825.84,376.81 C2826.52,377.415 2827.88,377.753 2829.92,377.826 L2829.92,378.732 L2815.51,378.732 L2815.51,377.826 C2817.44,377.472 2818.63,377.071 2819.09,376.623 C2819.55,376.175 2819.78,375.185 2819.78,373.654 L2819.78,358.545 C2819.78,357.211 2819.63,356.274 2819.33,355.732 C2819.02,355.191 2818.49,354.92 2817.73,354.92 C2817.1,354.92 2816.4,354.998 2815.64,355.154 L2815.64,354.217 C2818.84,353.227 2821.79,352.201 2824.51,351.139 L2824.83,351.248 L2824.83,356.607 C2826.31,354.545 2827.56,353.118 2828.6,352.326 C2829.64,351.534 2830.77,351.139 2832.01,351.139 C2833.06,351.139 2833.87,351.417 2834.45,351.974 C2835.03,352.532 2835.33,353.31 2835.33,354.31 C2835.33,355.154 2835.12,355.816 2834.69,356.295 C2834.27,356.774 2833.7,357.014 2832.98,357.014"/>
<polyline class="BarLine" fill="none" stroke="#000000" stroke-width="4.00" stroke-linejoin="bevel" points="1721.46,565.732 1721.46,667.732"/>
<polyline class="BarLine" fill="none" stroke="#000000" stroke-width="12.50" stroke-linejoin="bevel" points="1739.71,565.732 1739.71,667.732"/>
<polyline class="Stem" fill="none" stroke="#000000" stroke-width="3.25" stroke-linecap="round" stroke-linejoin="bevel" points="804.084,621.428 804.084,704.232"/>
<polyline class="Stem" fill="none" stroke="#000000" stroke-width="3.25" stroke-linecap="round" stroke-linejoin="bevel" points="1069.05,558.928 1069.05,641.732"/>
<polyline class="Stem" fill="none" stroke="#000000" stroke-width="3.25" stroke-linecap="round" stroke-linejoin="bevel" points="1527.62,662.037 1527.62,591.732"/>
<polyline class="Stem" fill="none" stroke="#000000" stroke-width="3.25" stroke-linecap="round" stroke-linejoin="bevel" points="1639.19,662.037 1639.19,591.732"/>
<path class="Note" d="M824.428,602.967 C827.553,602.967 830.194,603.779 832.35,605.404 C834.36,607.165 835.365,609.378 835.365,612.045 C835.365,616.534 833.058,620.732 828.444,624.639 C823.756,628.545 818.74,630.498 813.397,630.498 C810.272,630.498 807.636,629.685 805.49,628.06 C803.47,626.3 802.459,624.086 802.459,621.42 C802.459,616.93 804.803,612.732 809.49,608.826 C814.053,604.92 819.032,602.967 824.428,602.967"/>
<path class="Note" d="M1089.4,540.467 C1092.52,540.467 1095.16,541.279 1097.32,542.904 C1099.33,544.665 1100.34,546.878 1100.34,549.545 C1100.34,554.034 1098.03,558.232 1093.41,562.139 C1088.73,566.045 1083.71,567.998 1078.37,567.998 C1075.24,567.998 1072.61,567.185 1070.46,565.56 C1068.44,563.8 1067.43,561.586 1067.43,558.92 C1067.43,554.43 1069.77,550.232 1074.46,546.326 C1079.02,542.42 1084,540.467 1089.4,540.467"/>
<path class="Note" d="M1518.3,652.967 C1521.42,652.967 1524.07,653.779 1526.22,655.404 C1528.23,657.165 1529.24,659.378 1529.24,662.045 C1529.24,666.534 1526.93,670.732 1522.32,674.639 C1517.63,678.545 1512.61,680.498 1507.27,680.498 C1504.14,680.498 1501.51,679.685 1499.36,678.06 C1497.34,676.3 1496.33,674.086 1496.33,671.42 C1496.33,666.93 1498.67,662.732 1503.36,658.826 C1507.92,654.92 1512.9,652.967 1518.3,652.967"/>
<path class="Note" d="M1629.87,652.967 C1632.99,652.967 1635.63,653.779 1637.79,655.404 C1639.8,657.165 1640.8,659.378 1640.8,662.045 C1640.8,666.534 1638.5,670.732 1633.88,674.639 C1629.19,678.545 1624.18,680.498 1618.83,680.498 C1615.71,680.498 1613.07,679.685 1610.93,678.06 C1608.91,676.3 1607.9,674.086 1607.9,671.42 C1607.9,666.93 1610.24,662.732 1614.93,658.826 C1619.49,654.92 1624.47,652.967 1629.87,652.967"/>
<path class="Clef" d="M198.451,616.139 C198.451,616.139 198.649,616.139 199.045,616.139 C199.305,616.076 199.529,616.045 199.717,616.045 C207.008,616.045 212.998,618.618 217.685,623.764 C222.373,628.836 224.717,634.758 224.717,641.529 C224.717,649.935 221.237,656.774 214.279,662.045 C212.456,663.482 210.076,664.654 207.139,665.56 C207.472,669.79 207.639,673.206 207.639,675.81 C207.639,676.331 207.571,678.222 207.435,681.482 C207.175,687.534 205.092,692.774 201.185,697.201 C197.415,701.566 192.727,703.748 187.123,703.748 C181.852,703.748 177.362,701.894 173.654,698.185 C169.935,694.404 168.076,689.847 168.076,684.514 C168.076,681.711 169.154,679.331 171.31,677.373 C173.519,675.425 176.086,674.451 179.014,674.451 C181.618,674.451 183.8,675.461 185.56,677.482 C187.383,679.368 188.295,681.711 188.295,684.514 C188.295,687.045 187.383,689.222 185.56,691.045 C183.737,692.868 181.555,693.779 179.014,693.779 C177.972,693.779 176.967,693.586 175.998,693.201 C178.862,697.43 182.67,699.545 187.42,699.545 C191.909,699.545 195.586,697.722 198.451,694.076 C201.451,690.305 203.081,685.909 203.342,680.889 C203.467,677.764 203.529,675.977 203.529,675.529 C203.529,671.883 203.399,668.889 203.139,666.545 C199.889,667.066 196.993,667.326 194.451,667.326 C185.399,667.326 177.685,663.743 171.31,656.576 C165.06,649.347 161.935,640.753 161.935,630.795 C161.935,628.711 162.128,626.597 162.514,624.451 C162.909,622.691 163.399,620.769 163.982,618.685 C164.305,617.508 165.185,615.618 166.623,613.014 C167.144,612.232 167.73,611.256 168.381,610.084 C169.032,608.912 169.487,608.133 169.748,607.748 C170.394,606.446 171.659,604.685 173.545,602.467 C174.066,601.883 174.605,601.235 175.162,600.521 C175.719,599.808 176.193,599.222 176.584,598.764 C176.974,598.305 177.266,597.946 177.459,597.685 C177.652,597.425 179.118,595.701 181.857,592.514 C182.503,591.857 183.136,591.157 183.756,590.412 C184.376,589.667 184.881,589.081 185.271,588.654 C185.662,588.227 185.956,587.92 186.154,587.732 C183.81,579.982 182.342,573.795 181.748,569.17 C181.3,565.461 181.076,560.383 181.076,553.935 C181.076,548.269 182.378,542.961 184.982,538.014 C187.514,532.878 191.06,528.68 195.623,525.42 C195.883,525.222 196.206,525.123 196.592,525.123 C197.05,525.123 197.378,525.222 197.576,525.42 C201.086,529.649 204.112,535.149 206.654,541.92 C209.258,548.691 210.56,554.847 210.56,560.389 C210.56,566.639 209.066,572.498 206.076,577.967 C202.691,583.758 198.326,589.748 192.982,595.935 C194.347,600.227 196.17,606.961 198.451,616.139 M206.748,661.56 C210.133,660.321 212.774,658.206 214.67,655.217 C216.753,652.352 217.795,649.128 217.795,645.545 C217.795,640.92 216.232,636.816 213.107,633.232 C209.909,629.524 205.836,627.441 200.889,626.982 C203.691,640.722 205.644,652.248 206.748,661.56 M168.967,638.998 C168.967,645.446 171.571,651.112 176.779,655.998 C182.112,660.748 188.102,663.123 194.748,663.123 C197.477,663.123 200.144,662.925 202.748,662.529 C201.706,652.633 199.654,640.784 196.592,626.982 C192.883,627.378 189.925,628.68 187.717,630.889 C185.56,633.17 184.482,635.743 184.482,638.607 C184.482,643.555 187.123,647.56 192.404,650.623 C192.852,651.081 193.076,651.571 193.076,652.092 C193.076,652.612 192.852,653.097 192.404,653.545 C192.008,654.003 191.519,654.232 190.935,654.232 C190.873,654.232 190.581,654.17 190.06,654.045 C186.342,652.024 183.477,649.42 181.467,646.232 C179.571,642.836 178.623,639.415 178.623,635.967 C178.623,631.477 180.024,627.409 182.826,623.764 C185.753,620.118 189.56,617.774 194.248,616.732 C192.425,609.441 190.93,603.743 189.764,599.639 C188.722,600.816 187.469,602.232 186.006,603.889 C184.542,605.545 183.68,606.54 183.42,606.873 C181.076,609.925 179.284,612.3 178.045,613.998 C175.826,617.06 174.196,619.696 173.154,621.904 C172.05,624.383 171.076,627.086 170.232,630.014 C169.389,632.816 168.967,635.81 168.967,638.998 M201.576,539.685 C196.691,542.092 192.852,545.54 190.06,550.029 C187.196,554.654 185.764,559.633 185.764,564.967 C185.764,569.654 186.935,575.972 189.279,583.92 C193.967,578.253 197.482,573.014 199.826,568.201 C202.295,563.118 203.529,557.81 203.529,552.279 C203.529,548.112 202.878,543.915 201.576,539.685"/>
<path class="TimeSig" d="M272.467,567.912 C274.415,567.912 276.073,567.685 277.443,567.232 C278.813,566.779 279.691,566.553 280.076,566.553 C280.534,566.553 280.894,566.683 281.154,566.943 C281.352,567.131 281.482,567.355 281.545,567.615 C281.545,567.751 281.477,567.948 281.342,568.209 L252.935,601.224 L269.623,601.224 L269.623,588.131 C269.623,587.287 269.852,586.568 270.31,585.974 C271.092,585.329 271.743,584.938 272.264,584.803 C273.107,584.417 274.149,583.506 275.389,582.068 C276.43,580.902 277.67,578.855 279.107,575.928 C279.295,575.532 279.586,575.334 279.982,575.334 C280.764,575.334 281.217,575.792 281.342,576.709 L281.342,601.224 L288.482,601.224 C289.389,601.224 289.909,601.709 290.045,602.678 C290.045,603.657 289.524,604.146 288.482,604.146 L281.342,604.146 L281.342,604.928 C281.342,607.532 281.993,609.745 283.295,611.568 C284.795,613.391 286.555,614.303 288.576,614.303 C289.357,614.303 289.748,614.693 289.748,615.474 C289.748,616.256 289.357,616.646 288.576,616.646 C287.211,616.646 284.998,616.454 281.935,616.068 C279.133,615.61 276.951,615.381 275.389,615.381 C273.764,615.381 271.581,615.61 268.842,616.068 C265.915,616.454 263.737,616.646 262.31,616.646 C261.529,616.646 261.139,616.256 261.139,615.474 C261.139,614.693 261.529,614.303 262.31,614.303 C264.321,614.303 266.076,613.391 267.576,611.568 C268.941,609.683 269.623,607.469 269.623,604.928 L269.623,604.146 L252.935,604.146 C251.821,604.146 251.04,603.886 250.592,603.365 C250.06,602.98 249.795,602.459 249.795,601.803 C249.795,601.605 250.284,600.922 251.264,599.756 C252.378,598.454 253.55,596.86 254.779,594.974 C256.217,592.756 257.586,590.474 258.889,588.131 C260.316,585.464 261.456,582.402 262.31,578.943 C263.279,575.433 263.764,571.855 263.764,568.209 C263.764,567.167 264.222,566.646 265.139,566.646 C265.336,566.646 265.758,566.745 266.404,566.943 C266.602,567.006 267.011,567.102 267.631,567.232 C268.251,567.362 268.753,567.49 269.139,567.615 C270.316,567.813 271.425,567.912 272.467,567.912"/>
<path class="TimeSig" d="M272.467,618.084 C274.415,618.084 276.073,617.857 277.443,617.404 C278.813,616.951 279.691,616.724 280.076,616.724 C280.534,616.724 280.894,616.855 281.154,617.115 C281.352,617.303 281.482,617.527 281.545,617.787 C281.545,617.922 281.477,618.12 281.342,618.381 L252.935,651.396 L269.623,651.396 L269.623,638.303 C269.623,637.459 269.852,636.74 270.31,636.146 C271.092,635.501 271.743,635.11 272.264,634.974 C273.107,634.589 274.149,633.678 275.389,632.24 C276.43,631.073 277.67,629.027 279.107,626.099 C279.295,625.704 279.586,625.506 279.982,625.506 C280.764,625.506 281.217,625.964 281.342,626.881 L281.342,651.396 L288.482,651.396 C289.389,651.396 289.909,651.881 290.045,652.849 C290.045,653.829 289.524,654.318 288.482,654.318 L281.342,654.318 L281.342,655.099 C281.342,657.704 281.993,659.917 283.295,661.74 C284.795,663.563 286.555,664.474 288.576,664.474 C289.357,664.474 289.748,664.865 289.748,665.646 C289.748,666.428 289.357,666.818 288.576,666.818 C287.211,666.818 284.998,666.626 281.935,666.24 C279.133,665.782 276.951,665.553 275.389,665.553 C273.764,665.553 271.581,665.782 268.842,666.24 C265.915,666.626 263.737,666.818 262.31,666.818 C261.529,666.818 261.139,666.428 261.139,665.646 C261.139,664.865 261.529,664.474 262.31,664.474 C264.321,664.474 266.076,663.563 267.576,661.74 C268.941,659.855 269.623,657.641 269.623,655.099 L269.623,654.318 L252.935,654.318 C251.821,654.318 251.04,654.058 250.592,653.537 C250.06,653.152 249.795,652.631 249.795,651.974 C249.795,651.777 250.284,651.094 251.264,649.928 C252.378,648.626 253.55,647.032 254.779,645.146 C256.217,642.928 257.586,640.646 258.889,638.303 C260.316,635.636 261.456,632.573 262.31,629.115 C263.279,625.605 263.764,622.027 263.764,618.381 C263.764,617.339 264.222,616.818 265.139,616.818 C265.336,616.818 265.758,616.917 266.404,617.115 C266.602,617.178 267.011,617.274 267.631,617.404 C268.251,617.534 268.753,617.662 269.139,617.787 C270.316,617.985 271.425,618.084 272.467,618.084"/>
<path class="Rest" d="M341.654,608.92 C341.654,607.743 342.31,606.441 343.623,605.014 C344.592,603.972 346.024,602.732 347.92,601.295 C349.347,600.326 350.743,598.862 352.107,596.904 C353.409,595.019 354.06,592.967 354.06,590.748 C354.06,588.144 353.217,585.836 351.529,583.826 L348.014,579.623 C347.753,579.362 347.623,579.037 347.623,578.646 C347.623,578.256 347.816,577.899 348.201,577.576 C348.659,577.243 349.05,577.076 349.373,577.076 C349.831,577.076 350.191,577.274 350.451,577.67 L365.592,595.639 C366.237,596.482 366.56,597.326 366.56,598.17 C366.56,599.347 365.909,600.649 364.607,602.076 C363.764,602.993 362.368,604.232 360.42,605.795 C358.92,606.701 357.487,608.165 356.123,610.185 C354.821,612.071 354.17,614.123 354.17,616.342 C354.17,619.081 354.951,621.394 356.514,623.279 L364.904,633.139 C365.102,633.336 365.264,633.665 365.389,634.123 C365.389,634.571 365.227,634.961 364.904,635.295 C364.446,635.618 364.055,635.779 363.732,635.779 C363.607,635.779 363.086,635.42 362.17,634.701 C361.191,633.92 359.889,633.17 358.264,632.451 C356.441,631.743 354.649,631.389 352.889,631.389 C351.264,631.389 349.93,631.842 348.889,632.748 C347.982,633.665 347.529,635.425 347.529,638.029 C347.529,641.998 348.472,645.123 350.357,647.404 C350.555,647.665 350.586,647.987 350.451,648.373 C350.326,648.633 350.097,648.764 349.764,648.764 C349.316,648.764 348.31,647.592 346.748,645.248 C345.112,642.779 343.581,639.946 342.154,636.748 C340.654,633.362 339.904,630.566 339.904,628.357 C339.904,625.555 341.237,624.154 343.904,624.154 C346.967,624.154 350.941,625.196 355.826,627.279 L342.639,611.451 C341.982,610.607 341.654,609.764 341.654,608.92"/>
<path class="Rest" d="M544.52,596.217 C546.406,596.217 547.838,596.737 548.817,597.779 C549.796,598.956 550.317,600.066 550.38,601.107 C550.515,602.086 550.843,603.191 551.364,604.42 C551.947,605.461 552.692,605.982 553.598,605.982 C554.317,605.982 555.395,605.17 556.833,603.545 C558.135,602.118 559.078,600.847 559.661,599.732 C559.984,599.086 560.437,598.764 561.02,598.764 L561.13,598.764 C561.776,598.826 562.229,599.149 562.489,599.732 L550.192,641.732 C549.536,642.389 548.622,642.717 547.45,642.717 C546.278,642.717 545.369,642.389 544.723,641.732 L556.442,609.107 C552.276,610.607 548.76,611.357 545.895,611.357 C543.552,611.357 541.531,610.607 539.833,609.107 C538.072,607.68 537.192,605.795 537.192,603.451 C537.192,601.43 537.911,599.737 539.348,598.373 C540.776,596.935 542.499,596.217 544.52,596.217"/>
<path class="Rest" d="M703.393,596.217 C705.351,596.217 706.752,596.737 707.596,597.779 C708.502,598.894 709.054,600.003 709.252,601.107 C709.315,602.211 709.643,603.316 710.237,604.42 C710.622,605.461 711.336,605.982 712.377,605.982 C713.033,605.982 714.013,605.201 715.315,603.639 C716.804,601.816 717.747,600.514 718.143,599.732 C718.466,599.086 718.919,598.764 719.502,598.764 C719.502,598.764 719.539,598.764 719.612,598.764 C720.195,598.826 720.617,599.149 720.877,599.732 L703.002,666.732 C702.356,667.389 701.448,667.717 700.276,667.717 C699.104,667.717 698.19,667.389 697.533,666.732 L707.596,634.014 C703.231,635.576 699.685,636.357 696.955,636.357 C694.612,636.357 692.591,635.612 690.893,634.123 C689.132,632.685 688.252,630.795 688.252,628.451 C688.252,626.43 688.935,624.737 690.299,623.373 C691.737,621.946 693.466,621.232 695.487,621.232 C697.435,621.232 698.836,621.753 699.69,622.795 C700.658,623.899 701.242,625.003 701.44,626.107 C701.638,627.409 701.966,628.519 702.424,629.435 C702.872,630.477 703.586,630.998 704.565,630.998 C705.346,630.998 706.455,630.086 707.893,628.264 C709.382,626.566 710.294,625.227 710.627,624.248 L715.205,609.107 C711.039,610.607 707.56,611.357 704.768,611.357 C702.424,611.357 700.403,610.607 698.705,609.107 C696.945,607.68 696.065,605.795 696.065,603.451 C696.065,601.43 696.783,599.737 698.221,598.373 C699.648,596.935 701.372,596.217 703.393,596.217"/>
<path class="Rest" d="M968.363,596.217 C970.321,596.217 971.722,596.737 972.566,597.779 C973.472,598.894 974.024,600.003 974.222,601.107 C974.285,602.211 974.613,603.316 975.207,604.42 C975.592,605.461 976.306,605.982 977.347,605.982 C978.004,605.982 978.983,605.201 980.285,603.639 C981.774,601.816 982.717,600.514 983.113,599.732 C983.436,599.086 983.889,598.764 984.472,598.764 C984.472,598.764 984.509,598.764 984.582,598.764 C985.165,598.826 985.587,599.149 985.847,599.732 L967.972,666.732 C967.327,667.389 966.418,667.717 965.246,667.717 C964.074,667.717 963.16,667.389 962.504,666.732 L972.566,634.014 C968.202,635.576 964.655,636.357 961.925,636.357 C959.582,636.357 957.561,635.612 955.863,634.123 C954.103,632.685 953.222,630.795 953.222,628.451 C953.222,626.43 953.905,624.737 955.269,623.373 C956.707,621.946 958.436,621.232 960.457,621.232 C962.405,621.232 963.806,621.753 964.66,622.795 C965.629,623.899 966.212,625.003 966.41,626.107 C966.608,627.409 966.936,628.519 967.394,629.435 C967.842,630.477 968.556,630.998 969.535,630.998 C970.316,630.998 971.425,630.086 972.863,628.264 C974.353,626.566 975.264,625.227 975.597,624.248 L980.175,609.107 C976.009,610.607 972.53,611.357 969.738,611.357 C967.394,611.357 965.373,610.607 963.675,609.107 C961.915,607.68 961.035,605.795 961.035,603.451 C961.035,601.43 961.754,599.737 963.191,598.373 C964.618,596.935 966.342,596.217 968.363,596.217"/>
<path class="Rest" d="M1191.5,596.217 C1193.45,596.217 1194.86,596.737 1195.7,597.779 C1196.61,598.894 1197.16,600.003 1197.36,601.107 C1197.42,602.211 1197.75,603.316 1198.34,604.42 C1198.72,605.461 1199.44,605.982 1200.48,605.982 C1201.14,605.982 1202.12,605.201 1203.42,603.639 C1204.91,601.816 1205.85,600.514 1206.25,599.732 C1206.57,599.086 1207.02,598.764 1207.61,598.764 C1207.61,598.764 1207.64,598.764 1207.71,598.764 C1208.3,598.826 1208.72,599.149 1208.98,599.732 L1191.11,666.732 C1190.46,667.389 1189.55,667.717 1188.38,667.717 C1187.21,667.717 1186.29,667.389 1185.64,666.732 L1195.7,634.014 C1191.33,635.576 1187.79,636.357 1185.06,636.357 C1182.71,636.357 1180.69,635.612 1179,634.123 C1177.24,632.685 1176.36,630.795 1176.36,628.451 C1176.36,626.43 1177.04,624.737 1178.4,623.373 C1179.84,621.946 1181.57,621.232 1183.59,621.232 C1185.54,621.232 1186.94,621.753 1187.79,622.795 C1188.76,623.899 1189.34,625.003 1189.54,626.107 C1189.74,627.409 1190.07,628.519 1190.53,629.435 C1190.97,630.477 1191.69,630.998 1192.67,630.998 C1193.45,630.998 1194.56,630.086 1196,628.264 C1197.49,626.566 1198.4,625.227 1198.73,624.248 L1203.31,609.107 C1199.14,610.607 1195.66,611.357 1192.87,611.357 C1190.53,611.357 1188.51,610.607 1186.81,609.107 C1185.05,607.68 1184.17,605.795 1184.17,603.451 C1184.17,601.43 1184.89,599.737 1186.32,598.373 C1187.75,596.935 1189.47,596.217 1191.5,596.217"/>
<path class="Rest" d="M1330.47,571.217 C1332.36,571.217 1333.79,571.737 1334.77,572.779 C1335.74,573.956 1336.26,575.066 1336.33,576.107 C1336.46,577.086 1336.78,578.191 1337.3,579.42 C1337.88,580.461 1338.63,580.982 1339.55,580.982 C1340.13,580.982 1341.08,580.201 1342.38,578.639 C1343.56,576.951 1344.34,575.649 1344.72,574.732 C1345.05,574.086 1345.5,573.764 1346.1,573.764 L1346.19,573.764 C1346.84,573.826 1347.29,574.149 1347.55,574.732 L1325.97,666.732 C1325.33,667.389 1324.38,667.717 1323.14,667.717 C1322.04,667.717 1321.13,667.389 1320.41,666.732 L1329,634.014 C1324.9,635.576 1321.32,636.357 1318.25,636.357 C1315.97,636.357 1313.92,635.612 1312.1,634.123 C1310.41,632.623 1309.57,630.732 1309.57,628.451 C1309.57,626.43 1310.28,624.737 1311.71,623.373 C1313.08,621.946 1314.74,621.232 1316.69,621.232 C1318.59,621.232 1320.02,621.753 1320.99,622.795 C1322.03,623.899 1322.59,625.003 1322.66,626.107 C1322.85,627.409 1323.17,628.519 1323.63,629.435 C1324.09,630.477 1324.84,630.998 1325.88,630.998 C1326.6,630.998 1327.7,630.086 1329.19,628.264 C1330.57,626.441 1331.42,625.008 1331.74,623.967 L1335.64,609.014 C1331.28,610.576 1327.73,611.357 1325,611.357 C1322.66,611.357 1320.64,610.607 1318.94,609.107 C1317.18,607.68 1316.3,605.795 1316.3,603.451 C1316.3,601.43 1317.02,599.737 1318.46,598.373 C1319.88,596.935 1321.61,596.217 1323.63,596.217 C1325.59,596.217 1326.99,596.737 1327.83,597.779 C1328.74,598.894 1329.29,600.003 1329.49,601.107 C1329.69,602.409 1330.01,603.514 1330.47,604.42 C1330.92,605.461 1331.63,605.982 1332.61,605.982 C1333.33,605.982 1334.37,605.071 1335.74,603.248 C1337.1,601.623 1337.95,600.29 1338.29,599.248 L1342.29,584.107 C1338.18,585.607 1334.73,586.357 1331.93,586.357 C1329.66,586.357 1327.61,585.607 1325.79,584.107 C1324.09,582.618 1323.24,580.732 1323.24,578.451 C1323.24,576.43 1323.96,574.737 1325.39,573.373 C1326.76,571.935 1328.45,571.217 1330.47,571.217"/>
<path class="Rest" d="M1397.26,596.217 C1399.22,596.217 1400.62,596.737 1401.47,597.779 C1402.37,598.894 1402.93,600.003 1403.12,601.107 C1403.19,602.211 1403.51,603.316 1404.11,604.42 C1404.49,605.461 1405.21,605.982 1406.25,605.982 C1406.91,605.982 1407.88,605.201 1409.19,603.639 C1410.68,601.816 1411.62,600.514 1412.01,599.732 C1412.34,599.086 1412.79,598.764 1413.37,598.764 C1413.37,598.764 1413.41,598.764 1413.48,598.764 C1414.07,598.826 1414.49,599.149 1414.75,599.732 L1396.87,666.732 C1396.23,667.389 1395.32,667.717 1394.15,667.717 C1392.98,667.717 1392.06,667.389 1391.41,666.732 L1401.47,634.014 C1397.1,635.576 1393.56,636.357 1390.83,636.357 C1388.48,636.357 1386.46,635.612 1384.76,634.123 C1383,632.685 1382.12,630.795 1382.12,628.451 C1382.12,626.43 1382.81,624.737 1384.17,623.373 C1385.61,621.946 1387.34,621.232 1389.36,621.232 C1391.31,621.232 1392.71,621.753 1393.56,622.795 C1394.53,623.899 1395.11,625.003 1395.31,626.107 C1395.51,627.409 1395.84,628.519 1396.3,629.435 C1396.74,630.477 1397.46,630.998 1398.44,630.998 C1399.22,630.998 1400.33,630.086 1401.76,628.264 C1403.25,626.566 1404.17,625.227 1404.5,624.248 L1409.08,609.107 C1404.91,610.607 1401.43,611.357 1398.64,611.357 C1396.3,611.357 1394.27,610.607 1392.58,609.107 C1390.82,607.68 1389.94,605.795 1389.94,603.451 C1389.94,601.43 1390.66,599.737 1392.09,598.373 C1393.52,596.935 1395.24,596.217 1397.26,596.217"/>
<path class="Beam" fill-rule="evenodd" d="M1525.99,585.482 L1640.81,585.482 L1640.81,597.982 L1525.99,597.982 L1525.99,585.482 "/>
<path class="Beam" fill-rule="evenodd" d="M1525.99,604.232 L1640.81,604.232 L1640.81,616.732 L1525.99,616.732 L1525.99,604.232 "/>
<path class="Hook" d="M825.209,631.873 C826.709,631.873 828.308,634.31 830.006,639.185 C831.631,644.008 832.444,648.602 832.444,652.967 C832.444,656.675 831.532,660.352 829.709,663.998 C827.824,667.904 825.579,671.29 822.975,674.154 L814.959,683.139 C812.49,686.003 810.277,689.321 808.319,693.092 C806.496,696.737 805.584,700.451 805.584,704.232 L802.459,704.232 L802.459,679.232 L805.584,679.232 C807.345,678.128 809.949,676.368 813.397,673.951 C814.959,672.784 817.303,670.831 820.428,668.092 C822.97,665.748 824.892,663.342 826.194,660.873 C827.558,658.269 828.24,655.633 828.24,652.967 C828.24,646.779 826.449,640.623 822.865,634.498 C822.865,634.498 822.865,634.368 822.865,634.107 C822.865,633.524 823.063,633.04 823.459,632.654 C823.98,632.133 824.563,631.873 825.209,631.873"/>
<path class="Hook" d="M1070.55,621.717 C1073.16,620.217 1075.63,618.685 1077.98,617.123 C1080.46,615.362 1082.67,613.602 1084.62,611.842 C1086.96,609.696 1088.75,607.482 1089.99,605.201 C1091.29,602.732 1091.94,600.295 1091.94,597.889 C1091.94,595.607 1091.49,593.295 1090.57,590.951 C1089.86,591.857 1087.75,593.941 1084.23,597.201 C1081.56,599.67 1079.28,601.915 1077.4,603.935 C1075.7,605.758 1074.14,608.04 1072.71,610.779 C1071.27,613.571 1070.55,616.399 1070.55,619.264 L1070.55,621.717 M1097.41,575.42 C1097.41,579.326 1096.17,583.201 1093.69,587.045 C1095.33,590.493 1096.15,594.107 1096.15,597.889 C1096.15,601.076 1095.27,604.295 1093.51,607.545 C1091.62,611.066 1089.51,613.93 1087.16,616.139 L1079.54,623.56 C1077,626.165 1074.88,628.998 1073.19,632.06 C1071.43,635.185 1070.55,638.409 1070.55,641.732 L1067.43,641.732 L1067.43,591.732 L1070.55,591.732 L1070.55,599.248 C1085.66,591.373 1093.21,583.43 1093.21,575.42 C1093.21,573.659 1092.76,571.607 1091.85,569.264 C1091.85,569.264 1091.85,569.133 1091.85,568.873 C1091.85,568.352 1092.04,567.831 1092.43,567.31 C1092.95,566.79 1093.54,566.529 1094.19,566.529 C1094.84,566.529 1095.42,566.92 1095.94,567.701 C1096.53,568.743 1096.86,569.753 1096.93,570.732 C1096.99,571.191 1097.05,571.779 1097.12,572.498 L1097.32,573.56 C1097.38,574.019 1097.41,574.639 1097.41,575.42"/>
<path class="NoteDot" d="M1222.03,608.24 C1220.93,607.131 1220.37,605.795 1220.37,604.232 C1220.37,602.67 1220.93,601.334 1222.03,600.224 C1223.14,599.115 1224.48,598.56 1226.04,598.56 C1227.61,598.56 1228.94,599.115 1230.04,600.224 C1231.15,601.334 1231.7,602.67 1231.7,604.232 C1231.7,605.795 1231.15,607.131 1230.04,608.24 C1228.94,609.349 1227.61,609.904 1226.04,609.904 C1224.48,609.904 1223.14,609.349 1222.03,608.24"/>
</svg>
