<?xml version="1.0" encoding="utf-8"?>
<!-- Generator: Adobe Illustrator 16.0.0, SVG Export Plug-In . SVG Version: 6.00 Build 0)  -->
<!DOCTYPE svg PUBLIC "-//W3C//DTD SVG 1.1//EN" "http://www.w3.org/Graphics/SVG/1.1/DTD/svg11.dtd">
<svg version="1.1" id="Layer_1" xmlns="http://www.w3.org/2000/svg" xmlns:xlink="http://www.w3.org/1999/xlink" x="0px" y="0px"
	 width="176px" height="204.641px" viewBox="101.1 504.7 176 204.641" enable-background="new 101.1 504.7 176 204.641"
	 xml:space="preserve">
<title>Untitled</title>
<desc>Generated by MuseScore 3.1.0</desc>
<path d="M179.489,585.698c-2.344,0-4.037,0.812-5.079,2.437c-1.166,1.563-1.75,3.684-1.75,6.36c0,3.063,0.813,5.698,2.438,7.906
	c1.625,2.146,3.417,3.646,5.375,4.5c1.75,0.844,3.604,1.266,5.563,1.266c2.282,0,4.006-0.813,5.172-2.438
	c1.104-1.636,1.657-3.755,1.657-6.359c0-3.063-0.813-5.698-2.438-7.906c-1.625-2.084-3.38-3.584-5.266-4.5
	C183.264,586.12,181.373,585.698,179.489,585.698 M182.817,583.167c7.03,0,12.89,1.364,17.578,4.093
	c4.75,2.74,7.125,5.965,7.125,9.673c0,3.969-2.443,7.224-7.328,9.766c-4.887,2.667-10.678,4-17.375,4
	c-6.907,0-12.767-1.365-17.578-4.094c-4.823-2.739-7.235-5.963-7.235-9.672c0-3.969,2.475-7.225,7.422-9.766
	C170.311,584.5,176.108,583.167,182.817,583.167"/>
</svg>
