<?xml version="1.0" encoding="UTF-8" standalone="no"?>
<svg
   xmlns:dc="http://purl.org/dc/elements/1.1/"
   xmlns:cc="http://creativecommons.org/ns#"
   xmlns:rdf="http://www.w3.org/1999/02/22-rdf-syntax-ns#"
   xmlns:svg="http://www.w3.org/2000/svg"
   xmlns="http://www.w3.org/2000/svg"
   id="svg42"
   version="1.2"
   viewBox="0 0 27.547001 75.000002"
   height="75"
   width="27.547001">
  <metadata
     id="metadata48">
    <rdf:RDF>
      <cc:Work
         rdf:about="">
        <dc:format>image/svg+xml</dc:format>
        <dc:type
           rdf:resource="http://purl.org/dc/dcmitype/StillImage" />
        <dc:title>Untitled</dc:title>
      </cc:Work>
    </rdf:RDF>
  </metadata>
  <defs
     id="defs46" />
  <title
     id="title2">Untitled</title>
  <desc
     id="desc4">Generated by MuseScore 3.2.3</desc>
  <path
     id="path24"
     d="m 21.578,68.657 c 0,1.239 -0.617,1.859 -1.851,1.859 -1.235,0 -1.852,-0.62 -1.852,-1.859 V 54.203 L 9.578,57.328 V 73.141 C 9.578,74.38 8.958,75 7.719,75 6.479,75 5.86,74.38 5.86,73.141 V 58.594 L 2.735,59.766 C 2.672,59.828 2.412,59.86 1.953,59.86 1.432,59.86 0.977,59.664 0.586,59.274 0.195,58.883 0,58.427 0,57.907 V 51.86 C 0,50.88 0.422,50.261 1.266,50 L 5.86,48.438 V 32.422 L 2.735,33.5 C 2.672,33.563 2.412,33.594 1.953,33.594 1.432,33.594 0.977,33.399 0.586,33.008 0.195,32.617 0,32.162 0,31.641 v -6.063 c 0,-0.906 0.422,-1.489 1.266,-1.75 L 5.86,22.063 V 6.344 c 0,-1.24 0.619,-1.859 1.859,-1.859 1.239,0 1.859,0.619 1.859,1.859 v 14.453 l 8.297,-3.125 V 1.86 c 0,-1.24 0.617,-1.86 1.852,-1.86 1.234,0 1.851,0.62 1.851,1.86 v 14.547 l 3.235,-1.172 c 0.062,-0.063 0.286,-0.094 0.672,-0.094 0.458,0 0.947,0.193 1.468,0.578 0.396,0.396 0.594,0.854 0.594,1.375 v 6.047 c 0,0.917 -0.458,1.536 -1.375,1.859 l -4.594,1.563 V 42.578 L 24.813,41.5 c 0.062,-0.062 0.286,-0.093 0.672,-0.093 0.458,0 0.947,0.197 1.468,0.593 0.396,0.386 0.594,0.839 0.594,1.36 v 6.062 c 0,0.844 -0.458,1.427 -1.375,1.75 l -4.594,1.766 V 68.657 M 17.875,28.032 9.578,30.953 v 16.016 l 8.297,-2.922 V 28.032"
     class="Accidental" />
</svg>
