<?xml version="1.0" encoding="iso-8859-1"?>
<!-- Generator: Adobe Illustrator 19.0.0, SVG Export Plug-In . SVG Version: 6.00 Build 0)  -->
<svg version="1.1" id="Capa_1" xmlns="http://www.w3.org/2000/svg" xmlns:xlink="http://www.w3.org/1999/xlink" x="0px" y="0px"
	 viewBox="0 0 391.757 391.757" style="enable-background:new 0 0 391.757 391.757;" xml:space="preserve">
<g>
	<path d="M385.636,258.798v-27.894c3.642-2.118,6.121-6.023,6.121-10.541c0-108.186-87.699-195.879-195.879-195.879
		S0,112.176,0,220.363c0,4.517,2.479,8.423,6.121,10.541v27.894C2.485,260.928,0,264.833,0,269.332v48.97
		c0,6.727,5.509,12.242,12.242,12.242s12.242-5.515,12.242-12.242v-6.121h6.121v24.485c0,16.833,13.773,30.606,30.606,30.606h6.121
		c10.1,0,18.364-8.27,18.364-18.364V238.726c0-10.106-8.264-18.364-18.364-18.364h-6.121c-16.833,0-30.606,13.773-30.606,30.606
		v30.606h-6.121v-12.242c0-4.499-2.485-8.404-6.121-10.535v-27.894c3.642-2.118,6.121-6.023,6.121-10.541
		c0-94.658,76.736-171.394,171.394-171.394s171.394,76.736,171.394,171.394c0,4.517,2.479,8.423,6.121,10.541v27.894
		c-3.636,2.13-6.121,6.035-6.121,10.535v12.242h-6.121v-30.605c0-16.833-13.773-30.606-30.606-30.606h-6.121
		c-10.1,0-18.364,8.258-18.364,18.364v110.182c0,10.094,8.264,18.364,18.364,18.364h6.121c16.833,0,30.606-13.773,30.606-30.606
		v-24.485h6.121v6.121c0,6.727,5.509,12.242,12.242,12.242s12.242-5.515,12.242-12.242v-48.97
		C391.758,264.833,389.272,260.928,385.636,258.798"/>
</g>
<g>
</g>
<g>
</g>
<g>
</g>
<g>
</g>
<g>
</g>
<g>
</g>
<g>
</g>
<g>
</g>
<g>
</g>
<g>
</g>
<g>
</g>
<g>
</g>
<g>
</g>
<g>
</g>
<g>
</g>
</svg>
