<?xml version="1.0" encoding="UTF-8" standalone="no"?>
<!-- Generator: Adobe Illustrator 19.0.0, SVG Export Plug-In . SVG Version: 6.00 Build 0)  -->

<svg
   xmlns:dc="http://purl.org/dc/elements/1.1/"
   xmlns:cc="http://creativecommons.org/ns#"
   xmlns:rdf="http://www.w3.org/1999/02/22-rdf-syntax-ns#"
   xmlns:svg="http://www.w3.org/2000/svg"
   xmlns="http://www.w3.org/2000/svg"
   xmlns:sodipodi="http://sodipodi.sourceforge.net/DTD/sodipodi-0.dtd"
   xmlns:inkscape="http://www.inkscape.org/namespaces/inkscape"
   version="1.1"
   id="Layer_1"
   x="0px"
   y="0px"
   viewBox="0 0 512 512"
   style="enable-background:new 0 0 512 512;"
   xml:space="preserve"
   sodipodi:docname="mp3.svg"
   inkscape:version="0.92.2 (5c3e80d, 2017-08-06)"><metadata
     id="metadata161"><rdf:RDF><cc:Work
         rdf:about=""><dc:format>image/svg+xml</dc:format><dc:type
           rdf:resource="http://purl.org/dc/dcmitype/StillImage" /></cc:Work></rdf:RDF></metadata><defs
     id="defs159" /><sodipodi:namedview
     pagecolor="#ffffff"
     bordercolor="#666666"
     borderopacity="1"
     objecttolerance="10"
     gridtolerance="10"
     guidetolerance="10"
     inkscape:pageopacity="0"
     inkscape:pageshadow="2"
     inkscape:window-width="1856"
     inkscape:window-height="1061"
     id="namedview157"
     showgrid="false"
     inkscape:zoom="1.3037281"
     inkscape:cx="372.41727"
     inkscape:cy="338.14488"
     inkscape:window-x="-4"
     inkscape:window-y="-4"
     inkscape:window-maximized="1"
     inkscape:current-layer="g124" /><g
     id="g124"><path
       style="fill:#EB8923;"
       d="M405.73,466.553c0,16.031-14.485,29.027-32.354,29.027H114.558   c-17.869,0-32.354-12.996-32.354-29.027V29.027C82.204,12.998,96.689,0,114.558,0h258.817c17.869,0,32.354,12.998,32.354,29.027   v437.526H405.73z"
       id="path16" /><path
       style="fill:#E2E5E7;"
       d="M382.041,242.89c0,2.707-2.038,4.9-4.553,4.9H110.443c-2.513,0-4.552-2.193-4.552-4.9V33.797   c0-2.707,2.039-4.9,4.552-4.9h267.045c2.515,0,4.553,2.193,4.553,4.9L382.041,242.89L382.041,242.89z"
       id="path18" /><circle
       style="fill:#C6CBCB;"
       cx="243.966"
       cy="365.64"
       r="101.082"
       id="circle20" /><circle
       style="fill:#E2E5E7;"
       cx="243.966"
       cy="365.64"
       r="95.771"
       id="circle78" /><circle
       style="fill:#C6CBCB;"
       cx="243.967"
       cy="365.64"
       r="36.825"
       id="circle80" /><g
       id="g88"><polygon
         style="fill:#C6CBCB;"
         points="315.284,365.642 308.742,369.417 302.201,373.194 302.201,365.642 302.201,358.086     308.742,361.864   "
         id="polygon82" /><polygon
         style="fill:#C6CBCB;"
         points="326.206,365.642 319.662,369.417 313.122,373.194 313.122,365.642 313.122,358.086     319.662,361.864   "
         id="polygon84" /><path
         style="fill:#C6CBCB;"
         d="M327.731,373.427c0,0.843-0.683,1.526-1.525,1.526l0,0c-0.842,0-1.525-0.684-1.525-1.526v-15.573    c0-0.843,0.684-1.526,1.525-1.526l0,0c0.843,0,1.525,0.684,1.525,1.526V373.427z"
         id="path86" /></g><g
       id="g96"><polygon
         style="fill:#C6CBCB;"
         points="172.651,365.642 179.193,369.417 185.733,373.194 185.733,365.642 185.733,358.086     179.193,361.864   "
         id="polygon90" /><polygon
         style="fill:#C6CBCB;"
         points="161.73,365.642 168.272,369.417 174.813,373.194 174.813,365.642 174.813,358.086     168.272,361.864   "
         id="polygon92" /><path
         style="fill:#C6CBCB;"
         d="M160.203,373.427c0,0.843,0.683,1.526,1.526,1.526l0,0c0.842,0,1.524-0.684,1.524-1.526v-15.573    c0-0.843-0.683-1.526-1.524-1.526l0,0c-0.844,0-1.526,0.684-1.526,1.526V373.427z"
         id="path94" /></g><g
       id="g106"><polygon
         style="fill:#C6CBCB;"
         points="243.478,440.074 236.934,443.85 230.394,447.626 230.394,440.074 230.394,432.519     236.934,436.297   "
         id="polygon98" /><g
         id="g104"><path
           style="fill:#C6CBCB;"
           d="M250.458,446.069c0,0.648-0.684,1.175-1.526,1.175l0,0c-0.842,0-1.525-0.526-1.525-1.175v-11.993     c0-0.649,0.684-1.176,1.525-1.176l0,0c0.843,0,1.526,0.526,1.526,1.176V446.069z"
           id="path100" /><path
           style="fill:#C6CBCB;"
           d="M257.54,446.069c0,0.648-0.683,1.175-1.526,1.175l0,0c-0.841,0-1.524-0.526-1.524-1.175v-11.993     c0-0.649,0.684-1.176,1.524-1.176l0,0c0.844,0,1.526,0.526,1.526,1.176V446.069z"
           id="path102" /></g></g><g
       id="g116"><path
         style="fill:#C6CBCB;"
         d="M226.95,303.321c-0.099-2.118-0.22-4.669-0.196-6.885h-0.074c-0.533,1.995-1.213,4.208-1.942,6.277    l-2.41,7.101h-2.287l-2.188-7.003c-0.631-2.096-1.214-4.331-1.653-6.375h-0.048c-0.074,2.142-0.172,4.743-0.292,6.979    l-0.364,6.594h-2.798l1.094-16.395h3.94l2.141,6.593c0.583,1.92,1.094,3.867,1.508,5.689h0.073    c0.438-1.774,0.999-3.793,1.63-5.715l2.263-6.567h3.892l0.948,16.395h-2.919L226.95,303.321z"
         id="path108" /><path
         style="fill:#C6CBCB;"
         d="M242.403,302.737h-6.18v4.814h6.91v2.458h-9.898v-16.395h9.533v2.457h-6.545v4.232h6.18    L242.403,302.737L242.403,302.737z"
         id="path110" /><path
         style="fill:#C6CBCB;"
         d="M245.743,310.01v-16.395h3.429l4.233,7.029c1.071,1.823,2.043,3.723,2.796,5.498h0.05    c-0.219-2.188-0.268-4.307-0.268-6.811v-5.717h2.772v16.395h-3.113l-4.279-7.225c-1.048-1.799-2.118-3.794-2.921-5.643    l-0.098,0.023c0.123,2.119,0.17,4.282,0.17,6.981v5.862h-2.771L245.743,310.01L245.743,310.01z"
         id="path112" /><path
         style="fill:#C6CBCB;"
         d="M265.185,293.615v9.559c0,3.211,1.338,4.693,3.357,4.693c2.162,0,3.453-1.482,3.453-4.693v-9.559    h2.991v9.363c0,5.061-2.602,7.299-6.542,7.299c-3.795,0-6.253-2.117-6.253-7.273v-9.389H265.185z"
         id="path114" /></g></g><g
     id="g126" /><g
     id="g128" /><g
     id="g130" /><g
     id="g132" /><g
     id="g134" /><g
     id="g136" /><g
     id="g138" /><g
     id="g140" /><g
     id="g142" /><g
     id="g144" /><g
     id="g146" /><g
     id="g148" /><g
     id="g150" /><g
     id="g152" /><g
     id="g154" /></svg>